<mxfile host="Electron" agent="Mozilla/5.0 (Windows NT 10.0; Win64; x64) AppleWebKit/537.36 (KHTML, like Gecko) draw.io/26.0.9 Chrome/128.0.6613.186 Electron/32.2.5 Safari/537.36" version="26.0.9">
  <diagram name="Page-1" id="HkTnMR4NEGfY3RznEOBR">
    <mxGraphModel dx="840" dy="535" grid="1" gridSize="10" guides="1" tooltips="1" connect="1" arrows="1" fold="1" page="1" pageScale="1" pageWidth="827" pageHeight="1169" math="0" shadow="0">
      <root>
        <mxCell id="0" />
        <mxCell id="1" parent="0" />
        <mxCell id="TAAMW9c03Df91oIx33Ai-1" value="" style="verticalLabelPosition=bottom;sketch=0;html=1;fillColor=#282828;strokeColor=none;verticalAlign=top;pointerEvents=1;align=center;shape=mxgraph.cisco_safe.people_places_things_icons.icon1;" vertex="1" parent="1">
          <mxGeometry x="120" y="230" width="46.5" height="50" as="geometry" />
        </mxCell>
        <mxCell id="TAAMW9c03Df91oIx33Ai-8" value="." style="rounded=0;orthogonalLoop=1;jettySize=auto;html=1;exitX=1;exitY=0.5;exitDx=0;exitDy=0;exitPerimeter=0;entryX=0;entryY=0.5;entryDx=0;entryDy=0;" edge="1" parent="1" source="TAAMW9c03Df91oIx33Ai-2" target="TAAMW9c03Df91oIx33Ai-4">
          <mxGeometry relative="1" as="geometry" />
        </mxCell>
        <mxCell id="TAAMW9c03Df91oIx33Ai-9" style="rounded=0;orthogonalLoop=1;jettySize=auto;html=1;exitX=1;exitY=0.5;exitDx=0;exitDy=0;exitPerimeter=0;entryX=0;entryY=0.5;entryDx=0;entryDy=0;" edge="1" parent="1" source="TAAMW9c03Df91oIx33Ai-2" target="TAAMW9c03Df91oIx33Ai-5">
          <mxGeometry relative="1" as="geometry" />
        </mxCell>
        <mxCell id="TAAMW9c03Df91oIx33Ai-10" style="rounded=0;orthogonalLoop=1;jettySize=auto;html=1;exitX=1;exitY=0.5;exitDx=0;exitDy=0;exitPerimeter=0;entryX=0;entryY=0.5;entryDx=0;entryDy=0;" edge="1" parent="1" source="TAAMW9c03Df91oIx33Ai-2" target="TAAMW9c03Df91oIx33Ai-6">
          <mxGeometry relative="1" as="geometry" />
        </mxCell>
        <mxCell id="TAAMW9c03Df91oIx33Ai-11" style="rounded=0;orthogonalLoop=1;jettySize=auto;html=1;exitX=1;exitY=0.5;exitDx=0;exitDy=0;exitPerimeter=0;entryX=0;entryY=0.5;entryDx=0;entryDy=0;" edge="1" parent="1" source="TAAMW9c03Df91oIx33Ai-2" target="TAAMW9c03Df91oIx33Ai-3">
          <mxGeometry relative="1" as="geometry" />
        </mxCell>
        <mxCell id="TAAMW9c03Df91oIx33Ai-2" value="&lt;span style=&quot;font-size: 20px;&quot;&gt;CDG Capital Gestion&lt;/span&gt;" style="points=[[0.25,0,0],[0.5,0,0],[0.75,0,0],[1,0.25,0],[1,0.5,0],[1,0.75,0],[0.75,1,0],[0.5,1,0],[0.25,1,0],[0,0.75,0],[0,0.5,0],[0,0.25,0]];shape=mxgraph.bpmn.task2;whiteSpace=wrap;rectStyle=rounded;size=10;html=1;container=1;expand=0;collapsible=0;taskMarker=abstract;" vertex="1" parent="1">
          <mxGeometry x="270" y="215" width="150" height="80" as="geometry" />
        </mxCell>
        <mxCell id="TAAMW9c03Df91oIx33Ai-3" value="Crown Packaging Maroc" style="rounded=1;whiteSpace=wrap;html=1;" vertex="1" parent="1">
          <mxGeometry x="560" y="375" width="120" height="60" as="geometry" />
        </mxCell>
        <mxCell id="TAAMW9c03Df91oIx33Ai-4" value="&lt;font style=&quot;font-size: 16px;&quot;&gt;Tanger Med&lt;/font&gt;" style="rounded=1;whiteSpace=wrap;html=1;" vertex="1" parent="1">
          <mxGeometry x="560" y="80" width="120" height="60" as="geometry" />
        </mxCell>
        <mxCell id="TAAMW9c03Df91oIx33Ai-5" value="&lt;font style=&quot;font-size: 16px;&quot;&gt;Lydec&lt;/font&gt;" style="rounded=1;whiteSpace=wrap;html=1;" vertex="1" parent="1">
          <mxGeometry x="560" y="180" width="120" height="60" as="geometry" />
        </mxCell>
        <mxCell id="TAAMW9c03Df91oIx33Ai-6" value="&lt;font style=&quot;font-size: 16px;&quot;&gt;Ciments du Maroc&lt;/font&gt;" style="rounded=1;whiteSpace=wrap;html=1;" vertex="1" parent="1">
          <mxGeometry x="560" y="280" width="120" height="60" as="geometry" />
        </mxCell>
        <mxCell id="TAAMW9c03Df91oIx33Ai-12" style="edgeStyle=orthogonalEdgeStyle;rounded=0;orthogonalLoop=1;jettySize=auto;html=1;entryX=0;entryY=0.5;entryDx=0;entryDy=0;entryPerimeter=0;" edge="1" parent="1" source="TAAMW9c03Df91oIx33Ai-1" target="TAAMW9c03Df91oIx33Ai-2">
          <mxGeometry relative="1" as="geometry" />
        </mxCell>
        <mxCell id="TAAMW9c03Df91oIx33Ai-13" value="&lt;font style=&quot;font-size: 20px;&quot;&gt;Research Analysts&lt;/font&gt;" style="verticalLabelPosition=bottom;sketch=0;html=1;fillColor=light-dark(#292929, #cbcbcb);strokeColor=default;verticalAlign=top;pointerEvents=1;align=center;shape=mxgraph.cisco_safe.people_places_things_icons.icon2;" vertex="1" parent="1">
          <mxGeometry x="320" y="320" width="50" height="41" as="geometry" />
        </mxCell>
        <mxCell id="TAAMW9c03Df91oIx33Ai-14" value="&lt;font style=&quot;font-size: 40px; color: rgb(126, 166, 224);&quot;&gt;Technical Architecture&lt;/font&gt;" style="text;html=1;align=center;verticalAlign=middle;whiteSpace=wrap;rounded=0;" vertex="1" parent="1">
          <mxGeometry x="144" y="510" width="540" height="100" as="geometry" />
        </mxCell>
        <mxCell id="TAAMW9c03Df91oIx33Ai-15" value="" style="shape=image;aspect=fixed;image=data:image/png,iVBORw0KGgoAAAANSUhEUgAAAb8AAABxCAMAAAByWF0wAAAAw1BMVEX///9AQEDsZRk9PT0pKSk0NDTrXAA3NzfrVQAuLi7rWgA5OTnrWwArKyvqUgDrVgD19fXR0dGjo6OwsLBUVFRqamrp6elPT0+NjY2ampqUlJRxcXH++PXCwsJkZGTi4uL74NZ7e3v97+n87OX4zLvwjmP62s72wKvvhFT1t5/X19fym3fzooL3ybfudz350sPxk2u2traEhIQYGBjtaiPyoH70sZfwiFrufUj0q44hISHtcjPsaB6qqqpcXFz63NERERHglJ9PAAAUtklEQVR4nO1daWOiSrNWkBZRwZhNE0yIu9G4HWM0Jjnv//9Vl96qG2gWZzSZOZfnyzjYkoaHqq6ti0LhaLjwaabtvOjRHH8yugfTGdGPW0fTEP3o7kxn/3OTypEZG6Rpdo98HPsfTQ8+2v0fnFaObOiami90W/JZkj8bH5394LxyJGFqWYwclzA14YcPHv3ki59WY0cXB3Pz8u1TzBGPnU+PNaCfXx2EUMRY6dvI2tCP/2KGc136B8HDOpMveoXRYNZVjNkyo6YwwLKo7b5tdjnSsLAwI9Yi2+g5Hqx9nHdKOY5A1ybyp5A6FWZY/tD0vFPKcQz2NkL2NuNgd2Ohmpa78z8Mdz+fg0e+mE4zak+M0WzCP/Zed9N/TzuxHFnQRb4aRL8rRi820rJLbo7TYUysSLRMGDIcsg/ufrz0VCOIs++vnMovc5wRLr3zmhM/ZGw6czpWw0LmKYZMyEOQB2a+H12H8mdGFSg7svBHWGSd2xKDkzl83aFkpu4Zf0lSnOMsoHde4cbNbJPEVl5qXLCWVNXij+7YtOwBjH2xKH/5AvjtmBABNEfh457NlKrrIKY0qfyN8ce5+EjAlHDuTHw/9nbNsieRw0OfV5vw0VuOqU/hIr7+DanWZTklPEazkIW8yFlynB9uvx+Qmwklc+7YYXPEfZ0PPDKErXeS1C4meST7j8DUcagZMvRix7D1LmukNMfJMdxPJ+rV6pAlJk31J1J+t5jFnTrHqTDGyT1nqPrqxbYjxkwEQxP/3sMfJx92bSr4cufk1LlknhM0dQeZviDcLMLjTl6pkL1hVYoQOIPzpFPnOAk8FnRBA/lov+ZEzVCK0XTmqb95YZqUuxILR3XqHCcFMx99A0Q+asdKzcHyXUDGbe8lYK2OtWD8Zs9PrV4bc5wCwJ/scOOCJfWKSDmhad2lXauZkphu+JPg0f/Pcv7OD67ktI18dGo6h8AwTu5BOHvTGqFSVJ2B/LEFcFRjB+bnvID/72BS4wQNzWHAaOwebLSQRmP+aIGFzDtf/6CMifHn5IWFZ0SvhtWck5guOCCuM6lOxGsjLXAKZCsGxP60wP4c2uTUeVnMWeHOPtAORGQyjXp8JDFYo0PAfmFxT82WBk4021lKuaTuUpNOneP8eHWQGc28YjEyWUnLZMmKW5DsHPQYa3mw5WdhKs3Fvl0zIwp2gbUj9da3yHE0Sc7cyXSmNF9znBmW2tzvvigKyryxaS2xwC3JUigSTyMSURtHf3EEGo2bm0cfN41MYx8pbhoZhp8ex0yAXdhNlgvzRz8+P188Pz8qB/f3+/DiNLKRFPJ8mWQJfS1YCMfmVRZ2MA7jr5XbWaYzFZ5Xzdb9w61Rwqhj+P/ePn0+x/6is77iQ9nwkv513/rs3MCQ5hPFhfIEwW8bT9fpeApMoHVVD02gGpqAj4tVe33/VazIF1a/Wl8+xt+LRqf15Q+qYPijja91syMPXyDfFLFqoVSdN/Hg89hRlyiFMGV+Ok8BajwiwFRo74DD2OZr+pmuS4ZRrep6MQC9atSNtZLCz0qlGhpNflA2Kv/j13rzT5XAuFWdIfRtp6Sno9SBn18a8ROQZlysG2X1hentm/CUCC6uS5WyHhpdqRsPbSaKTEpkBzyEnj8CvckH3tBGERZ94/zR0l+PRwRYCVqP/d9KrWhqvEfuBKBaeog+q/f1+B9UuLjdsEG6mr/gtx0j/ozi1MDfU9IEBMsX8cP0cukpqhyfr+rRp4KOr6/pEAvEJM5mDPPXNX2iHCpGw7c5FCi9Mv5qVP6G/MysBG3O/5CZZtI0Skl3TX+/C42/qyTd5G/gr5lAX4C/pIn6j+YqNKnmewx7eDTV3i88uCVVPoSJHAT151LEPvu+7Wnx9c2zAw8CK+Dl8tgztSCf8Ujmz78j18FbnyCu38Jf8nwz81csllqBObWSHosqlT9IDmiILUyvpvlWCKI/kvcf0dgnKZQgYTQoWZqZAUU8ZqemGYw+PChaMKQaRRp/RSNA4F058fadn79m4uAj+CvW29KULhNvQ5Q/Gt/aO2mZOsoLybSTJU2YPqMP056DdsS1aZheuhz+En96tVr2YRj+si+rkkpTGg7mADYXIviHmw/H8Re0X+APK+2XW/heOQFh7wJ//nVV4brkC3sXgwNWgM5OLIZz/QnrH9OfH0RkVJfoTtEHNluIxYPmQKW8OTCQqHffbMvhalnSn2mBUOBPv1+3WnftdrPZvHu6LRniSt+FtXYDo/U1HhkCPP1H8de4f5ABT0jg6FN4ulXVBKRFjfOn3z6tW3fkwtqte70k5FcvwuAWqBXdqD/cfa5Wl5/Nu/X1bcV3Jgyjwv562H4h2tFUXeIHN1tGjmPuaB2oVUOKQlHXYzR2pYK1OZd0USIaA7ghpeDhzhfon7JYKcRNST7rUfyFwCdkqL585hMoqr6VwadaDa5zN81ylV9YBegW13rbCZ6m8Xixaq6ZGR72H0Y4Zwuhz66QpxGNrpADHvfC3ZHkJ3K8mk40zAb+g5PqAMbwV5CXhAocW7Gn1/hMPuvZ+ONrZbmt+lZGDH8+nrgI6l/syDM3XspP4cFBEP+9ZoH793LYgEswsEXBLl0pLbXxvzhsYBWckuBbNGzW22D/3U5v1RTPX2HFn0owS8B6qHQiowM4G3+X/AEKm/8RxPNXuOcSWGJeIH8s06W68BKNn7EvcME8J0yWvzBwEpcvgyyhq9KSi/1+lCEzkcBf4UsPSxs3PyvquBjgbPzxB8hIeYAS+YNr5pcBZ21GxmYGFrkaUIu7Zznq7Xw4icvDZMxvR/x3ozmiFfaZkcQffyyZ+VwQ6/yP8dcun4A/EEAuxc2My0ISPBshkVf37U9V2Ix85atgnq5glYi8kH6A/RH7qH3wSfxxY6F6z4/8MfylKfBk/sLy9sn151d0bGYMx4NsRbe96RS8iAM1NNkZKJubuB+qkMQf3Gdw4f8j/F2GrKAOrPSXaaeVcYLEefdD2ji2pWSaGRvIECTx98jv839N/sL8gVtbLGXXoN2dGVNm1Dtm90J/C4tmhL/ftF9Af4JV/R/hD1ZRbq+IqE7lOj496E0/LG3AbUzsolsqE2ViO7/WT4QFtVnIzJ1ppnlI21KdxB88ppCE+I/wd80Na36WSykqU7qPubg9Ke1DzN2mtWSqMmknw072yVK1Vr6aSEMO/WZh0u3yKbtyM/kP4GwBf/HJeYI/mz+45jpchhwYrdaLn4raiT3PsdYIgZQ/Vd8QS7T4jAOuY1Id77/tWNNCnmDyZTxxOcziv5dApXD+9NsrBb4gUHp2/mImIOm+LP67CCw9B/JiuhEVwh7cUJZUJcLIQ1/9DRpwnTmynU2K/ozjT2ADf00RnZEQz98nDypJtxnivMoaB5GpODt/6gkYUrY5lr8GxM+EX+s/rKHEpi+EzYAQws4Sfkc95Ji87H2I0+6Q6ul6qqkHIOnPLTKjZhCv9CWPS5JbInSJPNvGRbsIS4II80pxehWMb+RPibKKv7X8+5vOug7x63fZVOmUqsGT6ca7LIRzcUP5vjGITNMNnYn3ORYT3+mrRXKIW/G0BNocRCDyf7SWy6j6clSvS3U88l3+C/nzJQmjYuh6Gf8rWAoFqxv3YQaxEIJDKNEX7bb0G/wdlCfcy/wlLaap+Xdp9fs7+YuDrodP/ryuG+FytUqRWUoHib+I1YITS+jXtnwF+XOH9CGYHC9/MVf5Li/k/yH+dENRRNhYPZRCFOolqoBfpTsaZWqE7DeQoW6WxAH80pTKBEc2a6vlHb3+xdyRcsBTAP6q0doFw3gHZXN+/tQTkPIHKfwZVzG12I3Lq1KwCNQgUVEPahrSNue5ppViXOKXs0DSdgLVUNTGpbvoxXKb0f5UsldaB0dz/qp3lwoIO+fs/FVbq8QJpPBn1JMyRTdtvSIzaJD44dQK3dDZ5mOq8s18102d+ROYI81RuPhb0ZJelMBk9P8UqLbCKuYvjL8o0UzbCNH5KkkM1smDsaQREYc5DTjFh5Q3d5qaN3fUlUkTqa2dh1j8JdkqEvzhmn+qhuBIJMryN/Knw3XB2mlk2MfyLAqAinqVHFqMHdPheyuphRiolc+OmYlsRXGFi1c9m0e/twerNk8J5Aj+yo8XF50O0UrgI0fKCU7DH+Q1rlTfnpg//Rpf2ApfWBNcipQyF4qVUKJwvUIvzgOuIN6YtD3Cfxip9/p5c0dL794ko6G4XZ/8OiP56Kz8iTI/1bdQRPag+vbU8c97cewJCl9S4rcUNxAVrYa3EYA/wfnDba8U1YFH49jEhYo/kU6phxRNVv4KPBqliIqLIjK1GJyRv4YiJJiERxh/HfmO6U9my9D9YGLnw+I1WzvI7uDwe68DVPJ3wQ+G73Bm/vgDoExUcBLK0ae6cFb+oFAia6J9zQU2yjfuRg7JHlbZCw3IX+z4twFM3pZCd/pG0O+9z1HJX6yiycwfVAip7PSrSF5Kxjn5E5qlEve7AIBvRWGhO0WIV7y4rI0Ltynx9r6YMpY5bkbB1zjylrm0LQ6JUPMnFE3QxMjMH68QUimqx2j6Tcap688C/IFmKSvSuvGXAfLnTqZTVXSFpntqnJfXWty+FloZCgE4FLvFoT+bZjGI1PyJiVcCMpK1/lNUNCsEBYRbydDJ6z8D/Em1uwnbqCNT5ZYW6TKAot3K2T4VCLu4b/ZObYnQhZKr3cLQEgO9ubnjxz0NVxna6W18YvgrFHXV8ey3D0y3StjXWnFqq2vlL09dfx3kT1jGSuM3iAY4HFRaX1gOV0FgXzPNtyhl3iJ0jDWzkxq28g94Dyey6H95sjiaWIpMMeZ2qRXNKnOhMgiwXgwGcVai1kttxJ96/0OQPzGxeuozKISVPi4uBJVFvkfsGuoqBO7N5L3pezuT9NsiO22V29pJ8IVtrYBkR2oj3jj+1Iom6/4jaQUt6vW2EMFHsX0+TgBOvf8oxB9olkD+6P669dl5Dj5pF19gvdCNEtL+aebpdXem2LVHIbO4tbhT4TqIZZi8jalWiyT4SSvwRfYhtY9rLH9C0UhFyVn3/xWkIAAOgz+0V51O57JVFMnvYPZbQiJ/YlbljPv/IvyBZjGEDD+/61XDqNRLxu3X/VPLx/rBEOEX5kaJEgpmc3QtupqBB+BOHdMSe74OwDVVm1SaYlx0vJeF6U9p/21aMXYsf2pFoydvf5U14peUzdbLBg5Cyvt6K3EaMJG/4/ffRviLbj8SYk3qash+3cAW5BIVzMj+9+Cudb4LGsE9n4NRSvuFBCS1H85C/btx5vREv7J/Onq7VIom4/53cuZw65UAjMht5Ujm7+j971H+QImIr54Tk4Ul5uz3Yf8tdRRCXSOgrznk84i9Q/bqziT5o9hYVqxs/cr+6ejtUimajP0n6KmL8WRXYulL4e/o/hNR/gpt/gyU+HwT+auDBQfyR9WcBxlBukq5vMSwxn8wceyNhz8QqpEkTH38WrLYUPWO/6XUXk4J/BWuQdGIhT1b/xeG+5JaBPX3BPs1mb+j+78o+INVAMywBP7kuQ75/mkqRz0nKCXwfzPqHniHoH+BeyHUYvnr1iiB6bG1JP6EopHCt/cJBEbc+k6xEmVQ2dZJIIW/zP2XEvjrQHSBacabfwxFSy7MXv1KXtOHmoOQhbgaBCufBqtB/pRvcwz5F1qthsSRl9Bi2MX5DCv2hQQCDdaLrKoKCLbrZQrZMMnS/0ygQ3qKia4jvh2jbqsG+If+SSM2Qpmt/9nzO2uyptLU1xV2Ye/swM2qdVWpV+QWI/4JK6XrsJO42E7EIsb8eag8Gx/xHkZ3IuJwrmY54Zoob7LtZ0kmrVgvQKU3276jaAWCKJ31bbj/YPUq0v6Po9FpX+slitunZlrkrXDRon8yYWBnHek/WI5MoM0uTCXrjRa7sEAG5OZi1X56KLJOjLf37U5ann5i466dc36fuw6xP4lcTTa2ageuq+oKOql9e8fyY/t/NjB+cgLnQXe7fJWMShxlocsc3gqt6HC+sGtm1CXHrnv8YpjjO9CjrpvbI8LIXhFhUod9/zb16ChSpx0pneiaiEc+c3wHcP/5uSwwe8txPiRBnEqeYI+kEiiTdtiLp+i9znghW3eqoV3+LsezokfiLI6oPRvQfi/itg8kS2Ys3ltMGmMlvluMvv9BsSMpx+nAa5e4fcJfqCPeZ8X2D5HYJzVSacuX7tyuBQyVXtDIdFlIIH//yhkhNuexA7ybtXghKuOBWKKmxF84er2wLUcWx/z9R9+AEbx/jC1avJu1JFo939N3Pgg1A0l/hnGQoqUYsEsmf//Y+QD88TgZTyzRN6IyDEdc4rQaQjGNrP210ZJjZPn7/74BkB7g8WhW7oDikj2j6TZmE0p3EyyU4ao5Uwgnxy9iyV5SC8vdSLwXpzvbDTL17+E5w+BRFoL7tb28OTLiDdehyeXy3mAz32MqeriFS5b3bhxsdfpvjH35lKYvOX4Xw1mMSqTbWtJ7CPouR4yP8O82psNojvODpeRRQt6O9rvu2Sh/R/gfgd5oJIgI8rfdjcNLofvh0LcCentPPr6Y5DGzH8HU9ldC0caOFtJTb2FsaXyrgzsb09VyW5NedgvoaVa+6P0I9nQ/A5gyJH7p0B4Sphz3RLQWYmKpGo0w9zFPQXw7eCgNDnjwwjFa7kt8fNKnnDDpHsyAl09HsmhbWtfCHKcGr5SONFAq8BaClDX8kfkLCqtlf0TdRY5TgpeAWqovp3hPNTVLJralaljAwLotIXXD+hxnBEvuqfN1L0uedw/niYJgT0GWF3fmOC1cDSFkpfX7TMOLb/XE77jOcU5sx2/iLdJv2WKfBO52uYfy3uluetR7H3KcAUu84GWVIhdv5U1ujpXjW0HTSHZGSmYoNzn/LNBtX1ZGDbojNsvHeaeU4wjQgAsPSy9mW4VVM4SjA9FsMMefAVxGyN/JMrFR7SNC4MhGqEaPEvfePuZVLTnOjclux4tzcWCGvwZihg4e/YSk5NLiYG7ypMMfClppTZkiLZLpYTsPs/wlwIEZFlDB5TKs/BMvese94C/Hz8B9c/hrNbH88QD3AI7m+Guw1+a5zP0s/g/rAdGglMsXcwAAAABJRU5ErkJggg==;" vertex="1" parent="1">
          <mxGeometry x="166.5" y="650" width="207" height="52.33" as="geometry" />
        </mxCell>
        <mxCell id="TAAMW9c03Df91oIx33Ai-16" value="" style="shape=image;verticalLabelPosition=bottom;labelBackgroundColor=default;verticalAlign=top;aspect=fixed;imageAspect=0;image=data:image/png,iVBORw0KGgoAAAANSUhEUgAAAgwAAABgCAMAAABG8do1AAAAflBMVEX///8AAAClpaVqamo7Ozvn5+fExMT09PSzs7MxMTEjIyO3t7dRUVFaWlqampppaWnU1NQcHBzh4eHw8PCGhoY3NzfOzs6NjY3s7Oyfn5+srKzc3NzAwMBOTk6AgIBvb29ERER3d3cVFRUsLCyLi4sYGBgNDQ1eXl4iIiJAQEAddP3UAAAP1klEQVR4nO2d62KqOhCFkRbxVkVRvF/QVtv3f8FTFCHJrAmJUOnuYf1UEkLyMZkkk+A4Ly0jHXuv29F8E/gO0itI0YZX/gH5Xfqww7oLVY1GZjDctZ1GIJMGhroLVY0MLYOgnhuqmTQw1F2oamQPQ6t16CuZNDDUXahqZNlNpNrLxqGBoe5CVaNHLMO3ZhINDQx1F6oaPQhDa+YJmTQw1F2oavRYN5HQIIwyGxjqLlQ1ehiG1j7PpIGh7kJVo0e7iW9tskwaGOouVDV63DK0TlkmDQx1F6oalbAMrdU9kwaGugtVjUpYhtbo7kM2MNRdqGpUxjK0JmkmDQx1F6oalbEMrfu0dAND3YWqRqVguKSZNDDUXahqBLuJj7GgIw/Da5pJA0PdhapGEIa1fE3oXjAMvdSDbGCou1DVCMJAA1hcCMM4XaBoYKi7UNXIEAZnia47B7c/GxjqLlQ1MoXB/6gQBt/3J0G0Xvg4pFIr3w8n0YNp80yC/mq52kzY/8Oo77r9CN2jAAY/WA2n8W7uRiQgjC+Ov9503GVnE5R7Kh8m9zbXAi3bi6IMTGFw5uC6Y+pcWMAQblajWX7VeDDvB6YP623cyylPexos+2xz8go3u16Wx2XlkQui5bYlXKAWTweD574Jvx5cmjnRoj8/iFkd5huDVKr8tnsZJ8lfFX8vGAo19plFsIYLVQm6xjD0wXW2PoO/3oNLx5eVwfvgt/egFU6XNkq72Q4UbdPyLIYzOYfuTsrAdw9n+YKPkVy/PAze6KT8ftoVmIcgBrl1R+ihFi/qQ23n9yIt82qV6j16G8tZn1+ur0846s5kdWPHAoYNuO6+VGUGg98/gOuuOs4LXvHQZdN2l9T8dehltwmyNshgvMoTRvA2Q7FtWBiQ7Wydde5E/w0lSfS6JBd7M3LVy+2ftlgiod7DHcq68/3PYkt+HjnMpJOpZdim/5nA4Pfpwwj6mGusg78EDZDrtFTTcjBMcQb3N4wZNH3bbuEGDAyTAZN2xFn9CTNgv2mrVqBHa/kWUjKUfsuTrVGzfGsKYUjAKuUzTNP/DGBYc3WV6YDuehV+XUV9KWkZGGIuffog8E26apubewzDRO0hcnUxDSvdAyV6l7sYDgaZhbzegzG5PtXUCUvC0APXmS9UgdYhOlPTeBUc1apaFt2ur2EhtRvQzqe6ZHkjGJaeznSpTt01l70mQapPKR0Dgwrwvd6DM7k809wvBwPieGC8hD0EFwBN6X21TSgqLoQBdXR3nRa4I8zl6mCI9XZvRrrAsNBQJvrcCEkwDMSVS+tdS2erQ50VCxigTcv20hTBEOsKJmpEas03Xkl7EdICGDaePrWj/z+bU4EwFEl9Lk+z4CNJqEUIA+0L0hT01ZdEzQYLg2LW/BW86iu7oAAGQ7uQKHYUxeZpd1oY2gV2OSii7h4A/AgMuV25Kix0gu76zGc5IAzUwNzq3ahrlcTCYKRx7hfpYSj0lEQpNLzbpM2HiBSGszp9YK9FCRhakhOpHVfJOmYJAQxxRBNc6x38XqRyMAivvhaGtV0riN0knBbgdcwsmom/aq1hGRhEd8jqtc3eDgDDFnge13rXDlqxEhgeDW45iX6FDgYfDUM06gnTT8Zda6rjj8JwWJSAoZXbezR9p9Hd3gEYkNrW79BNJWDYSrN+Ohh04zW2VKli27T3AeaPwJC254Mw5HuOmPRoJTDRKbSG4RFz/3A3MZBsuRaGNX7G/XDlzhmPN7M5Af4/HnbcKXbBPic/CcOyCIbTaPrCNdnHvfNH7vR4moAWRnM0dTW0hUE3xcDqYRjU+QANDDFK/3Z7x8I2LPXlPg6DPd9tpcUJVzDt+0/CMNDD8LrxvkvuccOS1NyjCYBx1jVOQOJxaAkDM3p7HW6i5YUDpUQ3sZMWlngYQpg4S+jBFzw1DdAlzpYRnDWcbi2E4cTPG9/Um7GeihaG/A3Bw6eUcbD8MRP7XDAlPrSEAf7eTa25z/TbZRzInjhy5mFAkL4JMzATlPeIrRZhVphxxFZaGLqut1h4/S/m72/t1t8XrJla0cEgzofj+r41OWBRmqz16QhhawTDeTw+XzNbo397+dgWu5flhpaXfB2FhQHMgStTWnCd8FYr4I+x5LeiSYiRDoasyNwr8HFvF+zxr3kYRmLBHLg0vWFaYislBVec24UwDOadwJsE7c5wAl/AnljpsM7LWIZvHTIaWBiQpX+THn2B0na49phLaVEfdJzwMGRrKRjSljgPD/vdNguDvKaEe7jrjAEwGuoJWbTrHOphOMcTcbobTbXK63io0ctZhlbrq3ChClWpsvCBTGrMPNNZCUFDj73hYRAaDC9KCayBUJK02SAM6jQ6Woc6fP8O1o5PalwPrbRrRbMwKOv3HuoE5TugYVpJy2Cwowr8MVNW91EPl0zv+MC3nCnVhozHnoVBtOSoD2p9iK838lhcFgY12Ar5kMnKKPCRLkpSdE2ogeFLWQRDA8u5cguQVWkY7usvLAzgd7IUBa45r3Fshpp2DbyxLgtDR0yKhq1S542yWHIwqA0CS3+MoMtAKmRBp2Y6PAwkdAZ1UWpQL2C1PAzpMgoHAzJHJIIFOVsRfutJXCVIe/aZlvyUagR1YFK4IhrnDDkYaKAjGjP3ob3ZeRNZAViR4mEgdQIa+lUFBjQM6zNs36eSLuyk21QLAzKWqrsExwRL7PKSqFlU+oCBQX570RVy3wsuYGGQjM5VCPEVM8wo1hsLw5bcGdTnSL1mQp+BhUHtYpKQBrzseps742BAziEJAUO+XAynLs8kmBCB1GeaelB4Vzl7cAEHw5lGAzEux2PrGq3XBQcDvTOw9Tv1Gt8i0onCwFqplQ6GGPxOYplQH7eFoTozEhOPzIfLwCAPaSuF4ZMG+qNuaI4jSQ00DpgG2NJ9GcD4EBgAMVYwOD60DVvfEgaSL4LhBPM8kCdHTTp8PgwnunMD9ZCx43+Cn020YWB4p+0ERrU0tjQm19jBwEy5h2VhQF7mGeZJXwM0s1oHDPT9RP7vi+Oz4esF6jMwgH1rwKRSGOgMDTuawDCEsKNol4YBLXLD0LAB6WIQSPPnw9ClG4Dw3GtYNQygmUy6CZ+OrC0tA15SnpeGAVUQzNMMhvfnwwAsA7JZl8e7CdccBvB6k6kMEKlvaRnwhqOX0jCgFXZo7ajPgN6/GrqJHnUgUQlGDzuQSYsgGE7kvrDSt6pPs6ZQ2loGuDJ70cCA6CG5ogY9Q2v3Svw01DPXAMOYbplC45z94zC8YxjoLAMcx5Dy2Uw62ViGgQYGtM+VNCgzmgCLUCcyz4B82uXzYWgpYYBMXe0enmdIXEAEw4DcF78gavnA/EwlPsNWAwOKCSezJKjwb3igTmBAtmpVAwwrRxWqqyEc9330inW0gKE4bMBxQCyXJQwLiLXOMqB2JjO3qEF3uLWINUZr2O0aYKBjN7Q2sYId+m7hFSs0hwH4A6o9Rg9vCQM+vEDnM6Dti2RNB71DHeyOk3UNtFDl1QBDz2TVMnkqZrnQRKYwwD290ngCBFXYwsDsjEpuU/USdrLYhJan92qRwDVXB/vZMJDODzkzyQoGWAtFDYpkCoMTg3tLmz3hkSVWMLQZ3yfx11gYwJurBregpeLrkisAvKuWiXmo58Ogdsro3UsmrUFXe2QPKZFlDAMO88q7Zxyuaw6Dv2EPNUkehYUBvSBKoAVyFK8WANzxrDgNCHE27O1HYVDWLWEM5CH5J6a/yzu0WRnDAKO4st0NERPBwsLw5kraf2i26OjWJmDXKYd5LRhPi59q1j/1bW/402GQv+2IQvbSDhKU7OjI8l5VzbjgFtzFcNtuX+MhOY8uU/lIp3SKmF9CQcEcUp1Dm3b7CxB4khw11qjUAIPkC8Xwiqv7iyK6lYEpsHdzKxgsd/beVDY6OtHVxvEwoH5CNA3wuJQR39ai6w035/XrgqG1vyf3mTpdcKCcpTkh1JSeFQwgdKVYFViGY6CHAfZfubHH+xfSddkAbXPL/aAQNopTGwyt2fu1MvrMnoz0KB/U+40FjyMAhvza5uYwPGQaKrAMt7dcs9ION6Ok56b6+ICRbOMtPHgnPfPR70A/ZlkjDAW6dwbwqS7BzW6s4bCvbwnDI6GWFViGqAgGfD7iYRj5wZBxdLKADbgRszVYJmnx494D434hDOO7h8kcNHCI4+n0Ape4b+ESNjDwZ0CyKg9DOguki8HhDl1lJTSa1YlOie6dyC+EIZ+xNjgBUtZt7GkDg905WleVhuFscKo8HmbxErc3YLeA1+Ge8BfCkE+RgDh1rdIYfysYnNi2fKVhuG+I0UbnTeyie6T1B7tTy/LNRb8PBnGGxPLIpdS7tINBfwIt6GTLOpB7sxNirXxbZf3P6mC03Cf/dTAUnyXA6v7G2cGgPU11A6q1pGXI5wsK4nYtWpQs4THnwCMJG/eeHRBbePivst5q8VS6o//0i1zs0WptNMbbl4JhZHBYR1GxVNGQV58/6V2RuDb+ZBjeirozsthj/FR5c1vD4LTxhrwADvjZj4+YSFxOLozoNxxSxOibE4ZvkbSh98kwbJ1YWzay19HYWgpHHtnD4PguKev5+l2PamHoSXaveHtH2yQSlPloy8rgaNCevGr4dBjARoRckPF+0UFj15RCggdgSOb1xK96HQ/zmzkHTkuyt+IxGIZyvRns9fEKT7A90ajSVFHBEen0ay9Ph0F3Njjd6XjVunCa8EOqw4dg+NZk48bbRHEn+xpfjJ/N3mf42C7V/QtGG7/a2iadaT8NudJOVgzIvZ4Pg+Mz3dmRxOrlpdSOSz7mhV+iMY6SUgVO+kleRcsjp8d78mk/B5+SDj5YxuPwWfTRv3DFHm812FArDD+VIl2BcDGEgc6bHG5Zon2CMfgKTSZvxc/BvKv1jE6ZQvsmTATul4x9N66pVv2Ia7HdC9EIfq3SmwIeujHbQYiKdmgXyTv87N0ElH9TeIUMFbjg9kwd8vv95VdXTLrTwu+KRtMBdYlmow4FPKS1PAKbsL8fLSBSckNmsaigPyE/6ovftuxd3Mj4Q6VetBLdodc9/iRtjfIj4QuT+7bRk/nBSlyf+tqv2JfOTGDYqgxtweykGsT5VIWTdeFbw2mxnph/WrgGhev12ro9fe+RVEhcdEwm1InSg4ga/QmBtv4SjBRaGvnUuTaN/mHBo7HjKLHE/iSCQwYwLdboT4gJZji87EdvzOexmM/YN/rnpf+mJeSk7iI3+jFZR4gZje0b/ZNi9lSxIvtfG/0h6b/krGr8qwfqjcrK5puB4HzbRn9KFiHYzXzTX5d5hBg9gqjRn5NrtJHm1PQR/wsFhTFBrdZLJashjf4BuQVfP6RRQY3+rhYrjXUY/bYAgEY/Lb+z35Lwmc/BrhlD/D/lr6P28OXQver1susEa2QT/gOaLgl1RaKNkAAAAABJRU5ErkJggg==;" vertex="1" parent="1">
          <mxGeometry x="430" y="656.56" width="214" height="39.21" as="geometry" />
        </mxCell>
        <mxCell id="TAAMW9c03Df91oIx33Ai-21" style="rounded=0;orthogonalLoop=1;jettySize=auto;html=1;exitX=0.5;exitY=0;exitDx=0;exitDy=0;" edge="1" parent="1" source="TAAMW9c03Df91oIx33Ai-17" target="TAAMW9c03Df91oIx33Ai-16">
          <mxGeometry relative="1" as="geometry" />
        </mxCell>
        <mxCell id="TAAMW9c03Df91oIx33Ai-23" style="edgeStyle=orthogonalEdgeStyle;rounded=0;orthogonalLoop=1;jettySize=auto;html=1;exitX=0.5;exitY=1;exitDx=0;exitDy=0;entryX=0.5;entryY=0;entryDx=0;entryDy=0;" edge="1" parent="1" source="TAAMW9c03Df91oIx33Ai-17" target="TAAMW9c03Df91oIx33Ai-18">
          <mxGeometry relative="1" as="geometry" />
        </mxCell>
        <mxCell id="TAAMW9c03Df91oIx33Ai-17" value="&lt;b&gt;&lt;font style=&quot;font-size: 20px;&quot;&gt;Web Scrapper&lt;/font&gt;&lt;/b&gt;" style="rounded=1;whiteSpace=wrap;html=1;" vertex="1" parent="1">
          <mxGeometry x="324" y="790" width="180" height="60" as="geometry" />
        </mxCell>
        <mxCell id="TAAMW9c03Df91oIx33Ai-24" style="edgeStyle=orthogonalEdgeStyle;rounded=0;orthogonalLoop=1;jettySize=auto;html=1;exitX=0;exitY=0.5;exitDx=0;exitDy=0;entryX=1;entryY=0.5;entryDx=0;entryDy=0;" edge="1" parent="1" source="TAAMW9c03Df91oIx33Ai-18" target="TAAMW9c03Df91oIx33Ai-19">
          <mxGeometry relative="1" as="geometry" />
        </mxCell>
        <mxCell id="TAAMW9c03Df91oIx33Ai-18" value="" style="shape=datastore;whiteSpace=wrap;html=1;" vertex="1" parent="1">
          <mxGeometry x="384" y="960" width="60" height="60" as="geometry" />
        </mxCell>
        <mxCell id="TAAMW9c03Df91oIx33Ai-19" value="&lt;span style=&quot;font-size: 20px;&quot;&gt;&lt;b&gt;Deepseek like chatbot&lt;/b&gt;&lt;/span&gt;" style="rounded=1;whiteSpace=wrap;html=1;" vertex="1" parent="1">
          <mxGeometry x="90" y="960" width="180" height="60" as="geometry" />
        </mxCell>
        <mxCell id="TAAMW9c03Df91oIx33Ai-20" style="rounded=0;orthogonalLoop=1;jettySize=auto;html=1;exitX=0.5;exitY=0;exitDx=0;exitDy=0;entryX=0.597;entryY=0.879;entryDx=0;entryDy=0;entryPerimeter=0;" edge="1" parent="1" source="TAAMW9c03Df91oIx33Ai-17" target="TAAMW9c03Df91oIx33Ai-15">
          <mxGeometry relative="1" as="geometry" />
        </mxCell>
        <mxCell id="TAAMW9c03Df91oIx33Ai-25" value="" style="shape=image;verticalLabelPosition=bottom;labelBackgroundColor=default;verticalAlign=top;aspect=fixed;imageAspect=0;image=data:image/png,iVBORw0KGgoAAAANSUhEUgAAAgAAAAIACAYAAAD0eNT6AAAABHNCSVQICAgIfAhkiAAAAAlwSFlzAAAOxAAADsQBlSsOGwAAABl0RVh0U29mdHdhcmUAd3d3Lmlua3NjYXBlLm9yZ5vuPBoAACAASURBVHic7d15uF1Vffj/901CBkKABBllBkFBrQUZVagMKihqbZ0VWmprtV+VqtXaVq2KrUOts7YOPxWp8wRixQEogwMIIijzFECEMIaEAJcM9/fHSh5JvPeec+/+rL328H49z+cpT03W/uy1Ts7+nL3XXmuEMmYAzwWeCjwO2AVYBMwBZgIja0OSpLYbWxurgVHgbuAG4FLgTOBUYE3dSdV5kd0XeAPwFGA7UhEgSVLfrQFuAc4BPgBcXMdBcxcAmwNvA14CbJ35WJIkdcEy0l2BNwJLch0kVwGwB/Ap4JCMx5AkqcvGSI8Jjl37f0NFX5wfBXwF2Ce4XUmS+moMuAh4EXBdVKNRz+FnAP8NXIkXf0mSIo0ATwSuAb4FzIpqtKqjSb/6FwS0JUmSJrcMeD7wwyqNVL0D8EngNLz4S5JUl02B04FPVGlkuncANgfOJ032kyRJZVwJHEC6KzAl0ykAtgYuJy3cI0mSyloKPB64eSp/aaqPAB5PWr3Ii78kSc2wOXA1acG9oU3lDsATgAuAjaZyAEmSVIuVpDfxfjPMHx62AHgk6fWDedNMSpIk5fcg8GjgxkF/cJgCYBFwPbBZxaQkSVJ+S0mb7C2d7A8NMwfgZ3jxlySpLTYHfjLoDw0qAD6Cr/pJktQ2e5HW6pnQZI8AngH874A/I0mSmmkMeDrwo/H+x4ku7jNIzw7qWOFvDendxV8CFwK/Au4Cbq/h2JIk5bYVsAVphv6+a//v9sTtxzOZe0lz+dYM+xc+T6occsUa4DLglRVPTJKkNpoB/C1pYb2c19sx4NPDJvUoYHXGRM5ZewxJkpTm2v2EfNfd1aS3Aga6KFMCtwEHT7VXJEnqiUNIj79zXIN/Pujge2Q68Leo51mHJEltNgM4hfjr8Bpgt8kOfF6Gg/5TlZ6QJKmH3kC6aEdej/9vooNtFXywNcDxlbtAkqR+egXx1+VHjHegTwYeZAx4U1AHSJLUV28h9tr8sfEOcmfgAb4VduqSJPXbd4m7Pt+xYeP7BjZ+G074kyQpygzShTvqOv2Ehzf+5cCGDwk/dUmS+u1g4q7TJz284ZuDGj0nw0lLkqS0O2/EtfrGdQ3OIG7lP3cOlCQpj0cR81bAatY+qn9uQGNjpLX9JUlSPlcQc80+ZgZwRFBSHwpqR5IkjW/c1/im4XBIKwOF3U6QJEnZRD22P3MGQ+4QNMBNTGGvYUmSNC1rgFsC2tllFrBFQEMXB7QxnicDzyOtU7AVMDvTcabqbtIsytOBrwP31nTc3YHnA4cCjwQ2rum4g9wP/BY4m9Qf19V03M2BPweeAewELKrpuIM8RNrR60LSolg/KZuOpI75JbBDxTa2hPRlVfVWQvSGP3sCZwbkVUfcBbwGGAnug4dbAPw3sLIB5zsoVpKWld4kS08kI8BrSX1f+nyHiTPwDRlJcd5O9e+lUYh5lvDMwBP7E+CegJzqji8CMwP7YZ3tgEsbcH5TjUuAbTP0x0zg5Aac31TjbtKdG0mq6jlU/05aTUAjY6Rb9BH2pJ0X/3Xx/qB+WGcecEEDzmu68XNgbnCf/GcDzmu6cTfpPV5JquIAqn8frSGgkTFgt6CTOiMon1KxBjgwqC8A/qUB51Q1/jGwP/Ynfn/suuOswP6Q1E+7EfN9FNJIxJsETw7KpXScEtAXkH45L23A+VSNu4E5QX0SuSNWyTg4qD8k9dMuBHwXNend/eeVTiDI04iZAHc4sFlAO6UtBA4LaGcBcGRAO03Qlc+6pBZrUgGwT+kEgswF9gpopyv9ATHnsjdxdxJK69LYSmqpJhUAW5dOIFDE7Pcu9cc2AW10qT9yvB0hSVPSpAKgKYv8RIg4l40C2miKiP7w8yFJgZpUAEiSpJpYAEiS1EMWAJIk9ZAFgCRJPWQBIElSD1kASJLUQxYAkiT10KzSCQR7OXBFxTY+Qdp0pgs+CnyhYhvHAa8JyKUJLgBeXbGNx5C2fpakVutaAXAFcFHFNpZFJNIQt1C9P46ISKQhllG9PySpE3wEIElSD1kASJLUQxYAkiT1kAWAJEk9ZAEgSVIPWQBIktRDFgCSJPWQBYAkST1kASBJUg9ZAEiS1EMWAJIk9ZAFgCRJPWQBIElSD1kASJLUQxYAkiT10KzSCQT7BGnP9yr2iUikIV4BHFGxjZ0D8miKfYAfVWxj04hEJKm0rhUA+5dOoGF2XxtKFlG9IJKkTvARgCRJPWQBIElSD1kASJLUQxYAkiT1kAWAJEk9ZAEgSVIPWQDkMVY6gQ6yTyUpUJMKgLtLJxDoroA27I/13RPQRlNE9IckVdKkAmBx6QQCLQ5o48aANppicUPaaIrFpROQpCYVAD8onUCQa4AbAtr5Pt257f3DgDauA64OaKcJvl86AUlqUgHwDbpx2/u/gtq5kerr1jfB6cT94v10UDsl3Ql8q3QSkgTpV2bV2CUol9cE5VMqrgLmBPUFwBOABxtwXtONB4HHBfbHXNIdltLnVSVeFdgfkvppF2K+j0IaiSoARoAvBuVUd9wDPCaoHx7uL4E1DTi/qcYa4NgM/bEXsLQB5zed+EKG/pDUP50sAABmAu+nXRe9q8hz8V/n+cDyBpznsLEM+LMsPZHsRZoPUPo8h401wHtJn21JqqqzBcA6TwROAR4IyjFHXAm8ntjb/hPZFvgYcEeN5zfVuB34CLBNpj54uLnAG0jFV+nznigeAL4N7JupDyT1U0gBMLL2P6ralZiZ7+OZD+xNugDOznSMqbqTNLEt1zlPZibpF/AOpL5pghXATcAVwOoCx98V2BnYosCxx/MQcCtwGalvJCnSLsD1EQ1F/NLJcQdAkiT9oZA7AE16DVCSJNXEAkCSpB6yAJAkqYcsACRJ6iELAEmSesgCQJKkHrIAkCSphywAJEnqIQsASZJ6yAJAkqQesgCQJKmHLAAkSeohCwBJknrIAkCSpB6yAJAkqYdmBbXzbmB5UFuSJGliCyIaGQHGIhqSJEnt4SMASZJ6yAJAkqQesgCQJKmHLAAkSeohCwBJknrIAkCSpB6yAJAkqYcsACRJ6iELAEmSesgCQJKkHrIAkCSphywAJEnqIQsASZJ6yAJAkqQesgCQJKmHZgW18w7ggaC2JEnSxOYBb49oaCwgFkYkIkmSBlpIwLXbRwCSJPWQBYAkST1kASBJUg9ZAEiS1EMWAJIk9ZAFgCRJPWQBIElSD1kASJLUQxYAkiT1kAWAJEk9ZAEgSVIPWQBIktRDFgCSJPWQBYAkST1kASBJUg9ZAEiS1EMWAJIk9ZAFgCRJPWQBIElSD1kASJLUQxYAkiT1kAWAJEk9ZAEgSVIPWQBIktRDs0on0FJzgf2AvYA9gD2BbYBNgPlr4x5gxdq4EbgSuAq4BLi8/pS11sbA/sBjSOO2J7AlsIA0bvOApcB9pLG7gd+P3a+Aq+tPWVOwJ/CEtf/30cDOpHHdBNgceIA0rsuB20njeeXauAC4v/aMtc7ewONJ47YnsBO//z5dyO+/T+8DbiP9m7yK9H36C2C0/pTbbywgFtaedf32BP4ZOIP0JVKlv24FvgT8BbBZjefQV48D3g6cTfqSqDJ2NwMnAS8lfTGprE2Al5HG5LdUG9sHgf8D3ka6GCmvzYHjgS+TLuhVxu5+4MfAP5F+lHXdQmKu3RYAk9gU+Dvg58T000Qf3C8DzwBG6jmtXlgE/D1wMfnGbjnwBeCpNZ2Tfu8w0kX/PvKN70XACXT3+62EEeAo4KtU/yE1WfwMeDXpzl4XWQBktAXwr8Bd5PuAjhe/Bo4FZmY/w+7aijR2S6l37C4mjZ3zavIZAY4hb0E+XiwHPgxsl/8UO2sGaewupN6xuxd4D+kHQZdYAGQwm3QLaTn1fkg3jMtJv3A0vHnAieT9VTFM/BI4KPO59tGTSXMwSo7t/cA7SHOANLwjSXMsSo7dMuBNwEaZz7UuFgDBDgOuoOyHdMP4ErBtzpPuiGcB11N+vNbFGuAzpDtJqmZL4HOkPi09ruviWtJtbE1uO9Kt/tLj9fC4DDg050nXxAIgyCzSLePVlP9wjhd3AEfnOvmWm0u6NVt6jCaKJaRfP5qeQ4FbKD+OE8VJpDtP+kPPAu6k/BiNF2tI3xttvhtgARBgR+CnlP9ADvOBfQ++tvlwe1D+lvAwsZL09ogTPIc3g/TWxirKj9+guAjYLU83tNIs4P00647NRHEesH2ebsjOAqCivUmvdJX+EE4lTsVfHJDWYLiD8uMxlTiZdv/iqMts0lsxpcdrKnEXzvsAmAN8k/LjMZX4HfBHOTojMwuACg6gubenBsXP6Pez5cNJE3pKj8N04sd097WkCPOB71N+nKYT99HveQGbA+dSfhymE3eTJpm2iQXANB1MWk2q9IeuSvyCfl5Ink71hXxKx1k4i3w8c0mL8JQenyoxSj/nfCyg/tf7ouM+4MDojsnIAmAa9qb+d/tzxRmkW259sT/lX8+MilNwPsfDzQS+QflxiYgV9OtxwGzgB5Tv94i4h7QUcRtYAEzRdlRfKrRpcXJoDzXXbrT3kc1E8dHQHmq3/6L8eETG7aQ9CLpuBPgK5fs7Mm4Cto7spEwsAKZgBun5a+kPV47428B+aqI5tP/24kTx0sB+aqsXUX4ccsQFpF/HXfZayvdzjjiL5q/GagEwBe+i/IcqVzwI7BPXVY3zMcr3ca5YTtr5rK8eRXsndA4T/xnXVY2zL+m7p3Qf54q3xXVVFhYAQzqA5i7yExW/oZuvmD2N8n2bO35GP/cPmEH6lVy6/3PGGrq5pPdsmrdqanSsIhU5TWUBMIQZwPmU/zDVEW8K6rOmmE359cPrir8O6rM2eTXl+72OuIruTdb9Z8r3ax3xC5r7KCCkABhZ+x9VLSLNoGya/0f+yVaXA2eSdoO7mrT71ArSAG0JPIY0K/ipwCMy5rFi7bFuzniMOr0VeGfmY1xCet53CWnslpE2E9oc2IbUnweTxm7zjHncRXoUcGfGYzTJVqTiLucPh3tIY/tT0q/VJaQdIueRtvneA3gCaWxzz/z+J+DfMx+jLjuT1tPfOOMx7iCN3c9IY3cnaTznA5sBe5LG7nDSv9GcXkWapNo0C0nrF1QWUSk18Q7AfNJs3ByV4QrSWtKPnUI+G5G2w/xhppzGgE9PIZ8m24J8r/zdC7yXdAEY1hzgz4BzMuU0BrxvCvm03X+Srx//D3geU5uAtydp+dpc8xHupZnfkdPxOfKN3emkPQSm8ors44CPkG9tl9to5uqrPgIY4ATiPwzrdnnbqmJuTyLdMYjObxTYoWJuTfAO4vtmFemLoupn9QjyPP9cTj9WeNyStOhKdP9dRvo1X8Ui0qTTHHsQNH1S2TB2Bh4ivm8uovoiPFuTb9fI11TMLQcLgEnMIf6d/+id3WYB/0b8BMW2v1++KenWVmSf3EQquqLMIRUT0V80uR95NMGJxPbZGuBDxL5y9xTivz/uov2rd36c2D5ZTXpDK/I5+zOIv/N7E817pdMCYBIvIPYDcC35dvx6Lum5c1Suy4FNMuVah1cSO3a/Ji0ClcOxpN3+onJdQrdXCJxFuqUa1V+rgFdkynUb4JeBuY5lzLUO84l9LDdK+p7OYSfiJxD/WaZcp8sCYBLfJW7gr6L6Lf9BnknsrbU2LzBzHnH9cDFp0lBOLyb2Ls7RmfMt6VnE9dNq0iJCOW1O7JbTZ2fON6eXE9cPD5H/c74VaWJvVM7fyZzvVFkATGAr4i6mdwG71JT33wTlPEaaTNNGuxH3DO8W0q+4Orw5KOcx0la4XfU14vrpjTXlvC1py9iInNdQ3/dJtB8RN3Z/VVPOuxL3OHGUvG9xTZUFwASOJ+6D+uyac/9SUN4rSc/S2+YNxJz/auDQGvMeAb4XlPtyurmo02ziJv99l9TndXkqcXd5Tqgx7yibEzcx8qSac39uUN5jwHE15z4ZC4AJnEzMOX217sRJs8DvmGa+G8Yza849QtRFtMR7uzsQd4E7uObc63AIMX2zgvSMt26fmWa+G8YpdSce4DnEnPtdlPkV/c1p5rthfL7mvCdjATCBW6h+Pispd6vuH4bMcVB8oO7EK5pFzHvYK8g/Z2Mi/zZkjoPiX+pOvAZvJ6Zv3lV34mttA9w/ZI6TxVLaN9HzQ8SM3evrTnyt3YiZrNukRdYsAMaxKzHnU3Kb3QWkVa+qnsP5dSde0b7EjF3J1yC3JGaDlLbO4ZhMxAJYD1D2OWzUa3BPqDvxin5B9XO+m/QmQSlRj1d3rjnviYQUAF3bhCRqZ7XPBrUzHcuBrwe007Zd5rowdneQnk9X1baxG0bEkq2nUHa55M8FtdOm8R0hJt+vku7OlRI1dnsGtdMIXSsAIgbnLsq/rvPNgDY2Jd/77zlEjN31pNe2SooYux3Iu9Z63TYBHhnQTkTfVnEhsDignTYVANsRs65I6bE7k5j9ato0dgN1rQCYyvruEzmb9LpOSeeRnllVFdEfdYnI9ayANqqKyGEG8KiAdpriUVSftT9GWue/tIjx7du/y4dImzKVtJqYH3ZtGruBulYARDwfvCSgjapWANcFtNOmteW7MnZL1kZVbRq7QSLO5VbSI5bSLg1oo01jG/Hv8hrSBMrS+jZ2A3WtAIi4VXV9QBsRrg1oo01rjzt262vT2A0SMbYRBXGEiDzatEaHY7e+No3dQF0rACK+NJcGtBEhIo82XUQcu/W1aewGiTiXewPaiNC3sXXs1temsRuoawVAxPu1qwLaiBAxB6BNK8o5dutr09gN0qWxfSigjTaNrWO3vjaN3UBdKwDuC2ijKTvpRVSaywPaqItjt742jd0gXRrbiFvAbRpbx259bRq7gSwA/lDE60oRdghoo00fVsdufW0au0G6NLbbB7SxLKCNujh262vT2A3UtQIg4llTxIIlVY0Q8158mz6sXRm7OcQsI92msRsk4lx2I20oVFrEe+BtGtuIXB9NvZs3TaRvYzdQ1wqAxQFtPDmgjaoeR9qBq6qmzIofxuKANpowdgcS85ywTWM3yA0BbcwG9gtop6qnBLQR0R91ich1Ec0ozvs2dgN1rQC4MqCNvSiz29jDHRXQxiradRGJGLsDKP+ebsTYLSVmLYGm+B0xv5yODmijii2JKUKuCmijLteSFtGpqvTY7UrMHYA2jd1AXSsAIgZnBHh5QDtVvCygjeuJmfVal4ix2wh4UUA70zUDeElAO536klkr4pxeStnvrBcRMyu+TeM7Ssyv3i58p0K7xm4oETskNWU3wLmkHcOqns8tpGe5JTxtyBwHxZfrTryiRaRfGlXP+ypgZs25r/PCIXMcFJ+oO/Ea/BcxffPndSe+1kzSinZV819Fc74vh/VVYsbu8LoTX2seaSXJqvmvoNx1YUNuBzyBM4g5p9fVnTjp7sPPppnvhvHXNece4ZfEnPuxdSdOuvtw2TTz3TBKXeRyegExfXMpMb/Cp+r4aea7Yfyi7sQDvJKYcz+PMpMB3zDNfDeMH9ad+CQsACbwz8Sc01Lq303vr4JyHyPNmm6b/yDm3G+j/s/kG4NyX03ZPe9z2Yq0yVZEH/19zbkvIs3JiMj9vTXnHmEP4r6X/qLe1Hkk6Q2jiNzfUnPuk7EAmMATifuwnkl9t5P3IE2Uisj76ppyjnYkcWP3ber7tbEP8GBQ3ufXlHMJFxLTRw8AT6gp5xHglKC8x4DDaso72nXEnP+91LfT5UzSDpJRY/fHNeU9DAuASVxB3KB/rIZ8twjO+W015JzDTNL8i6h+eFcNOT8SuDEw59fUkHMpJxDXTzdQzx26EwNzvpn2Trx+B3H9cDn1vK3z8cCcf1NDvlNhATCJtxA38GPAe8j3a3JL0nPBqFzXkF55aav3ETt2/5gx1+2Je+4/RnprY8uM+Za2NWmfhMgv5ZyrzP1TYK7rvkfaanfiHuGMAReQ71HXCPHfI2/OlOt0WQBMYgfSl2nkB+CLwMbBeT6WdLs+Ms+zgnOs217EftGMkWbVR8/e3Q+4KTjPbwXn2ETfIbbPFgP7Buc4l7i3FtbFamLeQy/pbGL75ErSv/dI84H/Cc7zIZqznPE6FgADfI7YD8EY6dfekwJym0W6HboiQ45PD8ivtOiLxBhwEelZfVWzSRNNRzPkuH9Afk13EPH99iDpTk/ECoxPBC7OkOM3A3Ir7Wji++U+0mOviLlWTyH2Ueq6+ExAbtEsAAbYk/TObfSHYQ3wFeDx08hpJuld8d9kyGuM7kwg2588/bMK+DzT22dhI+A44u/YrIsfTCOntop6VXfDuIr0Cuh0CoFHA18gZi2K8b4zIorP0kZIhXSOsbsUeD7TKwT+CPga8XcOx0iPrHafRk65WQAM4WTyfFjXxc+B15M+gBO9m7yAtLjPB4id4DZeRCxD2xTfI18/rQHOAV4L7M3EXzqbAc8EPgrcnjmfg6bZT210CHm+rNfFEuDDpF+sm02Qw0zSI7jXAedmzuc70+ynJno2eb/Dfkt6HfhIJt5WexbpLZA3kH705Mznc9Psp9xCCoCRtf9R1SLgnoB2om1HuiUUsQ/0IA+Rlt9dSrq1vzlp0lPEFpTDOBV4Tk3HqsPuwK9Jz2NzGyW95nQv6RWzzUjP/Lap4diQfnn+RU3HaoqTSUv71uFW0n4E95JWhduMtE5GHau6PUAqMm+o4Vh1+R71re3/W1JBt5T0fH8haZJzxOOeQZaS7gw1cV+OhcDdEQ1FVElNvQMAadGQnBViE+J+YragbZrIV4+aGneTFsnpm61JPxpK93/u+JeoDmuQ3YhZcr3p8XdRHZaBjwCGNAv4KeU/TDnjhLDeapa5pLsApfs3ZxwX1lvtE7nyZRPjVzRn7fhoUStfNjXOpdyeIsOwAJiCHYA7Kf+hyhGnUWZ97bpErpDYtPhSYD+11UmUH4ccsZz2v/Y3mRHyvK3ThLiL8lvCD2IBMEXHkHeiT4m4gXb0fVUvp3xfR8dlpGeafbcJ6X3w0uMRHS+O7KSG2oL4tTBKx2raMZnaAmAa/h/lP2BRsZT09kFfvJvyfR4VS6hvPfQ22I2Y7VqbEv8a2jvN9ljSPJbSfR4VdW80NV0WANP0fsp/yKrG/cCTozum4UaAT1O+76vGvTRrU5GmeDzdmBT439Ed0wIHkmdRs7rj36I7JiMLgGkaIXaTiLpjBe24RZXDTPKv7ZAzlpJWK9P4DiFu69YScRLNnjiW09GkHyalx2C68VHaNZfKAqCiN1P+QzfVuJuYpYjbLMdGH3XErdS3hW2bPZb07nfp8ZpqfJj27vQX5QDgDsqPxVSjjZs0WQAE+Bvi9nHPHdcAj8nTDa30RmJ3lssZl9LNdRpy2Y3YXRZzxkq6+xrudDyWtKhW6XEZJh4Ajs/TDdlZAATZh3RxLf1hnCy+RVpZUOs7hOb/WjwJZ/tPxzzSr+rS4zdZ3Ez/5uIMY1PSfimlx2eyWEy6Y9FWFgCBNiN9UTftNcGlpLsUmtiWpJ3WSo/VhnEH8JKM590XL6eZa3h8jXz72XfFq2jenI41pA3B6lgePicLgAwOoTkrz32X+vYR6ILDyLMV6HS+YE4iFSaKsZB0NyDHTn1TjWvp7yTc6diG5vy4uhI4Iu/p1sYCIJONSJXrDZT5kJ4OHJz9LLtpHuk93ty7Lo4Xa0gro+2b/Sz7az9SYVziYnIzaffIri7tm9tTgB9R5jv1etKd1Do2EKqLBUBmG5F2aPsl+T+go8DXSV9wqm4OqYj7DfnH7n7Sq4mPr+XMBOltii9Rz4Y0vwZeiRf+KAeQHtmNkn/sLiLttTHRVu1tZgFQo8eSXj27nrgP50rShhOvIm2nrDz2BT5E7JKlDwFnkmYQT7TfvPLbDHgFcBZpTKLG90bgg7hgU05bkHbbO4/Yt3muI73Wt3d9p1JESAEwsvY/qlpEWsWrD3YhPW8+BNiLtFnNMBNKfgtcDVxCunicTdowRPV5FGnsnkJ6pXIP0lr0kxkj3f69CriYNHbnkRZkUnNsQpqRfxjpwr0HaROwQYu73Eca2yuBc0jje22+NDWOTYFDSWP3eGBP4JFD/L1lpLG7nN+P3eI8KTbOQtK6MJVYAMTYBtiW9CW0Cem1r6WkC/x9pF+fXuyb6ZGkvenXjd080szlZaSxW0y6za/2mU/a1W0T0kVmM9Jjg/vWxm3A74plp8ksAHYkjd0C0mvQK/j92N1KGr++CikAwEcAkiS1ScgjgL4vXSlJUi9ZAEiS1EMWAJIk9ZAFgCRJPWQBIElSD1kASJLUQxYAkiT1kAWAJEk9ZAEgSVIPWQBIktRDFgCSJPWQBYAkST1kASBJUg9ZAEiS1EMWAJIk9dCs0gnUYDZwKLA/sDUwp2w6oZYDNwE/Bi4vnEsOc4HDgH1JY7dR2XRC3Usaux8A1xTOpZRHAU8HdgQ2K5xLpJXAEuBC4ExgtGw6WewNHE4auwWFc4k0Shq784GzSWPZaWMBsbD2rAfbCHg9cAcx59j0uAD4k4iOa4B5wD8DSynfr3XEOcCBIT3XDgcB51K+3+uIe4C3kIrZLngq8AvK92sdcTtwAs384bGQmHMMaaRpBcAWwP9R/gNUd6wB3lq9+4rajlTMlO7LumMl8NqA/mu6E4BVlO/vuuN8YNuA/ivpbaTvmNJ9WXecCSwK6L9IFgATmAv8lPIfmpLxpsq9WMYmwCWU77+S8crKvdhcx1O+f0vGr0if8TZ6C+X7r2T8hGY9PrYAmMB7KP9hKR2rgD+u2pEF/Dfl+650jAK7V+3IBtoTeIjy/Vs6Pl61Iwt4IrCa8n1XOk6s2pGBLADGsQ1wP+U/KE2I/63Yl3XbjXQbvHS/NSH+p2JfNtGXKd+vTYiVwK4V+7Jup1O+35oQK4CtKvZllJACoGuvAT6PNIFM8DRgy9JJTMGL6MdbKcP4U2B+6SQCbQw8u3QSDTELeEHpJKZgK+CI0kk0xMakf5ud0bUCxTV1HwAAHoJJREFU4CmlE2iQmcDBpZOYAsfu9+aRXn3siv1JX55KDimdwBQ8ifRdoqRNYzdQ1wqA7Uon0DDbl05gChy79bVp7AZxbNfXprF17NbXprEbqGsFwOrSCTRMmxaxcOzW16axG8SxXV+bxtaxW1+bxm6grhUAN5dOoGHa1B9tyrUOvy2dQCDHdn1t6o825VqHTvVH1wqAH5dOoEFGgfNKJzEFjt3vLSUtI9sVvyCdk5IflU5gCs6mm0sZT1ebxm6grhUAp5KW3hR8k7RXQFt8nfQKp9JrgF261biS9Bqg0qtk3yidxBTcB3y7dBINcRdwWukkokW8H9mUdQAgrf9f+n3R0nE/7XvXGOBdlO+70rGUtPFR12xL2gCpdP+WjrdX7cgCdgceoHzflY4mLdXtQkATmAF8i/IfllKxhvROfRvNIj0KKN2HpWIVcFTlXmyuZ9HvFeV+SHvXungp/dwHYF18Axip3ItxLAAmMQf4LOU/NHXHA8CxAf1X0nzSP7bSfVl3LAeeG9B/TXcU/dnl8eHxddq/uNMLSY8wSvdl3XEyzVtgzgJgCM8kTaYq/QHKHQ+Snhu38bb/eEaA5wOXUr5vc8cK4DN07P3iAbYnFeh9WLb7EuDPaNavxyp2A75E+s4p3be54wLg6JhuCxdSAIys/Y+qFtHsyXe7APuRFrVo0o5OVd0L3ETaW71NE/6m4lGkVfG2BWYXziXSPcCNpLHr6+THjUkrQO5Ec39ETMdDwK3ARcA1hXPJZQFp7HYENiucS6RR4Heki//isqlMaiFwd0RDEZVSl/7xSpLUZG4GJEmSpscCQJKkHrIAkCSphywAJEnqIQsASZJ6yAJAkqQesgCQJKmHLAAkSeohCwBJknrIAkCSpB6yAJAkqYcsACRJ6iELAEmSesgCQJKkHrIAkCSphywAJEnqIQsASZJ6yAJAkqQesgCQJKmHLAAkSeohCwBJknrIAkCSpB6yAJAkqYcsACRJ6iELAEmSesgCQJKkHrIAkCSphywAJEnqIQsASZJ6yAJAkqQesgCQJKmHLAAkSeqhWaUTqMmWwD7ANsCcwrlIw1gJLAEuAW4pnMt4ZgP7ATsAmxbORfmsBm4HrgSuKXD8bYA/BrYmfeZyGwVuAy4C7qzheMWNBcTC2rMeziHAGcAqYs7TMOqONcD5wLNphu2ATwJLKd83Rr1xGfCXwEzyezpwHqkAKXGuq4AfA0/OfaLTtJCY8wxppGkFwCzgw5T/B2MYkfE1YGPKOQZYNk5eRr/ibNJd1RzmAJ9rwDk+PD5IPUXPVFgATOIkyn9oDCNHnAFsRP2eQ7lfY0bz4jLiH/3MAE5pwLmNF58PPteqLAAm8LeU/7AYRs74N+q1E7A8KHejO/EVYr2lAec0Wbwi+HyrCCkARtb+R1WLgHsC2qlqE+A6YKvSiUgZPQjsCdxU0/E+DxxX07HUHmPAwcDPA9rakvTdvSCgrVyWALsBK0onQioA7q7aSNdeAzwGL/7qvrnAS2o61nzghTUdS+0yAhwf1NbzafbFH9KbCM8snUSkrhUAR5ZOQKrJ02o6ziGkgkMaT9TnsC3f3XX9u6tF1wqAnUonINWkrs+6/6Y0me2JmSHfls9ZW/IcStcKgM1KJyDVpK6JtyXeOFB7zCBmQbm2fM46tZBc1woASbF+VzoBNdpdpNXzqro1oI06NHFVzmmzAJA0mfNIqxFK4zk3qJ3zgtrJLep8G8ECQNJklpBWfpPG89Wgdr5G8wvNUeA7pZOIZAEgaZC3ErNeiLrlV8DXg9q6Ejg5qK1cPk7HHolZAEga5CfUv/qgmm058HJif7WfAFwd2F6kXwFvK51ENAsAScN4G/CB0kmoEW4HjgJ+E9zuPcAzSPsMNMkFpPNtwgqAoSwAJA1jDfBG0qZAVxbORWWsId2m35d0VyiHG4CDgPcCD2Q6xrCWkwrfQ4HbCueSRdf2AriQ9OGs4hzSxCcpl/nA0RXbuIf0766EGcCBwOGkhVGid4VTc6whfR9eDpxGva/BbU765b0vsA0wu4ZjjpJeSbwAOB24r4ZjTkfIXgAQs0tSU3YDvJDq53JE7Vmrb3al+uc05B+/pFYK2Q3QRwCSJPWQBYAkST1kASBJUg9ZAEiS1EMWAJIk9ZAFgCRJPWQBIElSD1kASJLUQxYAkiT1kAWAJEk9ZAEgSVIPWQBIktRDFgCSJPWQBYAkST1kASBJUg/NKp1Az4wAOwPbAfPKplKrMWAJcCOwvMDxZwK7AtsAcwb82VHgNuB6YHXmvCSpqLGAWFh71uO7kOrnckSGvLYCPgDcHJBfm2MU+AHwjGrdObRdgU8Dd0wj1zuATwG7ZMqral/enSEvSe2wkJjv5JBGLAAm9nxgWUBeXYtvAwsq9OsgryMVHFXzHAVeE5ybBYCkKiwAxtG0AuCvgDUBOXU1LgTmT7t3J3ZihlzfGZifBYCkKiwAxtGkAmA/4KGAfLoeX5xuB0/geZnyXAM8JyhHCwBJVYQUAL4FkM8HgI1KJ9ECLwUODGprNvAfQW1taIQ0prMztS9JtbIAyONxwFNKJ9ESI8Crgto6ijyT9tbZDXhaxvYlqTYWAHkcVTqBlonqrzreLji6hmNIUnYWAHnsWjqBltmSmDcCdgtoYxDHVlInuBBQHhuXTqCFFlB9kaA6+n2TGo7RdHOBI4HDgR3J+zrnw91OWqDpNOAC0kSmOmwJHAMcRFpMam5Nx1X9RkmLlp0PnEpaFKzTImZI+xbA+t4XkEefYhVptb6qvlFDrl8LyLPNbwEcD9wyZI454+ekC3JO80n/lh8ofK5GmRgFPgJsRvP4FkCD/aJ0Ai1zETHL7tbR7xfUcIwmmgV8HvgsaSnr0g4AzgZekan97YBzgX/AX/x9NZu0CNjPyDu5uBgLgDxOB+4rnUSLfDOonW+R3tfPZQ3wnYztN9mHgeNKJ7GBjUjLNT8/uN15pHH+4+B21U6PAb4PbF46kWgWAHksJ70zrsFuBz4Z1NY1wP8EtTWeLwDXZmy/qZ4OvLp0EhMYAf4bWBTY5jtJC3lJ6+wJvKd0EjlEPCtxDsAfmkuaSFL6OVaTYzXwrOl28AS2AK7LkOti0mSwCG2bA/CzgHxzxzuCznVLfOZvjB8rgZ1oBucANNyDwHOBi0sn0lArgb8mzeiOdBdpxvbiwDZvIK1VcEdgm22xI+l5e9O9IKidZ+Mzf41vFmmp8c6wAMjrVtKKgB8k7Qug5CLgT4D/L1P7lwP7AydRbU7AGtLEt/2BK6qn1UoHkG6zN92jiXlG24ZiR+XkfvOkVq4DkN8K4PWkOQF/CjwJ2J400agvxkjv1l5F+sX/f2v/fzndQZq09i5S1b4/sC0wZ8DfGyUVbheQJidelzHHNti2dAJTsB2wtGIbbTpf1a9Tnw8LgPrcAnxsbag+15Le5db0PFA6gSlYEdDG/QFtqLs69fnwEYCkySwuncCQ1t25qerGgDbUXYtLJxDJAkDSZM6h+hLNdTiDmHk2pwe0oe76fukEIlkASJrMKHBy6SSG8Omgds4BrgxqS91yEx0rEC0AJA3yTsrtPTCMs4hboXEVafnf3JNU1T5vJr3e3RkWAJIGuY30nn0TX2W9EXhRcJunkd4ekdb5MPCV0klEswCQNIwzSKtkLimdyMP8jPRe9u0Z2n478PekBavUX6uBfyF9FjrHAkDSsM4lrYn+buDmgnn8EvhL4MnEzPyfyIeAvUlzINowEVJxVgBfBf6I9Hnv5CMh1wGQNBX3kn4RvZVUDOxIfful3wZcT1pToy7XAC8nLSC1N/BIXCq4y0aB3wGX0a41MKbFAkDSdIyRZsv3Zcb8KOnOwy9LJyJF8RGAJEk9ZAEgSVIPWQBIktRDFgCSJPWQBYAkST1kASBJUg/5GmD9ZgBbA/MG/LmVpBXORrNnNLG5wFb063MySlrtblXpRCQppz59sZc0B3gF8ELgYGDmFP7uFcC3gY9QzzKsOwCvA54L7FbD8ZpojPS+9zeAj+MqcJI6aiwgFtae9fgupPq5HBGc00HADQF5LQf+Jji3Db2JtPpVxGeiK3E7cEyVTh3HrgF5NXl3Pkl5LSTm+y2kEQuA8R1N2j4y8oJ0YmB+D/fJ4Dy7FKtJd3CiWABIqsICYBxNKgD2IK2bnuOC9OKgHNd5TaY8uxQPAU+abgdvwAJAUhUhBYBvAeTzfmDTTG1/CFgQ1NYjyHdXoUs2Is0H8N+MpE7wyyyPXYFnZ2x/K+AFQW0dT75CpWv+CDi0dBKSFMECII9n1XCMqIlpdeTaJdETAiWpCAuAPPZo0TH2DGqnL+oYW0nKzgIgj81rOEbUxMvNgtrpi6ZMeJWkSiwA8ri9hmNELQp0R1A7fVHHYkySlJ0FQB6X1nCMSxrWTl/YX5I6wQIgj9NI743n9O2GtdMX3ymdgCRFsADI407gUxnb/zVwalBbXwSuD2qr607FOwCSOsICIJ+3k+fCOgr8NbAmqL2HgL8jLXerid0FnFA6CUmKYgGQz92kd+x/G9jmKHAscH5gmwCnA6/CLXAncg/wp6RNnSSpEywA8roC2A84JaCtS0mr0H0toK3xfBp4BnBNpvbb6hzgQODc0olIUqRZpRPogduA5wL7Ay8ibSizPTBvwN9bSXrl7GLSRL1TibvtP5EzgL2B55FyfiywNf36nIwCvwN+AXyd1Cea2EbAJqWTUDZrSJualTYfmF3DcUaB+2s4TmNE7JTWlMVRmrQboDSRtu8GeBhwEnAL6QJReqdGI288QPoh8g5gG+oxH3gdcDZwX4ZzmizuBX4EvBKYk/tEp8ntgMdhAaA2aGsBsCXw/Wnma3QjlpMuzDkdQ7oLV/pcx4DFNHMDMLcDllSbHYELSPNE1F+bkLYj/3im9l9JWmtj20ztT9VOpLsBLyydSA4WAJIGmUuayLpz4TzUHK8GXhvc5mHAx2jedWkj4PPAvoXzCNe0jpbUPK8BnlA6CTXOu4mbEzAT+CjNnXA8l3TXY6R0IpEsACRNZgYugKTxbUK6ZR/hWcBeQW3lcgDpLa7OsACQNJknAtuVTkKN9eygdo4Jaie3qPNtBAsASZN5TOkE1GhRn4+m//pfp1P/HiwAJE2mKa/4qpnmARsHtNOWz9mi0glEsgCQNJk7SyegRltBzMp5bfmc3VE6gUgWAJImc1npBNRov2lYO7m1Jc+hWABImsyvSKuhSeP5TlA7ERum1aEteQ7FAkDSZMaA95VOQo10D/CpoLZ+AFwU1FYuZ5E2CesMCwBJg3wG+EnpJNQ4f0/cnhRjwN+RduNromWk/DrFAkDSICtJW0Q7H0DrvAv4QnCb5wPHAQ8Ft1vV/aS9AK4onUg0CwBJw7gdOAj4IunXmvrpDuBlwNsytf9V4HDgqkztT9UlwJOB00snkoMFgKRhLQeOJW2K8kHg16S909Vdq0lb855B2gZ4d+B/Mh/zPOBxwMuBbwM3Ud9dgVHgBlIh8nxgH+Dimo5dRMSeyU1ZxOFCqp/LEZlyO4p0y+xa0i2l0vtc1xlrgFuBc4F/ALao2JfDmkm6dfd14EbgwSFyfZA06/1rwAvWthFt1yHyGBRRz14ltc9CYr6bQxqxAJjYbqSKtvRFuEmxlPwTavYjvbNbNddfE78NqAWApCosAMbRtALgiaQVrkpfcJsaH59+107qWcTeZVkBHB2YnwWApCpCCgDnAOSzLWnRiLpud7fRq4HXB7f5OODLpDXKo2wMfIX2bFgiSQNZAOTzbtxGdRjvBnYIbO9DpH3Koy0APpGhXUkqwgIgj21Js6U12FzgNUFtHQgcFtTWeA4F9s/YviTVxgIgj2eRZ/Z4Vz03qJ3nBLVT+hiSlJ0FQB6PLZ1Ay+xOuhNQVR397thK6gQLgDyc+Dc1I8T0WR39/ogajiFJ2VkA5HFX6QRaZoyYPquj3x1bSZ1gAZDHlaUTaJnFpBX4qqqj3zu3IYikfrIAyOM00vK3Gs6pDWun9DEkKTsLgDxuJi0co8EeAj4a1Na5wE+D2hrPzzO3L0m1sQDI5y2kZYA1uROB6wLbex0xjxM29ABp5cKxDG1LUu0sAPK5CXgeaQtVje9kUgEQ6ULgL4CVgW0+BBxHx7cFldQvFgB5nQscBFxSOpGGeYB0h+RY8vyi/ipwJGlf76quJ20Q9fWAtiSpUSJ2S3M3wMnNAF4EfBu4IyDHNsYDpELoRGD7at05tDnA3wA/BO6ZQq73AD8A/hqYnSEvdwOUVEXIboCzak+7n9aQJgWumxg4l9jd6ppuDFha4LijwKfWBqRd/eYM8Xfuz5mUJDWBBUAZD5Jnopomdz9e3CUJcA6AJEm9ZAEgSVIPWQBIktRDFgCSJPWQBYAkST1kASBJUg/5GqCk6ZgN7AfsAGxa0zGXkFZ3vLSm4z3cQuCJwLakdTzUTaPAbcBF9GQvl4hV3lwJUBpem1cC3A74JGlhp1KrSi4G3kA9F+L9gP8l7S1R6nyN+mMV8GPgyTRTyEqABDViASANr60FwDHAsmnmmyMuA3bPdK4jwLtIq3iWPk+jbHwQmEmzhBQAzgGQNIznAN8BFpRO5GH2As4DdszQ9oeAfyEVAuq3E4DPlk4iBwsASYPsRNq6uYnfF1uTdmqMzO2FwGsD21P7HQe8onQS0Zr4D1pSs7wD2KR0EpPYn7TbZoTZwHuC2lK3nAjML51EJAsASZOZT/pF3HTHB7VzGLBzUFvqlq2BZ5ZOIpIFgKTJHEI7XnuLyvPIgDbUXU8rnUAkCwBJk9mpdAJD2oj0imJVbTlfldGpz4cLAdXnMcALgCeRvqjmDfjzK4HbgV8B3wbOyprd780Ank6a9b036bZX016ByWndQiAXAN8gvVraZxuVTmAK5gS00abzVf0iPmONEvGepOsATGwR8EVgdcW8fgI8Pji3DR0EXFwxz67FacS/ZtamdQD+LCDXuiJiRcL/asB5GM2NL9MMrgPQArsC5wMvo/rjloOBn5JvEsqLSXcZnpCp/bZ6JuluwBNLJ1LIeaTFcJruEtIiRVWdF9CGuuvc0glEsgDIZ1Pgu8SuVDYf+CrxF+lDgS/QwdtbQbYGTgW2L51IAUuAs0snMYSvBLXzPeC+oLbULaOkxbA6wwIgn7eRViqLNh/4HHFjtxHwGXz2Oci2wH+WTqKQt5JuGTbVbcDHgtq6B/iPoLbULR8Hflc6iWgRz0WcA7C+hcADAblMFlGPAo7NnGeXYg0xRV2b5gCsc2JAzjliJend/UgbkR6HlT43ozlxMc1aBMg5AA32TPK/O/28hrXTByPAn5ZOopC3AR8oncQGVpBWADwzuN2VwJ/Tjkcfyu8C4CjS561TLADy+OMajrFPw9rpi7721xrgjaTXQ68snAukLXr3B76Zqf27SIsCvZm09bH6Zzmp8D2U9Jipc1wHII+tajjGNkHt1JFrl0T1e1udSno18kDgcNLCKBGv3w1jCXDd2uNfW8PxVgLvI80vOJL0mux2tGNlRE3PKHAr6Vf/6XR8QqgFQB4RryMNEvWrZBmwZVBbfeCvwXQ34Kdrow/uB05ZG1Jn+Aggjzp+nUQdo45cu8T+ktQJFgB5fLeGY5wW1M73gtrpi6h+l6SiLADyuBb4Qcb27yRu4ZNPkya7aLArqG9PBknKygIgnzeSnh3m8I/AvUFt3Q78W1BbXbYaeC2wqnQikhTBAiCf3wB/QfwF42PAZ4PbfC/wpeA2u2QM+Afgx6UTkaRIEaskuRLgxI4gvUNaNa8HSXcVcpkBvIv06lPpVbeaFPcCL6nQr+Np40qAkpojZCVAghqxAJjcJsA/kXYsm2o+vyX96t8pQ17j2ZM0L2DJNHLtUlwD/DvwiGrdOS4LAElVhBQAI2v/o6pFpE00SrsQ2LdiG0eS91bvpqRd5eYN+HMrSRfhJRlzmcwIaRe8renXehGjpA0/cl5gdyUtaFPFPaR/d5L6ZyEB31F9+mJvimXA5aWTGMIY6dFFJ5fAlKS+cxKgJEk9ZAEgSVIPWQBIktRDFgCSJPWQBYAkST1kASBJUg9ZAEiS1EMWAJIk9ZAFgCRJPWQBIElSD1kASJLUQxYAkiT1kAWAJEk9ZAEgSVIPWQBIktRDs0on0EDvBe4unYQ6bV7pBCqaCxwJHA7sCCwom44yWgMsAa4CTgF+U+OxdwCeA+wLbAXMruGYo6TzPR84FbithmMWNRYQC2vPenwXEnM+htH0KFWkHg/cMmSORvfi+8CjyWtL4DPAqsLnOgp8BNgs7+lOy0JizjGkEQsAw6g36i4AZgGfD8jbaH8sA44ij72BGxpwjg+Py4FdMp3vdIUUAM4BkDSMDwPHlU5CjbAA+Bawf3C725DuMOwc3G5VjyHltXnpRKJZAEga5OnAq0snoUaZC3wR2CiwzY+Tnvs30Z7Ae0onEc0CQNIg/1o6ATXSHsBLgtr6I+BPg9rK5a+AnUonEckCQNJkdgQOKJ2EGusFge2MBLWVyyzgeaWTiGQBIGkyB9D8L2aVc2BQO20pMg8qnUAkCwBJk9m2dAJqtEWk+QBVbRPQRh069e+hawWAC/ioL+6q6TgP1HQctdMqYGVAO235nN1fOoFIXSsAbiydgFSTxR07jtrpRmB1QDuLA9qow+LSCUTqWgFweukEpJp8v6bjnAMsr+lYap+oz+EPgtrJra5/d7XoWgHwv8BvSychZXYf8KWajjUKnFzTsdQua4DPBrX1DZr/CPcmOvYjs2sFwAPAW0onIWX279S7Sck7af6Xs+r3OeBXQW0tpfnrTbwZeLB0EtEi1kpuyl4A63yE8utHG0aO+A5lCvfDSXcDSp+/0Yy4gPhdLUdIqwuWPrfx4kPB51qVmwFNYgR4K+V3kzKMyPgEsUuvTtVTSHceSveDUTa+Q74toGcC7yc9Xih9nmOka8g/07y1MCwAhvBY4GvACsp/kAxjOjFKmtvyJJphM+BE0vPQ0n1j1BergHOBY6jHE4FTSI91S5zvfcBXSLsTNlFIATCy9j+qWgTcE9BOLvNIA7kdMKdwLtIwVpJ+bV9GM2fhj5A2SNmRZu6XrhirgSXAVcCdBY4/n/TdvS0wu4bjjQK/I/27a/LaBAsJmpcTUS019Q6AJEldE3IHoGtvAUiSpCFYAEiS1EMziJkD0LQZkpIkdVXENXdsBjGbG0S/DypJksY3P6CNFTOImWG8aUAbkiRpsIhr7vIZpPcdq9opoA1JkjTYzgFtLJtBzPv7ewa0IUmSBtsjoI2lM4DrAho6IKANSZI02EEBbVw7g7TCU1VPxTcBJEnKbQbwJwHtXB1VAGxDTEUiSZIm9hRgy4B2rpwB/DqgIYDjgtqRJEnje1lQO7+BdOs+YovP+4ipSiRJ0h96BOnV/arX69uAkXUrAZ4dkNh84ISAdiRJ0h/6B2CTgHbO5GGrAP8tMbsC3g/sGpCcJEn6vd1IWxRHXKtf8fCGtwNWBTX8v/hGgCRJUUaAHxJzjV5Jmri/nh8ENT4GvD701CVJ6q83E3d9/t54B3hp4AEeAp4WduqSJPXTUaRf7VHX5xePd5CNScsCRx1kOXBgUAdIktQ3B5HesIu6Lt/FJLv3vivwQGNrEz+qeh9IktQrhwPLiL0mv32yA25BzDuGGz4OeANODJQkaZAR0ut+kbf9x4B7gYWDDv7+4IOui+/jK4KSJE1kd2In5D88/n2YBBYBt2dK4P61SbhioCRJyVbAe4l7z3/DuA3YbNhk/jJTEuviPuBTpE0NfDQgSeqbEeAQ4NPACvJec18+UQIT/f/PAZ5c7fyGcjtwFnABcAVwI6lAWF7DsSVJym0BaQnfnYDHAAcAT6Weu+Fnrz3W2Ib/w2S/vvcALiQlLkmS2mUZsC9w7Xj/44xJ/uLVbLBesCRJao1XM8HFH2DmgL98GfBIUgUhSZLa4RPAeyb7A8NMwJsNnAYcGZGRJEnK6izSInyjk/2hYWfgb7q2wX0qJiVJkvK5FDgUWDroD07lFbxtSG8GPGqaSUmSpHyuJr1ef/swf3iySYAbum1tw7+cRlKSJCmfX5Ne9xvq4g9TKwAAlpBuLfxwin9PkiTlcRZp3Z7fTeUvDXoLYDwPAV8nLV3o2wGSJJXzSeBlpKX2p6TqMrzPAz4LbF6xHUmSNLzlwCuBL0+3gYh1+PcAPkOaHyBJkvI6m7RQ34SL/AxjqnMAxnM1aV7AcaQ5ApIkKd5tpGvtU6l48YfpzQGYyCWkxwEjwOOBOYFtS5LUV8uBDwIvBs6PajTXVrybAq8C3gQsynQMSZK6bBlpkt/7gLujG89VAKwzFzgGOBZ4BjAr8/EkSWqzNcCZwBeBbwIrch0odwHwcNsCzwIOIz2/2LrGY0uS1FS3kd7lP5O0985tdRy0zgJgw+PuBTwW2BN4NLALsAWwydpYUCg3SZIiLQfuWxt3AdcDV5Im0f8auLxEUv8/8SWPLuCGaYwAAAAASUVORK5CYII=;rotation=30;" vertex="1" parent="1">
          <mxGeometry x="193.66" y="1351.8300000000002" width="52" height="52" as="geometry" />
        </mxCell>
        <mxCell id="TAAMW9c03Df91oIx33Ai-33" style="rounded=0;orthogonalLoop=1;jettySize=auto;html=1;exitX=1;exitY=0;exitDx=0;exitDy=0;entryX=0;entryY=0.5;entryDx=0;entryDy=0;" edge="1" parent="1" source="TAAMW9c03Df91oIx33Ai-26" target="TAAMW9c03Df91oIx33Ai-27">
          <mxGeometry relative="1" as="geometry" />
        </mxCell>
        <mxCell id="TAAMW9c03Df91oIx33Ai-34" style="rounded=0;orthogonalLoop=1;jettySize=auto;html=1;exitX=1;exitY=0.25;exitDx=0;exitDy=0;entryX=0;entryY=0.5;entryDx=0;entryDy=0;" edge="1" parent="1" source="TAAMW9c03Df91oIx33Ai-26" target="TAAMW9c03Df91oIx33Ai-28">
          <mxGeometry relative="1" as="geometry" />
        </mxCell>
        <mxCell id="TAAMW9c03Df91oIx33Ai-35" style="rounded=0;orthogonalLoop=1;jettySize=auto;html=1;exitX=1;exitY=1;exitDx=0;exitDy=0;entryX=0;entryY=0.5;entryDx=0;entryDy=0;" edge="1" parent="1" source="TAAMW9c03Df91oIx33Ai-26" target="TAAMW9c03Df91oIx33Ai-30">
          <mxGeometry relative="1" as="geometry" />
        </mxCell>
        <mxCell id="TAAMW9c03Df91oIx33Ai-26" value="" style="shape=image;verticalLabelPosition=bottom;labelBackgroundColor=default;verticalAlign=top;aspect=fixed;imageAspect=0;image=data:image/png,iVBORw0KGgoAAAANSUhEUgAAAgAAAAIACAYAAAD0eNT6AAAABHNCSVQICAgIfAhkiAAAAAlwSFlzAAAOxAAADsQBlSsOGwAAABl0RVh0U29mdHdhcmUAd3d3Lmlua3NjYXBlLm9yZ5vuPBoAACAASURBVHic7d13uGVVff/x950CDH2GjoWmICiKjIoQpalYIhaIEaPYgj/U/Oyxm4ixx1hjI+ovKjFWUKwISrOgSLEhTRBEkDoDMwxlhpn7+2Pdk4wz587ce/d3nbX23u/X83wfeRJY57v3Peesz9ll7THKmAU8DTgE2BvYBVgAbAjMBsYmSpKkthufqJXA3cAi4A/Ar4HTgW8Cq0bd1Cgn2YXAa4BHAzuSQoAkSX23CrgWOBt4P3DhKF40dwDYEvhn4O+A7TK/liRJXbCEdFTgH4Ebcr1IrgCwO/AfwIEZX0OSpC4bJ50meO7E/4aKnpzvD3wJ2Dd4XEmS+mocOB84CrgiatCo8/CzgOOBS3DylyQp0hjwMOBy4CRgTtSgTT2J9Kt/s4CxJEnSui0BngGc2mSQpkcAPgF8Gyd/SZJGZXPgFODjTQaZ6RGALYGfky72kyRJZVwC7Ec6KjAtMwkA2wG/Iy3cI0mSyroVeDBwzXT+o+meAngwafUiJ39JkuqwJXAZacG9KZvOEYB9gHOBudN5AUmSNBIrSHfi/XYq//JUA8C9SLcfzJthU5IkKb+7gAcAV6/vX5xKAFgAXAls0bApSZKU362kh+zduq5/aSrXAJyDk78kSW2xJfCT9f1L6wsAH8Fb/SRJapu9SGv1TGpdpwCeAHx3Pf+OJEmq0zjweOC0Yf/PySb3WaRzB6NY4W8V6d7FC4DzgF8CtwA3juC1JUnKbVtgK9IV+gsn/vfexD2PZ11uI13Lt2qq/8FnSckhV60CLgKObbhhkiS10SzgxaSF9XLOt+PAp6ba1P2BlRkbOXviNSRJUrrW7ifkm3dXku4KWK/zMzVwPXDAdPeKJEk9cSDp9HeOOfhn63vx3TO98EmM5lyHJEltNgs4mfh5eBWw27pe+McZXvRNTfaEJEk99BrSpB05H5852YttG/xiq4AXNt4FkiT10zHEz8tbD3uhTwS+yDjwuqAdIElSX72R2Ln5o8Ne5ObAFzgpbNMlSeq3bxE3P9+05uALAwe/Hi/4kyQpyizSxB01T++z+uBfDBz4wPBNlySp3w4gbp7+/OoDXxM06NkZNlqSJKWn80bM1VcPBpxF3Mp/PjlQkqQ87k/MXQErmThV/7SAwcZJa/tLkqR8LiZmzj58FvDYoKY+FDSOJEkabuhtfDPwGEgrA4UdTpAkSdlEnbY/fRZTfELQevyRaTxrWJIkzcgq4NqAcXaZA2wVMNCFAWMM8yjgCNI6BdsCG2R6nelaRLqK8hTgq8BtI3rd+wHPAA4C7gVsPKLXXZ87gD8BZ5H2xxUjet0tgb8BngDsBCwY0euuz3LSE73OIy2K9ZOy7UjqmAuA+zQcYxtIX1ZNDyVEP/BnD+D0gL5GUbcALwPGgvfB6jYDjgdWVLC966sVpGWlN82yJ5Ix4OWkfV96e6dSP8Q7ZCTFeSvNv5fuhphzCX8duGEHA4sDehp1nQDMDtwPAzsCv65g+6ZbvwJ2yLA/ZgP/VcH2TbcWkY7cSFJTT6X5d9JKAgYZJx2ij7AH7Zz8B/W+oP0wMA84t4Ltmmn9DNgoeJ98oILtmmktIt3HK0lN7Efz76NVBAwyDuwWtFE/DOqnVK0CHhm0LwDeUsE2Na03BO6PRxD/fOxR1xmB+0NSP+1GzPdRyCARdxI8KqiX0nVywL6A9Mv51gq2p2ktAjYM2ieRT8QqWQcE7Q9J/bQLAd9FNd27f0TpBoIcRswFcI8BtggYp7T5wKEB42wGPC5gnBp05b0uqcVqCgD7lm4gyEbAXgHjdGV/QMy2PJC4IwmldelvK6mlagoA25VuIFDE1e9d2h/bB4zRpf2R4+4ISZqWmgJALYv8RIjYlrkBY9QiYn/4/pCkQDUFAEmSNCIGAEmSesgAIElSDxkAJEnqIQOAJEk9ZACQJKmHDACSJPXQnNINBDsauLjhGB8nPXSmC/4d+FzDMZ4HvCyglxqcC7y04Rh7kh79LEmt1rUAcDFwfsMxlkQ0Uolrab4/HhvRSCWW0Hx/SFIneApAkqQeMgBIktRDBgBJknrIACBJUg8ZACRJ6iEDgCRJPWQAkCSphwwAkiT1kAFAkqQeMgBIktRDBgBJknrIACBJUg8ZACRJ6iEDgCRJPWQAkCSph+aUbiDYx0nPfG9i34hGKnEM8NiGY+wc0Ect9gVOazjG5hGNSFJpXQsAjyjdQGXuN1FKFtA8EElSJ3gKQJKkHjIASJLUQwYASZJ6yAAgSVIPGQAkSeohA4AkST1kAMhjvHQDHeQ+laRANQWARaUbCHRLwBjuj7+0OGCMWkTsD0lqpKYAcFXpBgJdFTDG1QFj1OKqSsaoxVWlG5CkmgLA90s3EORy4A8B43yP7hz2PjVgjCuAywLGqcH3SjcgSTUFgK/RjcPenwwa52qar1tfg1OI+8X7qaBxSroZOKl0E5IE6Vdm09olqJeXBfVTqi4FNgzaFwD7AHdVsF0zrbuAvQP3x0akIyylt6tJvSRwf0jqp12I+T4KGSQqAIwBJwT1NOpaDOwZtB9W9wJgVQXbN91aBTw3w/7YC7i1gu2bSX0uw/6Q1D+dDAAAs4H30a5J71LyTP4DzwCWVrCdU60lwJFZ9kSyF+l6gNLbOdVaBbyX9N6WpKY6GwAGHgacDNwZ1GOOugR4NbGH/SezA/BR4KYRbt9060bgI8D2mfbB6jYCXkMKX6W3e7K6E/g6sDDTPpDUTyEBYGziH5ralZgr34fZBHggaQLcINNrTNfNpAvbcm3zuswm/QK+D2nf1GAZ8EfgYmBlgdffFdgZ2KrAaw+zHPgzcBFp30hSpF2AKyMGivilk+MIgCRJWlvIEYCabgOUJEkjYgCQJKmHDACSJPWQAUCSpB4yAEiS1EMGAEmSesgAIElSDxkAJEnqIQOAJEk9ZACQJKmHDACSJPWQAUCSpB4yAEiS1EMGAEmSesgAIElSD80JGuedwNKgsSRJ0uQ2ixhkDBiPGEiSJLWHpwAkSeohA4AkST1kAJAkqYcMAJIk9ZABQJKkHjIASJLUQwYASZJ6yAAgSVIPGQAkSeohA4AkST1kAJAkqYcMAJIk9ZABQJKkHjIASJLUQwYASZJ6aE7QOG8D7gwaS5IkTW4e8NaIgcYDan5EI5Ikab3mEzB3ewpAkqQeMgBIktRDBgBJknrIACBJUg8ZACRJ6iEDgCRJPWQAkCSphwwAkiT1kAFAkqQeMgBIktRDBgBJknrIACBJUg8ZACRJ6iEDgCRJPWQAkCSph+aUbmAK9gAWAtsBGxTuRRqVFcANwC+Biwr3IqmDag0AY8AzgX8C9irci1Ta5cA7gROAVYV7kdQRY8B4wDgLgMUB4wBsQvqie3rQeFJXnAocRdxnTVI7zQcWNR2ktmsA5gAn4+QvDXMYcBqwcelGJLVfbQHgOOAxpZuQKrYQeHfpJiS1X02nAHYArgDmNW9H6rQVwJ6kz4uk/uncKYBn4uQvTcVc4Nmlm5DUbjUFgENLNyC1iKfKJDVSUwC4b+kGpBbx8yKpkZoCwGalG5BaZIvSDUhqt5oCgCRJGhEDgCRJPWQAkCSphwwAkiT1kAFAkqQeMgBIktRDBgBJknpoTukGgp0E3Fy6CWk9Nic91leSihoPqPkBfVwR0MfCgD6k3Hal+Xu98YNAJLXWfALmbk8BSJLUQwYASZJ6yAAgSVIPGQAkSeohA4AkST1kAJAkqYcMAJIk9ZABQJKkHjIASJLUQwYASZJ6yAAgSVIPGQAkSeohA4AkST1kAJAkqYcMAJIk9dCc0g3of2wP7AhsMlGbAbcCyybqj8DiYt1J07clsBewLTC3cC+q253AtcBvgRUFXn/nidomYKzlwA2kbbk9YLxsDABl7AQcAhwEPBDYHdhiCv/djcAlwK+BM4CzgFsy9SjN1EHAm0jvcSd+TcetwEnA24GrMr/WBsCxwItJQTXaXcCpwDuAX2QYP8R4QM0P6OOKgD4WBvSRy57Au4DfE7PPx4GVpDfWq0hHENQOu9L8b79o5F2v3wbAp4h7f1v9rbuAF5LPbsBvRrQtq4B/A2YH9j8/qLeQQQwAw80Bng2cS/432T3At4GDR7FhaqSLAWA28C1G84Vq9adeQbxdSIfoR70tnw/cBgPAkKolAMwBXkTsr/3p1E+AJ2TfSs1UFwPAWynzXre6XfcAf0WcOcAvC27PS4O2wwAwpGoIAA8jHZYv/cEZJ/0i2yXv5moGuhYAdiRdqFr6/W51s35GnGMKb8vNTO16r/UJCQDeBhhnU9L5z3NJIaAGTwYuAl6Pt3wqn+cAG5duQp21H/CQoLGODRpnprYCjizcw/9wUoixF3AOKV2OFe5lTfOA9wCn4YWCyuPxpRtQ50Wc0tyaOo4SV3N61gDQ3NHAecCDSjeyHocC5wOPKN2IOmfn0g2o8yJOZe5EHT/QqjktawBo5uXAZ0m/sttgR+B04ImlG1GnbFS6AXVexHdsLe/TauYLA8DMvQf4MO3bh5sAJwNHlW5EnXF96QbUedcFjPHngDEiRGxLiLZNXrX4Z9KFdW01F/gv4OmlG1EnnFO6AXXeTwPGuIo6QkDEtoQwAEzfscDbSjcRYDbwBeBRpRtR632ldAPqtMXADwLGWQWcGDBOE+PA1wr38D8MANNzKPCx0k0Emgd8Hbh36UbUamcT8wUtDfMu0sOCIrwHuCNorJn4MukhQVUwAEzdtqTD5pHrOddga+Cr+NAWNXMM6WFVUqQfAR8JHO9a4CWB403H1eRZ2njGDABTM0Y6XL5D6UYyeSRwXOkm1GpXA0+ioguc1HpnA08jPV430ueBV5MepjYqV5DuvqouJEcsb9j1pYBfGNBb7bUC2Cdqh2mdurYU8Op2AE4gfbmWfk9b7awlwFvIf1TyYODCzNuyAvgkaQXASCFLAY9N/ENTC0gXajRxBemLsYmHkRa7ibQAuJR0qDy3FcCVpGdiLwW2nHjd+zKaozU/AR5NzHtCk9uV9H5vYjHpvVmrnYGnkkLldniKSet2J/An4MfAd0nfgaMwC9ifdPRqF2CbgDGXk26NPQ/4Jum0Q7T5BP0IiEg5XT4C8PGAvtZV5wH/COxLelLVMPOAg4B3An/I3M9zZ7ifNHVdPgIgKT+fBjikogPAvYG7A/paswa3o8yk3zHSQ35+nqGvceByunehY20MAJKaMAAMqegA8KGAnoZNsIcE9DZGujbh1gw9/l1Af5qcAUBSEwaAIRUZABYQ/4zzE4HNA3uENJlEX8jy6+Ae9ZcMAJKaCAkA3gY4uaOIfcb5J4BnkK5wjXQl6fqAMwPH3Jt0QaUkqaMMAJM7OnCszwP/QDr3n8MS4HDSBYVRvBhQkjrOUwBru19AL4P6ObBBUF/rcy/SQhMRfd+IFwPm4ikASU14CiCjxweNcyfpgrrolawmcy3wf4LG2oZ8CytJkgozAAx3aNA476H5gi/T9Q3SQhoRovaDJKkyBoC1zSJdVNfUYuCDAePMxD8HjRNxu6IkqUIGgLXtTMy6zZ8hLedbwvmkB2k05SkASeooA8Da9gga54SgcUq+/laM5hkIkqQRMwCsLSIAXEf5xXSirgPYPWgcSVJFDABr2yVgjB8FjNHUdaQHBzXV9AmNkqQKGQDWFrFU78UBY0S4JGCM6KWLJUkVMACsbdOAMa4LGCPCnwLG2CxgDElSZSZ7/nyfRQSA2wPGiBBxF4IBQDM1BmwHbAvMDRjvBtIKlaNaWGtNC4AdgI0Kvb7aYTn/+16tmgFgbfcEjFHLfo340l0RMIb6ZTfgH4GnAdsHj70M+D7wUeCM4LGHWQC8CvhbvCBW0/NH4OvAvxFzNDacpwDWFvGrecuAMSJEPKOh1FoGap8x4I3A74AXEz/5A2wCHAGcDnyFmCN2kzmCtJLnW3Dy1/TdF3gFcBnw0sK9DGUAWFvE4ftarpzfLWCM6McXq7s+BryL0T386hnAWeQJAS8CvkY9YV7tNY/02Xh76UbWZABY280BYzwkYIym5gAPDBjnloAx1H0vBl5S4HX3BT4dPOYBpC/sseBx1W9vBv6mdBOrMwCs7bKAMfYnpb6SFhJzC1/E/lC3bQm8o+DrP5O4B1eNAe8n5voZaXVjwIeAjUs3MmAAWNulAWNsBDwpYJwmjgwYYyXw+4Bx1G3PIeb5GU1EnWN95ERJOdwLeErpJgYMAGu7BBgPGOfvA8aYqQ1JX8pNXQncHTCOuu2JpRsAHk/M3Telg7u6769LNzBgAFjbYuCigHGeAOwTMM5MPI90v3JTPw4YQ913/9INkC4EjLjr4H4BY0jrUs17zAAwXMT9xYPzPaO+kGgz4K1BY50eNI66rZbForYIGKOWbVF3RbxPQxgAhoua+A4CXhA01lT9K7Bj0FijWGhF7XdD6QYm/DlgjFq2Rd0V8T4NYQAY7jTilvP9CLB30FjrcxTpdqwIPweuDRpL3XZB6QaAq4FFAeNcGDCGtC41fF4AA8BklgEnBY21CfBdYKeg8SZzEPCfgeOdEDiWui3qs9JEVA8nE7McuDSZGj4v/2M8oCKWnL0ioI+FAX0MPCagn9XrauABgf2t7kmkIxZRvd4NbJ2pV6WVIpv+jSJ+7UYZA84j9vMynboDuHfg9vxHwW2xul3fJ8b8oH5CBuliAJhFWtM88o+/mLS+eGSPbyb9Yons01//eXUtAAA8lNgQOp06NnhbtibdAltiW6zu1i3E3QFgABhSkQEA4OiAnobVl0kPimji4aTz9NG9rQT2bNib1q2LAQDS/c1LyfOZGVargH/JtC17kY7ajWpbrG7XLcCjiWMAGFLRAWBOUF/D6m7gU6SJfKpmkxZd+Tbpyy9HX1+ZRj+ama4GAEgXvP6YPO/N1etqYo+mDbMdKazn+qxZ/ahTib/3PyQAjE38Q1MLSIe3m7iC5k/RexhwfsMx1nQU8MXgMdd0BenWw/NIa+8vJv2Smk86HPkA0vMFDgW2ydjHcuDBxCyHrMntSvqbN7GY9Lmr1cHA00inBrYjZm39G0j77duki/XuChhzKvYmPXnwkaSlXDca0euqnZYD15O+z08CzsnwGvMJ+hEQkXC6egRg4AcBvbWhSj7QpU+6fARAUn4hRwC8DXBq/oHur4l/FelZ7pKkHjAATM2lwOtLN5HRPaQLHu8o3YgkaTQMAFP3YSpbwCHQW/DBP5LUKwaA6fl70kV6XXIy6fkBkqQeMQBMz63AY4FrSjcS5OfAs4m5E0SS1CIGgOm7hrTgya2lG2nod6QlhJeVbkSSNHoGgJn5DWlVp7Y+Le984BC8lUySemtO6QZa7LekEPB94P6Fe5mO04GnA0tKNzIFGwKPAx5CWoBlCfB70j7vymkYSSrGhYCa2QY4ZYb9jrJWAR8CNsizG0JtBLyRtNrdZNvyZZqvHFmKCwFJasJnAQypEgEA0uNQX0FaArL0RD+sbgP+NtvWx9qOqT9adhHpCEHbGAAkNWEAGFKlAsDAwyn7XPRhdSJwn5wbHWhb0qJL09m+5aQ159vEACCpCQPAkCodACA9se8fSI9/LDnxX0p6cmBbbM7Mw9Ny0nUNbWEAkNSEAWBI1RAABjYlnRa4ltFO/BcBz6VdF3huQHpkZpPtblMIMABIasIAMKRqCgAD84AXAmcCK8kz6d8FfA04nPbd2jkb+Cox+6EtIcAAIKkJA8CQqjEArG4n4DXAd4GlNNvW64EvkpYnjtj/JYwBnyI2DLUhBBgAJDUREgDadJi4C64G3j9Rc4CHAQ8Edgf2AHYgnTrYFNiMtNrg7RP1R9J5/UtICxFdxESCa7F3AccEjzmXdIvgM4GvB4+tmdmU9HeRJnMn6UhmSWPAlgHjLKdFK6x6BEAl/F9if/m36UhA148AbAG8Fvgp6Ysw59/Z6k7dQno42bMY3anMBwIfIS0wFnkb91LSad+XAxtn6NtTAEPKANAOzybf9RCrV60hoMsB4CjgJvL/ba1u16+AB5HPhsDHgHtGsC3Xkp4fE8kAMKQMAPV7MrCC0X2R1BgCuhoAXkdapXFUf1ur27WEtNx6tHnAWSPelnuAFwVugwFgSBkA6vZI0vUMo/4iqS0EdDEAPB0nfyu+biR+IbP/KrQtK4CDgrYhJAC07ZYxtdeDSHc/bFLgtQcXBtYUArpkI+DDpIuopEjbAO8OHO8g0inIEuYAn6SiNVoMABqFXUgL/ZS8XdEQkM8zac9y02qfZ5GeBhrhtUHjzNQDqGiFVgOActsG+B7pFsfSDAF5PKV0A+q0WaRFzpraBHhMwDhNRWxLCAOActqc9KjkPUo3shpDQLy9SjegztszYIxdSKerSqvm82IAUC4bkJYn3rd0I0MYAmK1dSVKtcdWAWPU8j5dULqBAQOAcpgN/DfwuNKNrIMhIM7NpRtQ590YMEYt79ObSjcwYABQtDHgeODI0o1MgSEgxm9LN6DOi3iP/YE6luit5vNiAFC095AeUNQWhoDmTi7dgDrtHuA7AePcBXw/YJymqvm8GAAU6TWk1eBy+Dbws0xjD0LA0zKN33VfAy4v3YQ66zPADUFjvYe0CE4pvwBOK/j6a4lY4ciVAPUc8q0Edw7pFp7NJ/4510pdo1oxsIsrAT6W0S7xbPWj/ghsS6yPFdqWO0lPgI3gUsBDygBQxuHk+/L/NX/5/upCCOhiAIC01vkoHq5i9aNuBB5KvLnAN0e8LXcBzwjcBgPAkDIAjF7O9f2vYPgCQm0PAV0NAACHkS62yvW3sfpRZwA7k89s4G2kX+W5t+Vi4IDg/g0AQ8oAMFp7kyaiHB+aG4Hd1/HabQ4BXQ4AkB61+kLSr6xriH3OutXNugO4jHS+/zBG577AW4Gfk75zIrblbuBq4ETScwdyrP1vABhSpQLA9sA/kS5Su4n0hfcn4OvA0VT08IdAuwLXkefL4DamduivrSGg6wFAUl4GgCE16gAwBrye9R8Cvwz4qxH3ltM2wKXkmXTvAA6cRi9tDAEGAElNGACG1CgDwFzSandT7e1u0tGAttscuIA8k+09wBEz7KlNIcAAIKkJA8CQGlUAmAucNIP+VgHHjqjHHOYBZ5Fnkl1FswWE2hQCDACSmjAADKlRBICZTv5tDwGzSRe15JpgI57TvQn5AkpkCDAASGrCADCkcgeAppN/W0PAGPBp8k2s7w3stQ0hwAAgqQkDwJDKGQCiJv82hoB/Jd+E+nlSwIhUewgwAEhqwgAwpHIFgOjJf1BtCAGvI99E+k3y3SJZcwgwAEhqwgAwpHIEgFyT/6BqDgFHk299/58CG2fuv9YQYACQ1IQBYEhFB4Dck/+gagwBo1zfP6caQ4ABQFITBoAhFRkARjX5D6qmELA/sIw82/l70sqJo1RbCDAASGrCADCkogLAqCf/QdUQAnKu738D617fP6eaQoABQFITBoAhFREASk3+gyoZAnYD/jyFHmdSt5Ln0Z7TUUsIMABIasIAMKSaBoDSk/+gSoSAbcm7vv+jR7cp61RDCDAASGrCADCkmgSAWib/QY0yBGxBfev751Q6BBgAJDVhABhSMw0AtU3+gxpFCJgHnJ2x/xdm7n+mSoYAA4CkJgwAQ2omAaDWyX/1STRXCMi9vv9rMvUdpVQIMABIasIAMKSmGwBqn/wHlSMEjAGfydjzu4P7zaVECDAASGrCADCkphMA2jL5Dyo6BLwvY6+fI359/5xGHQIMAJKaMAAMqakGgLZN/oOKCgFvyNjjyeRb3z+nUYYAA4CkJgwAQ2oqAWAuec97rwIuzjj+SuD5U9jOyeRc3/8MYKMGvZU2qhBgAJDUhAFgSK0vAIziwT4vBzYEvp35dWZyJOAp5Fvf/1fAljPoqTajCAEvDhjHACD1lwFgSK0rAIxq8h+oLQQcDNyZqZcS6/vnlDsERIQwA4DUXwaAITVZABj15D9QSwh4MLA4Uw/XArtMoYe2yR0CmpYBQOovA8CQGhYASk3+A6VDQO71/fdZx2u3Xc0hwAAg9ZcBYEitGQBKT/4DpULAjsCVmV6zpvX9c6o1BBgApP4yAAyp1QNALZP/wKhDwBbAhZleaznw19PY9rarMQQYAKT+MgAMqUEAqG3yHxhVCMi9vv8LZrDtbVdbCDAASP1lABhSC6l38h8YRQjI9ct/HHh1g21vu5pCgAFA6i8DwJDaj7on/4HcISBXvSNg29uulhBgAJD6ywAwpE4P2p5hFTX5D7QtBHyWdq3vn1MNIcAAIPWXAWCEFT35D7QlBHyDdq7vn1PpEGAAkPrLADCiyjX5D9QeAk6n3ev751QyBBgApP4yAIygck/+A7WGgF/SjfX9cyoVAgwAUn+FBAAP605uHHgl8JERvNbdwJGkpxTWcn/9ZcBhpNX+NLllwOHAKcD+hXupxRhwCOnJhw8BtsNTSOqP5cCNwHmki9J/UraddYv4NdK1IwCj+uW/plqOBFwL7Jx3Uztn1EcCaj0CsA9wDuXfw5ZVS/0Q2J1YngLIVKUm/4HSIeAW4EHZt7KbNgd+ymj+TjUGgCcDt1P+M2xZtdUi4CDiGAAyVOnJf6BUCFiGh7GbGlUIqC0A7Et6/5T+DFtWrbUIuD8xDADBVcvkPzDqELAceNJItqz7RnE6oKYAMAacT9nPr2W1oc4ghgEgsFYBrwjYhmijCgErgWePaJv6IveRgKWj25T1Opxyn13LalsdQHMhAWBWQCNtNw68Cvhw6UaGGNwd8J3Mr3Mi8IXMr9E3S4DHkR7KlMPcTOPOxBGlG5BapJrPS98DQM2T/8AoQsDf8JePElaMwS2C52QYu6bb6vYt3YDUItV8XvocANow+Q/kDgFjwCcwBOSwBHgC8SGgpucybFe6AalFdijdwEBfA0CbJv8BQ0B75TgdMB44VlMblG5AapFqPi99DABtnPwHBiHg+5nGNwTkE306YFXQOJJ6qm8BoM2T/8DdpCVWL8o0/hjwceD5mcbvs8Hpr6NtjQAAHD5JREFUgAsDxloRMIakHutTAOjC5D9wJ/Bw4OpM488CPoMhIIclxOzX5QFjSOqxmgJAzl66NPkP3Ak8ALg40/izgP+HpwNyuD1gjJquAZDUQjUFgE0zjdvFyX/gLuChwJmZxveaAEnqqJoCwLwMY3Z58h+4m7SE72mZxveaAEnqoJoCQPTCJn2Y/AfuJF1hnusWQU8HSFLHjBFzLnEBsLjhGMuJXd70GuDGwPHaYBawG2kd+lyuIj0yWDO3Ic0fubyY9LmrwSKaPw/kqcC1Ab1IOe0JnNBwjCtJ39NNzCfggWA1LSd6D7EB4D4TpVg7T5QU6bekL0ZJI1LTKYC7SzcgSVJf1BQAIm6NkiRJU1BTAHBhE0mSRqSmACBJkkbEACBJUg8ZACRJ6qGaAoBrm0tT5+dFUiM1BYDGixpIPXJz6QYktVtNAcBFQKSp8/MiqZGaAsB3SzcgtUiu5z5I6omaAsBJwA2lm5Ba4Fbgi6WbkNRuNQWA24E3lm5CaoHj8IFMkhqqKQAA/CfwsdJNSBU7AfhI6SYktV9tAQDgZcCbgRWlG5EqshJ4F/B8vAVQUoAaA8A46YvuQcDnSM89l/rqNuC/gX1IwXhV2XYkdcWc0g2sw2WkXztzgF2AHYANSjbUMxuQ9vnmwFLgz/jI5lFaQboo9go8GlajzYA9gN2BBwDbAZsCm0zUYmDZRF0NXApcQrp9854C/UprqTkADNwDXD5RklTCBsChE3UI8FBg9gzGWQqcDZwBnAr8JqpBaSbGA2r+yLuWVItFNP8O2XXkXU/NI0kXJt9CzHflmvVr4LXAjqPaIDWykOZ/8ysC+pgf0Mc4QYMYAKT+6loAGAMOB84hz6Q/rJYDnyedTlC9DABDygAg9VeXAsDjSYflRzXxr1krgS8A9869oZqRTgWAGu8CkKRR25H0C/wU0h1IpcwC/o500eBxeOGzMjIASOq7o4CLgaNLN7KajYG3Aj8FdivcizrKACCprzYCPkx6rsLmhXuZzELgQlJIkUK14TZASYq2FemJivuVbmQKNiOFlD1JRwWkEB4BkNQ3O5Luw2/D5L+6fyY9L8UfbgrhG0lSn9wX+NHE/7bR80kXBh6Ny0KrIY8ASOqLrUlX+bd18h/4O+CjpZtQ+xkAJPXBxqRz/nuWbiTIS4A3lm5C7WYAkNQH/w48onQTwd4BHFa6CbWXAUBS1x0FvLB0ExnMAk7A5whohgwAkrpsZ+BTpZvIaFvSnQHStBkAJHXZh4FNSzeR2WHAM0s3ofbxNkBJXXU48JTMr3EPcC7wS+Ay4DZgGbAl6df5A4D9yb+c7weA7wJLM7+OOsanAUpqosanAc4mPVAn11P7fgw8j7RK31Tcj/Rwn2sz9vQvU947mqlOPQ2QoEEMAFJ/1RgAjgroaVidBxzYoK8NgZcBizP0thjYokFvWj8DwJAyAEj9VVsAGAN+FdDT6rUCeD3pyEKE7YDvBfc4DrwpqD8NZwAYUgYAqb9qCwCHBvSzet0KHBzY38AY8K7gXq8jLqRobZ0KAN4FIKlrnhs41q3AIcCZgWMOjJN+sb8hcMwdgMcFjqcOMwBI6pJNgCODxloBPBW4MGi8ybyXdLtilKMDx1KHGQAkdckTibvv/w3A2UFjrc9rgZ8GjfVU0sWG0joZACR1yWOCxvkF8KGgsaZiBelRv3cHjLUJsF/AOOo4A4CkLjkkaJz/C6wKGmuqLgc+ETTWoUHjqMMMAJK6Yntgj4BxfkBa3a+E9xFzFOCggDHUcQYASV3xwKBxjg8aZyauA74TMM5eAWOo4wwAkrpi94AxlgHfChiniS8FjLEtsCBgHHWYAUBSV0Qc/v8JMYfgmziDmOsPIvaHOswAIKkrtg8Y4/yAMZq6GfhjwDjbBYyhDjMASOqKiPv/Lw8YI8JlAWNsHjCGOswAIKkrpvpo3nVZFDBGhFsCxohaEEkdNad0A+uxEel+1oWkw1lzy7ajyt0FXE9aUe3HwMoRvvb2wJOAXUgXYDV1D3AD6al2pwF3BIzZdRsFjHFXwBgR7gwYY17AGOqwWgPAPODVpOUxfb61ZuI64F+AT5F3QZddSU90ewb5jqjdDnwQ+NeJf9ZwESFp44AxIkT8el8WMIY6rMZTADsCZwHvwMlfM7cj8EngZGIODQ/zBOAC4Jnk/SxtCvwT6cjGzhlfp+2WBoxRy4VzEX1E7A91WG0BYFPge8DDSzeizngy8DXij3YdAHyD0YbUvYHTga1H+JptEjHh1XLrXEQfSwLGUIfVFgDeDzy4dBPqnMOAVwaOtzHwFco8cW0X4CMFXrcNrgkY45EBYzS1EzG3NEbsD3VYTQFgN+CFpZtQZ72JuFMBLwXuFTTWTBwF7FPw9Wt1acAYD6P8CnqPDxhjnHpuaVSlagoAR1HvRYlqv/mkZ8VHeHbQODM1Rvq86C9FBIA5wN8GjNNExPvrGrwIUOtRUwB4dOkG1HkHBoyxOfCQgHGa8mlva7uImFs/X0oKWSU8mJjvwl8HjKGOqykA7Fi6AXXevQPG2JFyk8PqSp6CqNVtpLsymtobOCJgnJn4Z2LeX2cEjKGOqykAjHLRFvXTioAx7gkYI0ItfdTm9KBx3s/o1wR4LHBk0FhR+0EdVlMA8IpV5RbxHruOOsKqn5fhfhA0zk7Ah4PGmooFwGeCxroBTwFoCmoKAFEfXGkypwWMcQdwTsA4TUVsSxedAfw5aKxjgGODxlqXucAXgfsGjfdl8q5+qY6oKQB8Fdc7Vz7XEHdY9LNB48zUCuC/C/dQq5XE7puPkfeOi7nA50hrVUQ5IXAsdVhNAeDPwAdKN6HOejNwd9BYnyNdcV7Kx4ErC75+7T4XONZs4AvAqwLHHNgS+CbwrMAxLwLOCxxPHTceUPODeplDOhUQ0ZNlDerTxNsDWFxgW84h5ql3kRbRfLt2De7plICe1qyvEfesgANJIS66x+cF9afhFtL8b3RFQB/zA/oYJ2iQqAAAsAnpg5bjy9PqXx1PvsdI702eL/HJ6hTSr8ba1BgAHh3Q07BaDLyOmT+tbw/SEYVVGXq7Eh+ZnpsBYEhFBgBI98E+g3Qla44PsdXtWgX8CDiE/DYD3g7cnHF7LgGeQ12n7FZXYwAAODOgr8lqEen6gINZ/zMhtiGt7vcd0jUKuXp60TT3j6avUwFgbOIfmlpASsY53J+003cANsj0GuqGu4A/AT8Drh3xa88mPSFwV9Jh4qaLuawArgcuBC5uOFZui2j+I2A34q9reAjpfHjuJcbvAH5HWor4NuB20pGa7YEHkL7Dci8edQHwCOq4RbXLFtL8GosrSe/3JuaTPneNRSTP6CMAktqj1iMAAB8M6K32WgnsH7XDtE6dOgJQ6yFFSYrwVuDq0k1k9gnqWJtCLWMAkNRlS0hP91teupFMfgO8tnQTaicDgKSuO5e0DkTX3E4KN3eWbkTtZACQ1Afvp1sr5N1DWkDoktKNqL0MAJL6YBx4AfCN0o0EGAdeDHy7dCNqNwOApL5YSbof/+zSjTQwTlqIKOrJgeoxA4CkPrmD9OCdr5VuZAZWkn75/1vpRtQNBgBJfXM36Ql//1G6kWlYBhxBO3qeB/w98D3SwlwrgJtIq3O+gbRwnCrhQkCSmqh5IaD1eS7pavrSi/msqy4GHpRrBwR7EnAV696exaQjGW3UqYWACBrEACD1V5sDAMADqfO5I6tIv/g3zrfpoV5Mujthqtv3cdp3FNoAMKQMAFJ/tT0AQHpewCtIa/mXnvjHSbf3PTbrFsd6DjN7wuH/o10hwAAwpAwAUn91IQAM3Jt0hf1yykz81wIvo12P9T2cdJ5/ptvcphBgABhSBgCpv7oUAAbuC3yUdPHdKCb+K4GXsP5HC9dmf2L2UVtCgAFgSBkApP7qYgAYmAc8A/gW0zu/PZW6Dfg86Rf07FFtUKC9ifnbtykEGACGlAFA6q8uB4DVbU0KAx8HLmL6pwluJS1CdBzwaGCDkXYfa1fgOmIDURtCQKcCwJyARnLbg7TTtyPmA3MT6TaVHzP6J4TtABwA3Iv0y0KazArgBuCXpMlG5d0MfHWiIF04uCuwO+mzvelEbUK61e32ibqadFHf9SPuN5dtSff475Bh7BdM/O8xpIsKlVmNRwDGSAt1XBTU37C6jfSAkK2Cex/mUcCZzOwqWcu6DHge9f4y6ssRAMHmwAXkf8/XeiSgU0cACBokMgBsApwU1NdU6kbgwMD+VzdGOtznxG9F1Pep83SbAaAf5gFnMbr3e40hwAAwpKK+lOYAPwjqaTp1B/CwoG1Y3QcLbIvV7TqP+haGMQB032zgREb/fq8tBBgAhlRUAHhHUD8zqSuBjYK2A+DpBbfF6nZ9mLoYALptjLQ2Qqn3e00hwAAwpCICwA6kX+Ilv1hfE7AdkNLypYW3xepuLQd2ox4GgG57H+Xf87WEgE4FgBp26MAzKX9l/POCxjmAdGWwlMNc0nPtpdxeD/xj6SZIdwd8mjpCQGfUtDMPLd0AaWGL7QLGqWFb1G2PKd2AOu9o4N2lm1iNISBYTTvyvqUbmBDRRy3bou7yPaacnkI67D5WupE1GAIC1bQTa+klYknOWrZF3dXGpWPVDgcDXybdlVUjQ0CQmnbgtaUbmPCngDFq2RZ1V8T7VFrT3sDXib0jKgdDQICadt7ZpRsgXZ0Z8cVaw7ao284s3YA6ZzfgVGDL0o1MkSGgoZp23FdIT9sq6b+DxjmT9KAMKYdx4Eulm1Cn7ECa/LfPMPaKDGMOvAD4FHXNZa1R0067gpTmSrmJ9GyACMuBtwaNJa3pi8CvSzehztgC+C551mJYSbrF+w0Zxh54IR4JmLGIRRqiVgLcFPhVUE/TqXuAJwZtw8AY6YhC6QU0rG7VlaTH0tbEhYDaax7plGWO9+oq/vfpfpDWFMj52RjFYkGdWgiIoEEiH1CyA/CzoL6mUktJy/bmsBHwhRFui9Xt+iWwE/UxALTTbPI+eG3YyqptDwEGgCEV/YSyjUiHjCK+WCarVaQ3f+4V+8ZIq7b9IeO2WN2uJaRTSrU9BGjAANA+Y6TJMtd79p3reO02h4BOBYCxiX9oagGwOGCcNW0IHELa6dsDGwSMeRNpMv4eo71QbxawH/Ao4F6UX/ZYdVsB3ABcCPwQuLNsO+u0iOY/AnYjnd4oYRawDymEbEra778Abi7Uzyj8G3HPPlnT54Hns+655fXAezK9PsB/AseQfuhFWkh6ImcTV9L8WR7zSZ+7xiISV43PKJc0Gm09ArAp8Bbgz0P6uYf0aPJHFegrtzeS79f3yUx9AaE2Hgno1BEAggYxAEj91cYAsDtwyRR7O556V8WbrueSfhXnmHDPYPoLCLUtBBgAhpQBQOqvtgWARwK3TrO/E0lPYWyzp5BOLeWYaH/FzBcQalMIMAAMKQOA1F9tCgALG/T7bdJ1SW10MOk6khwT7OU0f4pqW0KAAWBIGQCk/mpLAGgy+bc5BDyYdJF2jon1WmDnoD7bEAIMAEPKACD1VxsCQMTk38YQsBvDL3KMqFtJd09Eqj0EGACGlAFA6q/aA0Dk5D+oNoSAHUm3nOWYSO8g3x0SNYcAA8CQMgBI/VVzAMgx+Q+q5hCwBWkNiRzbvRx4Uub+aw0BBoAhZQCQ+qvWAJBz8h9UjSFgHvAj8mzvKtIiP6NQYwgwAAwpA4DUXzUGgP2B2wL6mkrVFALmAt8h37a+enSbAtQXAgwAQ8oAIPVXbQFglJP/oGoIAWOkJXBzbePbR7cpf6GmEGAAGFIGAKm/agoAJSb/QZUOAe+fpK+IOn6E2zFMLSHAADCkDABSf9USAEpO/oMqFQLePMN+p1LfoI6lkGsIAQaAIWUAkPqrhgBQw+Q/qFGHgP+TaTvGgdOZ/vr+OZUOAQaAIWUAkPqrdACoafIf1KhCwFPJt77/L5n5+v45lQwBBoAhZQCQ+qtkAKhx8h9U7hBwCHWv759TqRDQqQBQw3md9dkUeBDpzbhB4V5Ut7tIy57+Bri7wOvfB9iFmC/OFcCNwEWkCU5r2x84Bdi8dCOT+GvSUwSPJP79+BDgJPIcnr8OeBxwQ4axo7x34n/fk2n8F0z87zGktQ86KyIt5TgCsB/wLdKXeukkb7WrlgAnkJ75ntts0pfELzNty3LSJHfgCLZlpkocAaj5l/+aFX0k4H7A9Zl6vZUULtpi1EcCOnUEgKBBIgPAbOADpNRV+oNrtbtWAK8kn3sB545we46nzqNgow4AbZr8BxUVAnYE/pCpx2XkW98/p1GGAAPAkIoKAGPAfwX1ZFmDOo542wNXF9iWk4l5rnmkUQaANk7+g2oaArYg75GmJzborbRRhQADwJCKCgAvD+rHslavVcR+uY0BZxfcnjcHbkuEUQWA3JP/5cDbyHv08UTScr3TtTF51/d/3gx6qs0oQsDDA8YxAAyxJXBLUD+WtWb9jnR6KcKRhbfldtIRiFqMIgDknvwvI53SATiWvCFgukcC5gLfzdjPq6bRS+1yh4CTA8YwAAzxoqBeLGuyOpgYp1awLa8J2pYIuQPAKCf/gVpCwBjw2Yx9vG0KPbRN7hDQtAwAQ3wtqBfLmqwibhnaiHRLV+ltOS1gW6LkDAAlJv+BGkLABzK+/ifX89ptVnMIMAAMcV5QL5Y1WX2Z5natYDvGgd8HbEuUXAGg5OQ/UDIE/FPG1/06cafEalVrCDAADPHboF4sa7L6Js3tVcF2jAPXBmxLlBwBoIbJf6BECDg24+v9cMjrdVWNIcAAMMQPgnqxrMkq4pBn1Aevaf0iYFuiRAeAmib/gVGGgKcB92R6nXOBzaa57W1XWwioJgDUdD/xOaUbUOf9NGCMxcClAeM0FbEtNcq9vO/lpDX0p3sE5XjgJaQvzhwGywYfBnyJPIfnLwcOB5ZmGLtm7wXeULqJWkUkmogjAA/G1f+sfLUM2IoY/1LB9tS0YlvUEYAaf/mvKfeRgFxP9vsTsFPDbW+7Wo4EVHMEgKBBohYC+mpQP5a1Zr2TOPOJmfRmWqcEbkuEiH1xJPVP/gO5Q0B03Uy6dkV1hAADwCS2o8zyqla36wLSSmqRngasLLAtN5GeOFiTiACwNGCMySpy8h9oSwhYBvxV8La3XekQYABYh72AK4P6sqxfADuQx98z2jUB/gTsm2lbmih5NGR9lWPyH6g9BLR9ff+cSoYAA8B6bE266CbX+TCr+7WMdNh/HnntR7qANee2rAQ+R13L/66u1gCQc/IfqDUErASOyrjdXVAqBFQTAMYm/qGpBaSro6PdG3gK6QlM21Pno1BVj7tIV3efQ7qt6pYRve4Y8DDSFda7kk5lNbUCuAG4kLR+wVUBY+ayiPgfAU3N9Gr/mTgW+ATpfVCLVwEfKt1EC7yemBVCp+NKYLeGYwyuQ2osItHU9uGXNDq1HQEYxS//NdV0JOC4vJvaOccx2r9PNUcACBrEACD1V00BoMTkP1BDCPhY9q3spuMwABgAJE1bLQGg5OQ/UDIEfAmoaXG3tjkOA4ABQNK01BAAapj8B0qEgFPxGqkIx2EAMABImrLSAaCmyX9glCHgXGDT0WxWL+S+O+DKgB4NAJKqUDIA1Dj5D4wiBFxMum1asY4j39/shoD+DACSqlAqANQ8+Q/kDgF9erTvqB1Hnr9ZxMOYDACSqlAiALRh8h8Y5aOEFSvH6YC7AvoyAEiqwqgDQJsm/wFDQHsdR+zf6u6AngwAkqowygDQxsl/wBDQXscR93e6I6AfA4CkKowqAFxOeyf/gVeSdx+dCMwd2db0S9TpgIglfA0AkqowigDQ5l/+a3oHefeVRwLyOZ7mf58/BfRhAJBUhdwBoAu//Nf0CfLuM48E5LGQ5n8bFwKS1BlLcPKfiXdiCGgbA8CQMgBI/XUXeSawLh32n4wXBraLAWBIGQCk/rqH+Imry7/81/QK8oYAjwTE6VQAmBPQiKR+Gwse7xrg5cD2E9V1PwY+ALya+H0JcARwCvAmUljTzO1ZuoFIY0wcBmhoAbA4YBxJ7bMSH0MrTdWVwG4Nx5hPwO2EfmglNbWqdAOSps8AIKmpFaUbkDR9BgBJTS0v3YCk6TMASGrKUwBSCxkAJEnqIQOAJEk9ZACQJKmHDACSmvIiQGnqqvm8GAAkNXV96QakFrmudAMDBgBJTV1QugGpRar5vBgAJDV1UukGpBap5vMyi5hnAeR4gIWkdvgOcH7pJqQWOBU4J2CciDl3fBZwR8BA8wLGkNRO48CLgGWlG5Eqtgj4h6CxNgkYY9ksYGnAQJsHjCGpvS4EngncXroRqUKLgKcBvw8aL2LOXTqLmA/sTgFjSGq37wAHAD8p3YhUkdOA/YAfBY65c8AYS+YAiwMG2gM4JWAcSe32G+BRwMGkXzwPBbYD5hbsqU82Jh0engvMBlaS7jtfBtxZsK8+WU66NfY80gV/Eef817R7wBi3zgGuAB7ecKD9ApqR1B1nTpSkePsHjPH7WcClAQMdgncCSJKU2yzSEbamLosKANsTk0gkSdLkHg1sEzDOJbNI5+wiPC9oHEmSNNxzgsb5LaRD99eT7uVtUrcTk0okSdLatibdut90vr4eGBusBHhWQGObAK8MGEeSJK3ttcCmAeOczmqrAL+Y5olinLSq4K4BzUmSpP+1G+lWzoi5+pjVB94RuCdo4O/iHQGSJEUZIz1HIGKOXkG6cP8vfD9o8HHg1aGbLklSf72euPn5O8Ne4NmBL7AcOCxs0yVJ6qcnkn61R83Pzxr2IhuTlgWOepGlwCODdoAkSX2zP+kOu6h5+RbW8fTetwe+0PhE409svg8kSeqVxwBLiJ2T37quF9yKmHsM1zwd8Bq8MFCSpPUZI93uF3nYfxy4DZi/vhd/X/CLDup7eIugJEmTuR+xF+SvXu+eSgMLgBszNXDHRBOuGChJUrIt8F7i7vNfs64HtphqMy/I1MSgbgf+g/RQA08NSJL6Zgw4EPgUsIy8c+7RkzUw2f/9bOBRzbZvSm4EzgDOBS4GriYFhKUjeG1JknLbjLSE707AnsB+wCGM5mj4WROvNb7m/2Ndv753B84jNS5JktplCbAQ+P2w/+esdfyHl7HGesGSJKk1Xsokkz/A7PX8xxcB9yIlCEmS1A4fB96zrn9hKhfgbQB8G3hcREeSJCmrM0iL8N29rn9pqlfgbz4x4L4Nm5IkSfn8GjgIuHV9/+J0bsHbnnRnwP1n2JQkScrnMtLt9TdO5V9e10WAa7p+YuALZtCUJEnK5zek2/2mNPnD9AIAwA2kQwunTvO/kyRJeZxBWrfnuun8R+u7C2CY5cBXSUsXeneAJEnlfAJ4Dmmp/WlpugzvEcBngC0bjiNJkqZuKXAs8MWZDhCxDv/uwKdJ1wdIkqS8ziIt1DfpIj9TMd1rAIa5jHRdwPNI1whIkqR415Pm2kNoOPnDzK4BmMyvSKcDxoAHAxsGji1JUl8tBT4IPAv4edSguR7FuznwEuB1wIJMryFJUpctIV3k96/AoujBcwWAgY2Aw4HnAk8A5mR+PUmS2mwVcDpwAnAisCzXC+UOAKvbAXgycCjp/MV2I3xtSZJqdT3pXv7TSc/euX4ULzrKALDm6+4FPAjYA3gAsAuwFbDpRG1WqDdJkiItBW6fqFuAK4FLSBfR/wb4XYmm/j8CbsIkPWf8GgAAAABJRU5ErkJggg==;imageBackground=default;" vertex="1" parent="1">
          <mxGeometry x="230" y="1358.17" width="60" height="60" as="geometry" />
        </mxCell>
        <mxCell id="TAAMW9c03Df91oIx33Ai-27" value="&lt;b&gt;Chunk 1&lt;/b&gt;" style="rounded=1;whiteSpace=wrap;html=1;dashed=1;" vertex="1" parent="1">
          <mxGeometry x="390" y="1290" width="60" height="30" as="geometry" />
        </mxCell>
        <mxCell id="TAAMW9c03Df91oIx33Ai-28" value="&lt;b&gt;Chunk 2&lt;/b&gt;" style="rounded=1;whiteSpace=wrap;html=1;dashed=1;" vertex="1" parent="1">
          <mxGeometry x="390" y="1340" width="60" height="30" as="geometry" />
        </mxCell>
        <mxCell id="TAAMW9c03Df91oIx33Ai-30" value="&lt;b&gt;Chunk n&lt;/b&gt;" style="rounded=1;whiteSpace=wrap;html=1;dashed=1;" vertex="1" parent="1">
          <mxGeometry x="390" y="1450" width="60" height="30" as="geometry" />
        </mxCell>
        <mxCell id="TAAMW9c03Df91oIx33Ai-32" value="" style="endArrow=none;dashed=1;html=1;dashPattern=1 3;strokeWidth=2;rounded=0;strokeColor=light-dark(#696969, #ededed);" edge="1" parent="1">
          <mxGeometry width="50" height="50" relative="1" as="geometry">
            <mxPoint x="420" y="1430" as="sourcePoint" />
            <mxPoint x="420" y="1380" as="targetPoint" />
          </mxGeometry>
        </mxCell>
        <mxCell id="TAAMW9c03Df91oIx33Ai-36" value="" style="rounded=1;whiteSpace=wrap;html=1;dashed=1;" vertex="1" parent="1">
          <mxGeometry x="520" y="1290" width="210" height="190" as="geometry" />
        </mxCell>
        <mxCell id="TAAMW9c03Df91oIx33Ai-37" value="&lt;b&gt;What sectors does CDG Capital Gestion invest in ?&amp;nbsp;&lt;/b&gt;" style="text;html=1;align=left;verticalAlign=middle;whiteSpace=wrap;rounded=0;" vertex="1" parent="1">
          <mxGeometry x="540" y="1310" width="160" height="30" as="geometry" />
        </mxCell>
        <mxCell id="TAAMW9c03Df91oIx33Ai-38" value="&lt;b&gt;Chunk 1&lt;/b&gt;" style="text;html=1;align=left;verticalAlign=middle;whiteSpace=wrap;rounded=0;" vertex="1" parent="1">
          <mxGeometry x="545" y="1371" width="160" height="30" as="geometry" />
        </mxCell>
        <mxCell id="TAAMW9c03Df91oIx33Ai-39" value="&lt;b&gt;Chunk 3&lt;/b&gt;" style="text;html=1;align=left;verticalAlign=middle;whiteSpace=wrap;rounded=0;" vertex="1" parent="1">
          <mxGeometry x="545" y="1401" width="160" height="30" as="geometry" />
        </mxCell>
        <mxCell id="TAAMW9c03Df91oIx33Ai-40" value="&lt;font style=&quot;font-size: 8px;&quot;&gt;Answer based on the below text:&lt;/font&gt;" style="text;html=1;align=left;verticalAlign=middle;whiteSpace=wrap;rounded=0;" vertex="1" parent="1">
          <mxGeometry x="545" y="1345" width="160" height="20" as="geometry" />
        </mxCell>
        <mxCell id="TAAMW9c03Df91oIx33Ai-41" value="" style="whiteSpace=wrap;html=1;labelBorderColor=none;rounded=1;" vertex="1" parent="1">
          <mxGeometry x="80" y="1691.17" width="90" height="120" as="geometry" />
        </mxCell>
        <mxCell id="TAAMW9c03Df91oIx33Ai-43" value="&lt;b&gt;Documents&lt;/b&gt;" style="text;html=1;align=center;verticalAlign=middle;whiteSpace=wrap;rounded=0;" vertex="1" parent="1">
          <mxGeometry x="87.83" y="1661.17" width="74.34" height="30" as="geometry" />
        </mxCell>
        <mxCell id="TAAMW9c03Df91oIx33Ai-45" value="" style="shape=image;verticalLabelPosition=bottom;labelBackgroundColor=default;verticalAlign=top;aspect=fixed;imageAspect=0;image=data:image/png,iVBORw0KGgoAAAANSUhEUgAAAgAAAAIACAYAAAD0eNT6AAAABHNCSVQICAgIfAhkiAAAAAlwSFlzAAAOxAAADsQBlSsOGwAAABl0RVh0U29mdHdhcmUAd3d3Lmlua3NjYXBlLm9yZ5vuPBoAACAASURBVHic7d15uF1Vffj/901CBkKABBllBkFBrQUZVagMKihqbZ0VWmprtV+VqtXaVq2KrUOts7YOPxWp8wRixQEogwMIIijzFECEMIaEAJcM9/fHSh5JvPeec+/+rL328H49z+cpT03W/uy1Ts7+nL3XXmuEMmYAzwWeCjwO2AVYBMwBZgIja0OSpLYbWxurgVHgbuAG4FLgTOBUYE3dSdV5kd0XeAPwFGA7UhEgSVLfrQFuAc4BPgBcXMdBcxcAmwNvA14CbJ35WJIkdcEy0l2BNwJLch0kVwGwB/Ap4JCMx5AkqcvGSI8Jjl37f0NFX5wfBXwF2Ce4XUmS+moMuAh4EXBdVKNRz+FnAP8NXIkXf0mSIo0ATwSuAb4FzIpqtKqjSb/6FwS0JUmSJrcMeD7wwyqNVL0D8EngNLz4S5JUl02B04FPVGlkuncANgfOJ032kyRJZVwJHEC6KzAl0ykAtgYuJy3cI0mSyloKPB64eSp/aaqPAB5PWr3Ii78kSc2wOXA1acG9oU3lDsATgAuAjaZyAEmSVIuVpDfxfjPMHx62AHgk6fWDedNMSpIk5fcg8GjgxkF/cJgCYBFwPbBZxaQkSVJ+S0mb7C2d7A8NMwfgZ3jxlySpLTYHfjLoDw0qAD6Cr/pJktQ2e5HW6pnQZI8AngH874A/I0mSmmkMeDrwo/H+x4ku7jNIzw7qWOFvDendxV8CFwK/Au4Cbq/h2JIk5bYVsAVphv6+a//v9sTtxzOZe0lz+dYM+xc+T6occsUa4DLglRVPTJKkNpoB/C1pYb2c19sx4NPDJvUoYHXGRM5ZewxJkpTm2v2EfNfd1aS3Aga6KFMCtwEHT7VXJEnqiUNIj79zXIN/Pujge2Q68Leo51mHJEltNgM4hfjr8Bpgt8kOfF6Gg/5TlZ6QJKmH3kC6aEdej/9vooNtFXywNcDxlbtAkqR+egXx1+VHjHegTwYeZAx4U1AHSJLUV28h9tr8sfEOcmfgAb4VduqSJPXbd4m7Pt+xYeP7BjZ+G074kyQpygzShTvqOv2Ehzf+5cCGDwk/dUmS+u1g4q7TJz284ZuDGj0nw0lLkqS0O2/EtfrGdQ3OIG7lP3cOlCQpj0cR81bAatY+qn9uQGNjpLX9JUlSPlcQc80+ZgZwRFBSHwpqR5IkjW/c1/im4XBIKwOF3U6QJEnZRD22P3MGQ+4QNMBNTGGvYUmSNC1rgFsC2tllFrBFQEMXB7QxnicDzyOtU7AVMDvTcabqbtIsytOBrwP31nTc3YHnA4cCjwQ2rum4g9wP/BY4m9Qf19V03M2BPweeAewELKrpuIM8RNrR60LSolg/KZuOpI75JbBDxTa2hPRlVfVWQvSGP3sCZwbkVUfcBbwGGAnug4dbAPw3sLIB5zsoVpKWld4kS08kI8BrSX1f+nyHiTPwDRlJcd5O9e+lUYh5lvDMwBP7E+CegJzqji8CMwP7YZ3tgEsbcH5TjUuAbTP0x0zg5Aac31TjbtKdG0mq6jlU/05aTUAjY6Rb9BH2pJ0X/3Xx/qB+WGcecEEDzmu68XNgbnCf/GcDzmu6cTfpPV5JquIAqn8frSGgkTFgt6CTOiMon1KxBjgwqC8A/qUB51Q1/jGwP/Ynfn/suuOswP6Q1E+7EfN9FNJIxJsETw7KpXScEtAXkH45L23A+VSNu4E5QX0SuSNWyTg4qD8k9dMuBHwXNend/eeVTiDI04iZAHc4sFlAO6UtBA4LaGcBcGRAO03Qlc+6pBZrUgGwT+kEgswF9gpopyv9ATHnsjdxdxJK69LYSmqpJhUAW5dOIFDE7Pcu9cc2AW10qT9yvB0hSVPSpAKgKYv8RIg4l40C2miKiP7w8yFJgZpUAEiSpJpYAEiS1EMWAJIk9ZAFgCRJPWQBIElSD1kASJLUQxYAkiT10KzSCQR7OXBFxTY+Qdp0pgs+CnyhYhvHAa8JyKUJLgBeXbGNx5C2fpakVutaAXAFcFHFNpZFJNIQt1C9P46ISKQhllG9PySpE3wEIElSD1kASJLUQxYAkiT1kAWAJEk9ZAEgSVIPWQBIktRDFgCSJPWQBYAkST1kASBJUg9ZAEiS1EMWAJIk9ZAFgCRJPWQBIElSD1kASJLUQxYAkiT10KzSCQT7BGnP9yr2iUikIV4BHFGxjZ0D8miKfYAfVWxj04hEJKm0rhUA+5dOoGF2XxtKFlG9IJKkTvARgCRJPWQBIElSD1kASJLUQxYAkiT1kAWAJEk9ZAEgSVIPWQDkMVY6gQ6yTyUpUJMKgLtLJxDoroA27I/13RPQRlNE9IckVdKkAmBx6QQCLQ5o48aANppicUPaaIrFpROQpCYVAD8onUCQa4AbAtr5Pt257f3DgDauA64OaKcJvl86AUlqUgHwDbpx2/u/gtq5kerr1jfB6cT94v10UDsl3Ql8q3QSkgTpV2bV2CUol9cE5VMqrgLmBPUFwBOABxtwXtONB4HHBfbHXNIdltLnVSVeFdgfkvppF2K+j0IaiSoARoAvBuVUd9wDPCaoHx7uL4E1DTi/qcYa4NgM/bEXsLQB5zed+EKG/pDUP50sAABmAu+nXRe9q8hz8V/n+cDyBpznsLEM+LMsPZHsRZoPUPo8h401wHtJn21JqqqzBcA6TwROAR4IyjFHXAm8ntjb/hPZFvgYcEeN5zfVuB34CLBNpj54uLnAG0jFV+nznigeAL4N7JupDyT1U0gBMLL2P6ralZiZ7+OZD+xNugDOznSMqbqTNLEt1zlPZibpF/AOpL5pghXATcAVwOoCx98V2BnYosCxx/MQcCtwGalvJCnSLsD1EQ1F/NLJcQdAkiT9oZA7AE16DVCSJNXEAkCSpB6yAJAkqYcsACRJ6iELAEmSesgCQJKkHrIAkCSphywAJEnqIQsASZJ6yAJAkqQesgCQJKmHLAAkSeohCwBJknrIAkCSpB6yAJAkqYdmBbXzbmB5UFuSJGliCyIaGQHGIhqSJEnt4SMASZJ6yAJAkqQesgCQJKmHLAAkSeohCwBJknrIAkCSpB6yAJAkqYcsACRJ6iELAEmSesgCQJKkHrIAkCSphywAJEnqIQsASZJ6yAJAkqQesgCQJKmHZgW18w7ggaC2JEnSxOYBb49oaCwgFkYkIkmSBlpIwLXbRwCSJPWQBYAkST1kASBJUg9ZAEiS1EMWAJIk9ZAFgCRJPWQBIElSD1kASJLUQxYAkiT1kAWAJEk9ZAEgSVIPWQBIktRDFgCSJPWQBYAkST1kASBJUg9ZAEiS1EMWAJIk9ZAFgCRJPWQBIElSD1kASJLUQxYAkiT1kAWAJEk9ZAEgSVIPWQBIktRDs0on0FJzgf2AvYA9gD2BbYBNgPlr4x5gxdq4EbgSuAq4BLi8/pS11sbA/sBjSOO2J7AlsIA0bvOApcB9pLG7gd+P3a+Aq+tPWVOwJ/CEtf/30cDOpHHdBNgceIA0rsuB20njeeXauAC4v/aMtc7ewONJ47YnsBO//z5dyO+/T+8DbiP9m7yK9H36C2C0/pTbbywgFtaedf32BP4ZOIP0JVKlv24FvgT8BbBZjefQV48D3g6cTfqSqDJ2NwMnAS8lfTGprE2Al5HG5LdUG9sHgf8D3ka6GCmvzYHjgS+TLuhVxu5+4MfAP5F+lHXdQmKu3RYAk9gU+Dvg58T000Qf3C8DzwBG6jmtXlgE/D1wMfnGbjnwBeCpNZ2Tfu8w0kX/PvKN70XACXT3+62EEeAo4KtU/yE1WfwMeDXpzl4XWQBktAXwr8Bd5PuAjhe/Bo4FZmY/w+7aijR2S6l37C4mjZ3zavIZAY4hb0E+XiwHPgxsl/8UO2sGaewupN6xuxd4D+kHQZdYAGQwm3QLaTn1fkg3jMtJv3A0vHnAieT9VTFM/BI4KPO59tGTSXMwSo7t/cA7SHOANLwjSXMsSo7dMuBNwEaZz7UuFgDBDgOuoOyHdMP4ErBtzpPuiGcB11N+vNbFGuAzpDtJqmZL4HOkPi09ruviWtJtbE1uO9Kt/tLj9fC4DDg050nXxAIgyCzSLePVlP9wjhd3AEfnOvmWm0u6NVt6jCaKJaRfP5qeQ4FbKD+OE8VJpDtP+kPPAu6k/BiNF2tI3xttvhtgARBgR+CnlP9ADvOBfQ++tvlwe1D+lvAwsZL09ogTPIc3g/TWxirKj9+guAjYLU83tNIs4P00647NRHEesH2ebsjOAqCivUmvdJX+EE4lTsVfHJDWYLiD8uMxlTiZdv/iqMts0lsxpcdrKnEXzvsAmAN8k/LjMZX4HfBHOTojMwuACg6gubenBsXP6Pez5cNJE3pKj8N04sd097WkCPOB71N+nKYT99HveQGbA+dSfhymE3eTJpm2iQXANB1MWk2q9IeuSvyCfl5Ink71hXxKx1k4i3w8c0mL8JQenyoxSj/nfCyg/tf7ouM+4MDojsnIAmAa9qb+d/tzxRmkW259sT/lX8+MilNwPsfDzQS+QflxiYgV9OtxwGzgB5Tv94i4h7QUcRtYAEzRdlRfKrRpcXJoDzXXbrT3kc1E8dHQHmq3/6L8eETG7aQ9CLpuBPgK5fs7Mm4Cto7spEwsAKZgBun5a+kPV47428B+aqI5tP/24kTx0sB+aqsXUX4ccsQFpF/HXfZayvdzjjiL5q/GagEwBe+i/IcqVzwI7BPXVY3zMcr3ca5YTtr5rK8eRXsndA4T/xnXVY2zL+m7p3Qf54q3xXVVFhYAQzqA5i7yExW/oZuvmD2N8n2bO35GP/cPmEH6lVy6/3PGGrq5pPdsmrdqanSsIhU5TWUBMIQZwPmU/zDVEW8K6rOmmE359cPrir8O6rM2eTXl+72OuIruTdb9Z8r3ax3xC5r7KCCkABhZ+x9VLSLNoGya/0f+yVaXA2eSdoO7mrT71ArSAG0JPIY0K/ipwCMy5rFi7bFuzniMOr0VeGfmY1xCet53CWnslpE2E9oc2IbUnweTxm7zjHncRXoUcGfGYzTJVqTiLucPh3tIY/tT0q/VJaQdIueRtvneA3gCaWxzz/z+J+DfMx+jLjuT1tPfOOMx7iCN3c9IY3cnaTznA5sBe5LG7nDSv9GcXkWapNo0C0nrF1QWUSk18Q7AfNJs3ByV4QrSWtKPnUI+G5G2w/xhppzGgE9PIZ8m24J8r/zdC7yXdAEY1hzgz4BzMuU0BrxvCvm03X+Srx//D3geU5uAtydp+dpc8xHupZnfkdPxOfKN3emkPQSm8ors44CPkG9tl9to5uqrPgIY4ATiPwzrdnnbqmJuTyLdMYjObxTYoWJuTfAO4vtmFemLoupn9QjyPP9cTj9WeNyStOhKdP9dRvo1X8Ui0qTTHHsQNH1S2TB2Bh4ivm8uovoiPFuTb9fI11TMLQcLgEnMIf6d/+id3WYB/0b8BMW2v1++KenWVmSf3EQquqLMIRUT0V80uR95NMGJxPbZGuBDxL5y9xTivz/uov2rd36c2D5ZTXpDK/I5+zOIv/N7E817pdMCYBIvIPYDcC35dvx6Lum5c1Suy4FNMuVah1cSO3a/Ji0ClcOxpN3+onJdQrdXCJxFuqUa1V+rgFdkynUb4JeBuY5lzLUO84l9LDdK+p7OYSfiJxD/WaZcp8sCYBLfJW7gr6L6Lf9BnknsrbU2LzBzHnH9cDFp0lBOLyb2Ls7RmfMt6VnE9dNq0iJCOW1O7JbTZ2fON6eXE9cPD5H/c74VaWJvVM7fyZzvVFkATGAr4i6mdwG71JT33wTlPEaaTNNGuxH3DO8W0q+4Orw5KOcx0la4XfU14vrpjTXlvC1py9iInNdQ3/dJtB8RN3Z/VVPOuxL3OHGUvG9xTZUFwASOJ+6D+uyac/9SUN4rSc/S2+YNxJz/auDQGvMeAb4XlPtyurmo02ziJv99l9TndXkqcXd5Tqgx7yibEzcx8qSac39uUN5jwHE15z4ZC4AJnEzMOX217sRJs8DvmGa+G8Yza849QtRFtMR7uzsQd4E7uObc63AIMX2zgvSMt26fmWa+G8YpdSce4DnEnPtdlPkV/c1p5rthfL7mvCdjATCBW6h+Pispd6vuH4bMcVB8oO7EK5pFzHvYK8g/Z2Mi/zZkjoPiX+pOvAZvJ6Zv3lV34mttA9w/ZI6TxVLaN9HzQ8SM3evrTnyt3YiZrNukRdYsAMaxKzHnU3Kb3QWkVa+qnsP5dSde0b7EjF3J1yC3JGaDlLbO4ZhMxAJYD1D2OWzUa3BPqDvxin5B9XO+m/QmQSlRj1d3rjnviYQUAF3bhCRqZ7XPBrUzHcuBrwe007Zd5rowdneQnk9X1baxG0bEkq2nUHa55M8FtdOm8R0hJt+vku7OlRI1dnsGtdMIXSsAIgbnLsq/rvPNgDY2Jd/77zlEjN31pNe2SooYux3Iu9Z63TYBHhnQTkTfVnEhsDignTYVANsRs65I6bE7k5j9ato0dgN1rQCYyvruEzmb9LpOSeeRnllVFdEfdYnI9ayANqqKyGEG8KiAdpriUVSftT9GWue/tIjx7du/y4dImzKVtJqYH3ZtGruBulYARDwfvCSgjapWANcFtNOmteW7MnZL1kZVbRq7QSLO5VbSI5bSLg1oo01jG/Hv8hrSBMrS+jZ2A3WtAIi4VXV9QBsRrg1oo01rjzt262vT2A0SMbYRBXGEiDzatEaHY7e+No3dQF0rACK+NJcGtBEhIo82XUQcu/W1aewGiTiXewPaiNC3sXXs1temsRuoawVAxPu1qwLaiBAxB6BNK8o5dutr09gN0qWxfSigjTaNrWO3vjaN3UBdKwDuC2ijKTvpRVSaywPaqItjt742jd0gXRrbiFvAbRpbx259bRq7gSwA/lDE60oRdghoo00fVsdufW0au0G6NLbbB7SxLKCNujh262vT2A3UtQIg4llTxIIlVY0Q8158mz6sXRm7OcQsI92msRsk4lx2I20oVFrEe+BtGtuIXB9NvZs3TaRvYzdQ1wqAxQFtPDmgjaoeR9qBq6qmzIofxuKANpowdgcS85ywTWM3yA0BbcwG9gtop6qnBLQR0R91ich1Ec0ozvs2dgN1rQC4MqCNvSiz29jDHRXQxiradRGJGLsDKP+ebsTYLSVmLYGm+B0xv5yODmijii2JKUKuCmijLteSFtGpqvTY7UrMHYA2jd1AXSsAIgZnBHh5QDtVvCygjeuJmfVal4ix2wh4UUA70zUDeElAO536klkr4pxeStnvrBcRMyu+TeM7Ssyv3i58p0K7xm4oETskNWU3wLmkHcOqns8tpGe5JTxtyBwHxZfrTryiRaRfGlXP+ypgZs25r/PCIXMcFJ+oO/Ea/BcxffPndSe+1kzSinZV819Fc74vh/VVYsbu8LoTX2seaSXJqvmvoNx1YUNuBzyBM4g5p9fVnTjp7sPPppnvhvHXNece4ZfEnPuxdSdOuvtw2TTz3TBKXeRyegExfXMpMb/Cp+r4aea7Yfyi7sQDvJKYcz+PMpMB3zDNfDeMH9ad+CQsACbwz8Sc01Lq303vr4JyHyPNmm6b/yDm3G+j/s/kG4NyX03ZPe9z2Yq0yVZEH/19zbkvIs3JiMj9vTXnHmEP4r6X/qLe1Hkk6Q2jiNzfUnPuk7EAmMATifuwnkl9t5P3IE2Uisj76ppyjnYkcWP3ber7tbEP8GBQ3ufXlHMJFxLTRw8AT6gp5xHglKC8x4DDaso72nXEnP+91LfT5UzSDpJRY/fHNeU9DAuASVxB3KB/rIZ8twjO+W015JzDTNL8i6h+eFcNOT8SuDEw59fUkHMpJxDXTzdQzx26EwNzvpn2Trx+B3H9cDn1vK3z8cCcf1NDvlNhATCJtxA38GPAe8j3a3JL0nPBqFzXkF55aav3ETt2/5gx1+2Je+4/RnprY8uM+Za2NWmfhMgv5ZyrzP1TYK7rvkfaanfiHuGMAReQ71HXCPHfI2/OlOt0WQBMYgfSl2nkB+CLwMbBeT6WdLs+Ms+zgnOs217EftGMkWbVR8/e3Q+4KTjPbwXn2ETfIbbPFgP7Buc4l7i3FtbFamLeQy/pbGL75ErSv/dI84H/Cc7zIZqznPE6FgADfI7YD8EY6dfekwJym0W6HboiQ45PD8ivtOiLxBhwEelZfVWzSRNNRzPkuH9Afk13EPH99iDpTk/ECoxPBC7OkOM3A3Ir7Wji++U+0mOviLlWTyH2Ueq6+ExAbtEsAAbYk/TObfSHYQ3wFeDx08hpJuld8d9kyGuM7kwg2588/bMK+DzT22dhI+A44u/YrIsfTCOntop6VXfDuIr0Cuh0CoFHA18gZi2K8b4zIorP0kZIhXSOsbsUeD7TKwT+CPga8XcOx0iPrHafRk65WQAM4WTyfFjXxc+B15M+gBO9m7yAtLjPB4id4DZeRCxD2xTfI18/rQHOAV4L7M3EXzqbAc8EPgrcnjmfg6bZT210CHm+rNfFEuDDpF+sm02Qw0zSI7jXAedmzuc70+ynJno2eb/Dfkt6HfhIJt5WexbpLZA3kH705Mznc9Psp9xCCoCRtf9R1SLgnoB2om1HuiUUsQ/0IA+Rlt9dSrq1vzlp0lPEFpTDOBV4Tk3HqsPuwK9Jz2NzGyW95nQv6RWzzUjP/Lap4diQfnn+RU3HaoqTSUv71uFW0n4E95JWhduMtE5GHau6PUAqMm+o4Vh1+R71re3/W1JBt5T0fH8haZJzxOOeQZaS7gw1cV+OhcDdEQ1FVElNvQMAadGQnBViE+J+YragbZrIV4+aGneTFsnpm61JPxpK93/u+JeoDmuQ3YhZcr3p8XdRHZaBjwCGNAv4KeU/TDnjhLDeapa5pLsApfs3ZxwX1lvtE7nyZRPjVzRn7fhoUStfNjXOpdyeIsOwAJiCHYA7Kf+hyhGnUWZ97bpErpDYtPhSYD+11UmUH4ccsZz2v/Y3mRHyvK3ThLiL8lvCD2IBMEXHkHeiT4m4gXb0fVUvp3xfR8dlpGeafbcJ6X3w0uMRHS+O7KSG2oL4tTBKx2raMZnaAmAa/h/lP2BRsZT09kFfvJvyfR4VS6hvPfQ22I2Y7VqbEv8a2jvN9ljSPJbSfR4VdW80NV0WANP0fsp/yKrG/cCTozum4UaAT1O+76vGvTRrU5GmeDzdmBT439Ed0wIHkmdRs7rj36I7JiMLgGkaIXaTiLpjBe24RZXDTPKv7ZAzlpJWK9P4DiFu69YScRLNnjiW09GkHyalx2C68VHaNZfKAqCiN1P+QzfVuJuYpYjbLMdGH3XErdS3hW2bPZb07nfp8ZpqfJj27vQX5QDgDsqPxVSjjZs0WQAE+Bvi9nHPHdcAj8nTDa30RmJ3lssZl9LNdRpy2Y3YXRZzxkq6+xrudDyWtKhW6XEZJh4Ajs/TDdlZAATZh3RxLf1hnCy+RVpZUOs7hOb/WjwJZ/tPxzzSr+rS4zdZ3Ez/5uIMY1PSfimlx2eyWEy6Y9FWFgCBNiN9UTftNcGlpLsUmtiWpJ3WSo/VhnEH8JKM590XL6eZa3h8jXz72XfFq2jenI41pA3B6lgePicLgAwOoTkrz32X+vYR6ILDyLMV6HS+YE4iFSaKsZB0NyDHTn1TjWvp7yTc6diG5vy4uhI4Iu/p1sYCIJONSJXrDZT5kJ4OHJz9LLtpHuk93ty7Lo4Xa0gro+2b/Sz7az9SYVziYnIzaffIri7tm9tTgB9R5jv1etKd1Do2EKqLBUBmG5F2aPsl+T+go8DXSV9wqm4OqYj7DfnH7n7Sq4mPr+XMBOltii9Rz4Y0vwZeiRf+KAeQHtmNkn/sLiLttTHRVu1tZgFQo8eSXj27nrgP50rShhOvIm2nrDz2BT5E7JKlDwFnkmYQT7TfvPLbDHgFcBZpTKLG90bgg7hgU05bkHbbO4/Yt3muI73Wt3d9p1JESAEwsvY/qlpEWsWrD3YhPW8+BNiLtFnNMBNKfgtcDVxCunicTdowRPV5FGnsnkJ6pXIP0lr0kxkj3f69CriYNHbnkRZkUnNsQpqRfxjpwr0HaROwQYu73Eca2yuBc0jje22+NDWOTYFDSWP3eGBP4JFD/L1lpLG7nN+P3eI8KTbOQtK6MJVYAMTYBtiW9CW0Cem1r6WkC/x9pF+fXuyb6ZGkvenXjd080szlZaSxW0y6za/2mU/a1W0T0kVmM9Jjg/vWxm3A74plp8ksAHYkjd0C0mvQK/j92N1KGr++CikAwEcAkiS1ScgjgL4vXSlJUi9ZAEiS1EMWAJIk9ZAFgCRJPWQBIElSD1kASJLUQxYAkiT1kAWAJEk9ZAEgSVIPWQBIktRDFgCSJPWQBYAkST1kASBJUg9ZAEiS1EMWAJIk9dCs0gnUYDZwKLA/sDUwp2w6oZYDNwE/Bi4vnEsOc4HDgH1JY7dR2XRC3Usaux8A1xTOpZRHAU8HdgQ2K5xLpJXAEuBC4ExgtGw6WewNHE4auwWFc4k0Shq784GzSWPZaWMBsbD2rAfbCHg9cAcx59j0uAD4k4iOa4B5wD8DSynfr3XEOcCBIT3XDgcB51K+3+uIe4C3kIrZLngq8AvK92sdcTtwAs384bGQmHMMaaRpBcAWwP9R/gNUd6wB3lq9+4rajlTMlO7LumMl8NqA/mu6E4BVlO/vuuN8YNuA/ivpbaTvmNJ9WXecCSwK6L9IFgATmAv8lPIfmpLxpsq9WMYmwCWU77+S8crKvdhcx1O+f0vGr0if8TZ6C+X7r2T8hGY9PrYAmMB7KP9hKR2rgD+u2pEF/Dfl+650jAK7V+3IBtoTeIjy/Vs6Pl61Iwt4IrCa8n1XOk6s2pGBLADGsQ1wP+U/KE2I/63Yl3XbjXQbvHS/NSH+p2JfNtGXKd+vTYiVwK4V+7Jup1O+35oQK4CtKvZllJACoGuvAT6PNIFM8DRgy9JJTMGL6MdbKcP4U2B+6SQCbQw8u3QSDTELeEHpJKZgK+CI0kk0xMakf5ud0bUCxTV1HwAAHoJJREFU4CmlE2iQmcDBpZOYAsfu9+aRXn3siv1JX55KDimdwBQ8ifRdoqRNYzdQ1wqA7Uon0DDbl05gChy79bVp7AZxbNfXprF17NbXprEbqGsFwOrSCTRMmxaxcOzW16axG8SxXV+bxtaxW1+bxm6grhUAN5dOoGHa1B9tyrUOvy2dQCDHdn1t6o825VqHTvVH1wqAH5dOoEFGgfNKJzEFjt3vLSUtI9sVvyCdk5IflU5gCs6mm0sZT1ebxm6grhUAp5KW3hR8k7RXQFt8nfQKp9JrgF261biS9Bqg0qtk3yidxBTcB3y7dBINcRdwWukkokW8H9mUdQAgrf9f+n3R0nE/7XvXGOBdlO+70rGUtPFR12xL2gCpdP+WjrdX7cgCdgceoHzflY4mLdXtQkATmAF8i/IfllKxhvROfRvNIj0KKN2HpWIVcFTlXmyuZ9HvFeV+SHvXungp/dwHYF18Axip3ItxLAAmMQf4LOU/NHXHA8CxAf1X0nzSP7bSfVl3LAeeG9B/TXcU/dnl8eHxddq/uNMLSY8wSvdl3XEyzVtgzgJgCM8kTaYq/QHKHQ+Snhu38bb/eEaA5wOXUr5vc8cK4DN07P3iAbYnFeh9WLb7EuDPaNavxyp2A75E+s4p3be54wLg6JhuCxdSAIys/Y+qFtHsyXe7APuRFrVo0o5OVd0L3ETaW71NE/6m4lGkVfG2BWYXziXSPcCNpLHr6+THjUkrQO5Ec39ETMdDwK3ARcA1hXPJZQFp7HYENiucS6RR4Heki//isqlMaiFwd0RDEZVSl/7xSpLUZG4GJEmSpscCQJKkHrIAkCSphywAJEnqIQsASZJ6yAJAkqQesgCQJKmHLAAkSeohCwBJknrIAkCSpB6yAJAkqYcsACRJ6iELAEmSesgCQJKkHrIAkCSphywAJEnqIQsASZJ6yAJAkqQesgCQJKmHLAAkSeohCwBJknrIAkCSpB6yAJAkqYcsACRJ6iELAEmSesgCQJKkHrIAkCSphywAJEnqIQsASZJ6yAJAkqQesgCQJKmHLAAkSeqhWaUTqMmWwD7ANsCcwrlIw1gJLAEuAW4pnMt4ZgP7ATsAmxbORfmsBm4HrgSuKXD8bYA/BrYmfeZyGwVuAy4C7qzheMWNBcTC2rMeziHAGcAqYs7TMOqONcD5wLNphu2ATwJLKd83Rr1xGfCXwEzyezpwHqkAKXGuq4AfA0/OfaLTtJCY8wxppGkFwCzgw5T/B2MYkfE1YGPKOQZYNk5eRr/ibNJd1RzmAJ9rwDk+PD5IPUXPVFgATOIkyn9oDCNHnAFsRP2eQ7lfY0bz4jLiH/3MAE5pwLmNF58PPteqLAAm8LeU/7AYRs74N+q1E7A8KHejO/EVYr2lAec0Wbwi+HyrCCkARtb+R1WLgHsC2qlqE+A6YKvSiUgZPQjsCdxU0/E+DxxX07HUHmPAwcDPA9rakvTdvSCgrVyWALsBK0onQioA7q7aSNdeAzwGL/7qvrnAS2o61nzghTUdS+0yAhwf1NbzafbFH9KbCM8snUSkrhUAR5ZOQKrJ02o6ziGkgkMaT9TnsC3f3XX9u6tF1wqAnUonINWkrs+6/6Y0me2JmSHfls9ZW/IcStcKgM1KJyDVpK6JtyXeOFB7zCBmQbm2fM46tZBc1woASbF+VzoBNdpdpNXzqro1oI06NHFVzmmzAJA0mfNIqxFK4zk3qJ3zgtrJLep8G8ECQNJklpBWfpPG89Wgdr5G8wvNUeA7pZOIZAEgaZC3ErNeiLrlV8DXg9q6Ejg5qK1cPk7HHolZAEga5CfUv/qgmm058HJif7WfAFwd2F6kXwFvK51ENAsAScN4G/CB0kmoEW4HjgJ+E9zuPcAzSPsMNMkFpPNtwgqAoSwAJA1jDfBG0qZAVxbORWWsId2m35d0VyiHG4CDgPcCD2Q6xrCWkwrfQ4HbCueSRdf2AriQ9OGs4hzSxCcpl/nA0RXbuIf0766EGcCBwOGkhVGid4VTc6whfR9eDpxGva/BbU765b0vsA0wu4ZjjpJeSbwAOB24r4ZjTkfIXgAQs0tSU3YDvJDq53JE7Vmrb3al+uc05B+/pFYK2Q3QRwCSJPWQBYAkST1kASBJUg9ZAEiS1EMWAJIk9ZAFgCRJPWQBIElSD1kASJLUQxYAkiT1kAWAJEk9ZAEgSVIPWQBIktRDFgCSJPWQBYAkST1kASBJUg/NKp1Az4wAOwPbAfPKplKrMWAJcCOwvMDxZwK7AtsAcwb82VHgNuB6YHXmvCSpqLGAWFh71uO7kOrnckSGvLYCPgDcHJBfm2MU+AHwjGrdObRdgU8Dd0wj1zuATwG7ZMqral/enSEvSe2wkJjv5JBGLAAm9nxgWUBeXYtvAwsq9OsgryMVHFXzHAVeE5ybBYCkKiwAxtG0AuCvgDUBOXU1LgTmT7t3J3ZihlzfGZifBYCkKiwAxtGkAmA/4KGAfLoeX5xuB0/geZnyXAM8JyhHCwBJVYQUAL4FkM8HgI1KJ9ECLwUODGprNvAfQW1taIQ0prMztS9JtbIAyONxwFNKJ9ESI8Crgto6ijyT9tbZDXhaxvYlqTYWAHkcVTqBlonqrzreLji6hmNIUnYWAHnsWjqBltmSmDcCdgtoYxDHVlInuBBQHhuXTqCFFlB9kaA6+n2TGo7RdHOBI4HDgR3J+zrnw91OWqDpNOAC0kSmOmwJHAMcRFpMam5Nx1X9RkmLlp0PnEpaFKzTImZI+xbA+t4XkEefYhVptb6qvlFDrl8LyLPNbwEcD9wyZI454+ekC3JO80n/lh8ofK5GmRgFPgJsRvP4FkCD/aJ0Ai1zETHL7tbR7xfUcIwmmgV8HvgsaSnr0g4AzgZekan97YBzgX/AX/x9NZu0CNjPyDu5uBgLgDxOB+4rnUSLfDOonW+R3tfPZQ3wnYztN9mHgeNKJ7GBjUjLNT8/uN15pHH+4+B21U6PAb4PbF46kWgWAHksJ70zrsFuBz4Z1NY1wP8EtTWeLwDXZmy/qZ4OvLp0EhMYAf4bWBTY5jtJC3lJ6+wJvKd0EjlEPCtxDsAfmkuaSFL6OVaTYzXwrOl28AS2AK7LkOti0mSwCG2bA/CzgHxzxzuCznVLfOZvjB8rgZ1oBucANNyDwHOBi0sn0lArgb8mzeiOdBdpxvbiwDZvIK1VcEdgm22xI+l5e9O9IKidZ+Mzf41vFmmp8c6wAMjrVtKKgB8k7Qug5CLgT4D/L1P7lwP7AydRbU7AGtLEt/2BK6qn1UoHkG6zN92jiXlG24ZiR+XkfvOkVq4DkN8K4PWkOQF/CjwJ2J400agvxkjv1l5F+sX/f2v/fzndQZq09i5S1b4/sC0wZ8DfGyUVbheQJidelzHHNti2dAJTsB2wtGIbbTpf1a9Tnw8LgPrcAnxsbag+15Le5db0PFA6gSlYEdDG/QFtqLs69fnwEYCkySwuncCQ1t25qerGgDbUXYtLJxDJAkDSZM6h+hLNdTiDmHk2pwe0oe76fukEIlkASJrMKHBy6SSG8Omgds4BrgxqS91yEx0rEC0AJA3yTsrtPTCMs4hboXEVafnf3JNU1T5vJr3e3RkWAJIGuY30nn0TX2W9EXhRcJunkd4ekdb5MPCV0klEswCQNIwzSKtkLimdyMP8jPRe9u0Z2n478PekBavUX6uBfyF9FjrHAkDSsM4lrYn+buDmgnn8EvhL4MnEzPyfyIeAvUlzINowEVJxVgBfBf6I9Hnv5CMh1wGQNBX3kn4RvZVUDOxIfful3wZcT1pToy7XAC8nLSC1N/BIXCq4y0aB3wGX0a41MKbFAkDSdIyRZsv3Zcb8KOnOwy9LJyJF8RGAJEk9ZAEgSVIPWQBIktRDFgCSJPWQBYAkST1kASBJUg/5GmD9ZgBbA/MG/LmVpBXORrNnNLG5wFb063MySlrtblXpRCQppz59sZc0B3gF8ELgYGDmFP7uFcC3gY9QzzKsOwCvA54L7FbD8ZpojPS+9zeAj+MqcJI6aiwgFtae9fgupPq5HBGc00HADQF5LQf+Jji3Db2JtPpVxGeiK3E7cEyVTh3HrgF5NXl3Pkl5LSTm+y2kEQuA8R1N2j4y8oJ0YmB+D/fJ4Dy7FKtJd3CiWABIqsICYBxNKgD2IK2bnuOC9OKgHNd5TaY8uxQPAU+abgdvwAJAUhUhBYBvAeTzfmDTTG1/CFgQ1NYjyHdXoUs2Is0H8N+MpE7wyyyPXYFnZ2x/K+AFQW0dT75CpWv+CDi0dBKSFMECII9n1XCMqIlpdeTaJdETAiWpCAuAPPZo0TH2DGqnL+oYW0nKzgIgj81rOEbUxMvNgtrpi6ZMeJWkSiwA8ri9hmNELQp0R1A7fVHHYkySlJ0FQB6X1nCMSxrWTl/YX5I6wQIgj9NI743n9O2GtdMX3ymdgCRFsADI407gUxnb/zVwalBbXwSuD2qr607FOwCSOsICIJ+3k+fCOgr8NbAmqL2HgL8jLXerid0FnFA6CUmKYgGQz92kd+x/G9jmKHAscH5gmwCnA6/CLXAncg/wp6RNnSSpEywA8roC2A84JaCtS0mr0H0toK3xfBp4BnBNpvbb6hzgQODc0olIUqRZpRPogduA5wL7Ay8ibSizPTBvwN9bSXrl7GLSRL1TibvtP5EzgL2B55FyfiywNf36nIwCvwN+AXyd1Cea2EbAJqWTUDZrSJualTYfmF3DcUaB+2s4TmNE7JTWlMVRmrQboDSRtu8GeBhwEnAL6QJReqdGI288QPoh8g5gG+oxH3gdcDZwX4ZzmizuBX4EvBKYk/tEp8ntgMdhAaA2aGsBsCXw/Wnma3QjlpMuzDkdQ7oLV/pcx4DFNHMDMLcDllSbHYELSPNE1F+bkLYj/3im9l9JWmtj20ztT9VOpLsBLyydSA4WAJIGmUuayLpz4TzUHK8GXhvc5mHAx2jedWkj4PPAvoXzCNe0jpbUPK8BnlA6CTXOu4mbEzAT+CjNnXA8l3TXY6R0IpEsACRNZgYugKTxbUK6ZR/hWcBeQW3lcgDpLa7OsACQNJknAtuVTkKN9eygdo4Jaie3qPNtBAsASZN5TOkE1GhRn4+m//pfp1P/HiwAJE2mKa/4qpnmARsHtNOWz9mi0glEsgCQNJk7SyegRltBzMp5bfmc3VE6gUgWAJImc1npBNRov2lYO7m1Jc+hWABImsyvSKuhSeP5TlA7ERum1aEteQ7FAkDSZMaA95VOQo10D/CpoLZ+AFwU1FYuZ5E2CesMCwBJg3wG+EnpJNQ4f0/cnhRjwN+RduNromWk/DrFAkDSICtJW0Q7H0DrvAv4QnCb5wPHAQ8Ft1vV/aS9AK4onUg0CwBJw7gdOAj4IunXmvrpDuBlwNsytf9V4HDgqkztT9UlwJOB00snkoMFgKRhLQeOJW2K8kHg16S909Vdq0lb855B2gZ4d+B/Mh/zPOBxwMuBbwM3Ud9dgVHgBlIh8nxgH+Dimo5dRMSeyU1ZxOFCqp/LEZlyO4p0y+xa0i2l0vtc1xlrgFuBc4F/ALao2JfDmkm6dfd14EbgwSFyfZA06/1rwAvWthFt1yHyGBRRz14ltc9CYr6bQxqxAJjYbqSKtvRFuEmxlPwTavYjvbNbNddfE78NqAWApCosAMbRtALgiaQVrkpfcJsaH59+107qWcTeZVkBHB2YnwWApCpCCgDnAOSzLWnRiLpud7fRq4HXB7f5OODLpDXKo2wMfIX2bFgiSQNZAOTzbtxGdRjvBnYIbO9DpH3Koy0APpGhXUkqwgIgj21Js6U12FzgNUFtHQgcFtTWeA4F9s/YviTVxgIgj2eRZ/Z4Vz03qJ3nBLVT+hiSlJ0FQB6PLZ1Ay+xOuhNQVR397thK6gQLgDyc+Dc1I8T0WR39/ogajiFJ2VkA5HFX6QRaZoyYPquj3x1bSZ1gAZDHlaUTaJnFpBX4qqqj3zu3IYikfrIAyOM00vK3Gs6pDWun9DEkKTsLgDxuJi0co8EeAj4a1Na5wE+D2hrPzzO3L0m1sQDI5y2kZYA1uROB6wLbex0xjxM29ABp5cKxDG1LUu0sAPK5CXgeaQtVje9kUgEQ6ULgL4CVgW0+BBxHx7cFldQvFgB5nQscBFxSOpGGeYB0h+RY8vyi/ipwJGlf76quJ20Q9fWAtiSpUSJ2S3M3wMnNAF4EfBu4IyDHNsYDpELoRGD7at05tDnA3wA/BO6ZQq73AD8A/hqYnSEvdwOUVEXIboCzak+7n9aQJgWumxg4l9jd6ppuDFha4LijwKfWBqRd/eYM8Xfuz5mUJDWBBUAZD5Jnopomdz9e3CUJcA6AJEm9ZAEgSVIPWQBIktRDFgCSJPWQBYAkST1kASBJUg/5GqCk6ZgN7AfsAGxa0zGXkFZ3vLSm4z3cQuCJwLakdTzUTaPAbcBF9GQvl4hV3lwJUBpem1cC3A74JGlhp1KrSi4G3kA9F+L9gP8l7S1R6nyN+mMV8GPgyTRTyEqABDViASANr60FwDHAsmnmmyMuA3bPdK4jwLtIq3iWPk+jbHwQmEmzhBQAzgGQNIznAN8BFpRO5GH2As4DdszQ9oeAfyEVAuq3E4DPlk4iBwsASYPsRNq6uYnfF1uTdmqMzO2FwGsD21P7HQe8onQS0Zr4D1pSs7wD2KR0EpPYn7TbZoTZwHuC2lK3nAjML51EJAsASZOZT/pF3HTHB7VzGLBzUFvqlq2BZ5ZOIpIFgKTJHEI7XnuLyvPIgDbUXU8rnUAkCwBJk9mpdAJD2oj0imJVbTlfldGpz4cLAdXnMcALgCeRvqjmDfjzK4HbgV8B3wbOyprd780Ank6a9b036bZX016ByWndQiAXAN8gvVraZxuVTmAK5gS00abzVf0iPmONEvGepOsATGwR8EVgdcW8fgI8Pji3DR0EXFwxz67FacS/ZtamdQD+LCDXuiJiRcL/asB5GM2NL9MMrgPQArsC5wMvo/rjloOBn5JvEsqLSXcZnpCp/bZ6JuluwBNLJ1LIeaTFcJruEtIiRVWdF9CGuuvc0glEsgDIZ1Pgu8SuVDYf+CrxF+lDgS/QwdtbQbYGTgW2L51IAUuAs0snMYSvBLXzPeC+oLbULaOkxbA6wwIgn7eRViqLNh/4HHFjtxHwGXz2Oci2wH+WTqKQt5JuGTbVbcDHgtq6B/iPoLbULR8Hflc6iWgRz0WcA7C+hcADAblMFlGPAo7NnGeXYg0xRV2b5gCsc2JAzjliJend/UgbkR6HlT43ozlxMc1aBMg5AA32TPK/O/28hrXTByPAn5ZOopC3AR8oncQGVpBWADwzuN2VwJ/Tjkcfyu8C4CjS561TLADy+OMajrFPw9rpi7721xrgjaTXQ68snAukLXr3B76Zqf27SIsCvZm09bH6Zzmp8D2U9Jipc1wHII+tajjGNkHt1JFrl0T1e1udSno18kDgcNLCKBGv3w1jCXDd2uNfW8PxVgLvI80vOJL0mux2tGNlRE3PKHAr6Vf/6XR8QqgFQB4RryMNEvWrZBmwZVBbfeCvwXQ34Kdrow/uB05ZG1Jn+Aggjzp+nUQdo45cu8T+ktQJFgB5fLeGY5wW1M73gtrpi6h+l6SiLADyuBb4Qcb27yRu4ZNPkya7aLArqG9PBknKygIgnzeSnh3m8I/AvUFt3Q78W1BbXbYaeC2wqnQikhTBAiCf3wB/QfwF42PAZ4PbfC/wpeA2u2QM+Afgx6UTkaRIEaskuRLgxI4gvUNaNa8HSXcVcpkBvIv06lPpVbeaFPcCL6nQr+Np40qAkpojZCVAghqxAJjcJsA/kXYsm2o+vyX96t8pQ17j2ZM0L2DJNHLtUlwD/DvwiGrdOS4LAElVhBQAI2v/o6pFpE00SrsQ2LdiG0eS91bvpqRd5eYN+HMrSRfhJRlzmcwIaRe8renXehGjpA0/cl5gdyUtaFPFPaR/d5L6ZyEB31F9+mJvimXA5aWTGMIY6dFFJ5fAlKS+cxKgJEk9ZAEgSVIPWQBIktRDFgCSJPWQBYAkST1kASBJUg9ZAEiS1EMWAJIk9ZAFgCRJPWQBIElSD1kASJLUQxYAkiT1kAWAJEk9ZAEgSVIPWQBIktRDs0on0EDvBe4unYQ6bV7pBCqaCxwJHA7sCCwom44yWgMsAa4CTgF+U+OxdwCeA+wLbAXMruGYo6TzPR84FbithmMWNRYQC2vPenwXEnM+htH0KFWkHg/cMmSORvfi+8CjyWtL4DPAqsLnOgp8BNgs7+lOy0JizjGkEQsAw6g36i4AZgGfD8jbaH8sA44ij72BGxpwjg+Py4FdMp3vdIUUAM4BkDSMDwPHlU5CjbAA+Bawf3C725DuMOwc3G5VjyHltXnpRKJZAEga5OnAq0snoUaZC3wR2CiwzY+Tnvs30Z7Ae0onEc0CQNIg/1o6ATXSHsBLgtr6I+BPg9rK5a+AnUonEckCQNJkdgQOKJ2EGusFge2MBLWVyyzgeaWTiGQBIGkyB9D8L2aVc2BQO20pMg8qnUAkCwBJk9m2dAJqtEWk+QBVbRPQRh069e+hawWAC/ioL+6q6TgP1HQctdMqYGVAO235nN1fOoFIXSsAbiydgFSTxR07jtrpRmB1QDuLA9qow+LSCUTqWgFweukEpJp8v6bjnAMsr+lYap+oz+EPgtrJra5/d7XoWgHwv8BvSychZXYf8KWajjUKnFzTsdQua4DPBrX1DZr/CPcmOvYjs2sFwAPAW0onIWX279S7Sck7af6Xs+r3OeBXQW0tpfnrTbwZeLB0EtEi1kpuyl4A63yE8utHG0aO+A5lCvfDSXcDSp+/0Yy4gPhdLUdIqwuWPrfx4kPB51qVmwFNYgR4K+V3kzKMyPgEsUuvTtVTSHceSveDUTa+Q74toGcC7yc9Xih9nmOka8g/07y1MCwAhvBY4GvACsp/kAxjOjFKmtvyJJphM+BE0vPQ0n1j1BergHOBY6jHE4FTSI91S5zvfcBXSLsTNlFIATCy9j+qWgTcE9BOLvNIA7kdMKdwLtIwVpJ+bV9GM2fhj5A2SNmRZu6XrhirgSXAVcCdBY4/n/TdvS0wu4bjjQK/I/27a/LaBAsJmpcTUS019Q6AJEldE3IHoGtvAUiSpCFYAEiS1EMziJkD0LQZkpIkdVXENXdsBjGbG0S/DypJksY3P6CNFTOImWG8aUAbkiRpsIhr7vIZpPcdq9opoA1JkjTYzgFtLJtBzPv7ewa0IUmSBtsjoI2lM4DrAho6IKANSZI02EEBbVw7g7TCU1VPxTcBJEnKbQbwJwHtXB1VAGxDTEUiSZIm9hRgy4B2rpwB/DqgIYDjgtqRJEnje1lQO7+BdOs+YovP+4ipSiRJ0h96BOnV/arX69uAkXUrAZ4dkNh84ISAdiRJ0h/6B2CTgHbO5GGrAP8tMbsC3g/sGpCcJEn6vd1IWxRHXKtf8fCGtwNWBTX8v/hGgCRJUUaAHxJzjV5Jmri/nh8ENT4GvD701CVJ6q83E3d9/t54B3hp4AEeAp4WduqSJPXTUaRf7VHX5xePd5CNScsCRx1kOXBgUAdIktQ3B5HesIu6Lt/FJLv3vivwQGNrEz+qeh9IktQrhwPLiL0mv32yA25BzDuGGz4OeANODJQkaZAR0ut+kbf9x4B7gYWDDv7+4IOui+/jK4KSJE1kd2In5D88/n2YBBYBt2dK4P61SbhioCRJyVbAe4l7z3/DuA3YbNhk/jJTEuviPuBTpE0NfDQgSeqbEeAQ4NPACvJec18+UQIT/f/PAZ5c7fyGcjtwFnABcAVwI6lAWF7DsSVJym0BaQnfnYDHAAcAT6Weu+Fnrz3W2Ib/w2S/vvcALiQlLkmS2mUZsC9w7Xj/44xJ/uLVbLBesCRJao1XM8HFH2DmgL98GfBIUgUhSZLa4RPAeyb7A8NMwJsNnAYcGZGRJEnK6izSInyjk/2hYWfgb7q2wX0qJiVJkvK5FDgUWDroD07lFbxtSG8GPGqaSUmSpHyuJr1ef/swf3iySYAbum1tw7+cRlKSJCmfX5Ne9xvq4g9TKwAAlpBuLfxwin9PkiTlcRZp3Z7fTeUvDXoLYDwPAV8nLV3o2wGSJJXzSeBlpKX2p6TqMrzPAz4LbF6xHUmSNLzlwCuBL0+3gYh1+PcAPkOaHyBJkvI6m7RQ34SL/AxjqnMAxnM1aV7AcaQ5ApIkKd5tpGvtU6l48YfpzQGYyCWkxwEjwOOBOYFtS5LUV8uBDwIvBs6PajTXVrybAq8C3gQsynQMSZK6bBlpkt/7gLujG89VAKwzFzgGOBZ4BjAr8/EkSWqzNcCZwBeBbwIrch0odwHwcNsCzwIOIz2/2LrGY0uS1FS3kd7lP5O0985tdRy0zgJgw+PuBTwW2BN4NLALsAWwydpYUCg3SZIiLQfuWxt3AdcDV5Im0f8auLxEUv8/8SWPLuCGaYwAAAAASUVORK5CYII=;rotation=30;" vertex="1" parent="1">
          <mxGeometry x="92.16" y="1717.92" width="34.16" height="34.16" as="geometry" />
        </mxCell>
        <mxCell id="TAAMW9c03Df91oIx33Ai-46" value="" style="shape=image;verticalLabelPosition=bottom;labelBackgroundColor=default;verticalAlign=top;aspect=fixed;imageAspect=0;image=data:image/png,iVBORw0KGgoAAAANSUhEUgAAAgAAAAIACAYAAAD0eNT6AAAABHNCSVQICAgIfAhkiAAAAAlwSFlzAAAOxAAADsQBlSsOGwAAABl0RVh0U29mdHdhcmUAd3d3Lmlua3NjYXBlLm9yZ5vuPBoAACAASURBVHic7d13uGVVff/x950CDH2GjoWmICiKjIoQpalYIhaIEaPYgj/U/Oyxm4ixx1hjI+ovKjFWUKwISrOgSLEhTRBEkDoDMwxlhpn7+2Pdk4wz587ce/d3nbX23u/X83wfeRJY57v3Peesz9ll7THKmAU8DTgE2BvYBVgAbAjMBsYmSpKkthufqJXA3cAi4A/Ar4HTgW8Cq0bd1Cgn2YXAa4BHAzuSQoAkSX23CrgWOBt4P3DhKF40dwDYEvhn4O+A7TK/liRJXbCEdFTgH4Ebcr1IrgCwO/AfwIEZX0OSpC4bJ50meO7E/4aKnpzvD3wJ2Dd4XEmS+mocOB84CrgiatCo8/CzgOOBS3DylyQp0hjwMOBy4CRgTtSgTT2J9Kt/s4CxJEnSui0BngGc2mSQpkcAPgF8Gyd/SZJGZXPgFODjTQaZ6RGALYGfky72kyRJZVwC7Ec6KjAtMwkA2wG/Iy3cI0mSyroVeDBwzXT+o+meAngwafUiJ39JkuqwJXAZacG9KZvOEYB9gHOBudN5AUmSNBIrSHfi/XYq//JUA8C9SLcfzJthU5IkKb+7gAcAV6/vX5xKAFgAXAls0bApSZKU362kh+zduq5/aSrXAJyDk78kSW2xJfCT9f1L6wsAH8Fb/SRJapu9SGv1TGpdpwCeAHx3Pf+OJEmq0zjweOC0Yf/PySb3WaRzB6NY4W8V6d7FC4DzgF8CtwA3juC1JUnKbVtgK9IV+gsn/vfexD2PZ11uI13Lt2qq/8FnSckhV60CLgKObbhhkiS10SzgxaSF9XLOt+PAp6ba1P2BlRkbOXviNSRJUrrW7ifkm3dXku4KWK/zMzVwPXDAdPeKJEk9cSDp9HeOOfhn63vx3TO98EmM5lyHJEltNgs4mfh5eBWw27pe+McZXvRNTfaEJEk99BrSpB05H5852YttG/xiq4AXNt4FkiT10zHEz8tbD3uhTwS+yDjwuqAdIElSX72R2Ln5o8Ne5ObAFzgpbNMlSeq3bxE3P9+05uALAwe/Hi/4kyQpyizSxB01T++z+uBfDBz4wPBNlySp3w4gbp7+/OoDXxM06NkZNlqSJKWn80bM1VcPBpxF3Mp/PjlQkqQ87k/MXQErmThV/7SAwcZJa/tLkqR8LiZmzj58FvDYoKY+FDSOJEkabuhtfDPwGEgrA4UdTpAkSdlEnbY/fRZTfELQevyRaTxrWJIkzcgq4NqAcXaZA2wVMNCFAWMM8yjgCNI6BdsCG2R6nelaRLqK8hTgq8BtI3rd+wHPAA4C7gVsPKLXXZ87gD8BZ5H2xxUjet0tgb8BngDsBCwY0euuz3LSE73OIy2K9ZOy7UjqmAuA+zQcYxtIX1ZNDyVEP/BnD+D0gL5GUbcALwPGgvfB6jYDjgdWVLC966sVpGWlN82yJ5Ix4OWkfV96e6dSP8Q7ZCTFeSvNv5fuhphzCX8duGEHA4sDehp1nQDMDtwPAzsCv65g+6ZbvwJ2yLA/ZgP/VcH2TbcWkY7cSFJTT6X5d9JKAgYZJx2ij7AH7Zz8B/W+oP0wMA84t4Ltmmn9DNgoeJ98oILtmmktIt3HK0lN7Efz76NVBAwyDuwWtFE/DOqnVK0CHhm0LwDeUsE2Na03BO6PRxD/fOxR1xmB+0NSP+1GzPdRyCARdxI8KqiX0nVywL6A9Mv51gq2p2ktAjYM2ieRT8QqWQcE7Q9J/bQLAd9FNd27f0TpBoIcRswFcI8BtggYp7T5wKEB42wGPC5gnBp05b0uqcVqCgD7lm4gyEbAXgHjdGV/QMy2PJC4IwmldelvK6mlagoA25VuIFDE1e9d2h/bB4zRpf2R4+4ISZqWmgJALYv8RIjYlrkBY9QiYn/4/pCkQDUFAEmSNCIGAEmSesgAIElSDxkAJEnqIQOAJEk9ZACQJKmHDACSJPXQnNINBDsauLjhGB8nPXSmC/4d+FzDMZ4HvCyglxqcC7y04Rh7kh79LEmt1rUAcDFwfsMxlkQ0Uolrab4/HhvRSCWW0Hx/SFIneApAkqQeMgBIktRDBgBJknrIACBJUg8ZACRJ6iEDgCRJPWQAkCSphwwAkiT1kAFAkqQeMgBIktRDBgBJknrIACBJUg8ZACRJ6iEDgCRJPWQAkCSph+aUbiDYx0nPfG9i34hGKnEM8NiGY+wc0Ect9gVOazjG5hGNSFJpXQsAjyjdQGXuN1FKFtA8EElSJ3gKQJKkHjIASJLUQwYASZJ6yAAgSVIPGQAkSeohA4AkST1kAMhjvHQDHeQ+laRANQWARaUbCHRLwBjuj7+0OGCMWkTsD0lqpKYAcFXpBgJdFTDG1QFj1OKqSsaoxVWlG5CkmgLA90s3EORy4A8B43yP7hz2PjVgjCuAywLGqcH3SjcgSTUFgK/RjcPenwwa52qar1tfg1OI+8X7qaBxSroZOKl0E5IE6Vdm09olqJeXBfVTqi4FNgzaFwD7AHdVsF0zrbuAvQP3x0akIyylt6tJvSRwf0jqp12I+T4KGSQqAIwBJwT1NOpaDOwZtB9W9wJgVQXbN91aBTw3w/7YC7i1gu2bSX0uw/6Q1D+dDAAAs4H30a5J71LyTP4DzwCWVrCdU60lwJFZ9kSyF+l6gNLbOdVaBbyX9N6WpKY6GwAGHgacDNwZ1GOOugR4NbGH/SezA/BR4KYRbt9060bgI8D2mfbB6jYCXkMKX6W3e7K6E/g6sDDTPpDUTyEBYGziH5ralZgr34fZBHggaQLcINNrTNfNpAvbcm3zuswm/QK+D2nf1GAZ8EfgYmBlgdffFdgZ2KrAaw+zHPgzcBFp30hSpF2AKyMGivilk+MIgCRJWlvIEYCabgOUJEkjYgCQJKmHDACSJPWQAUCSpB4yAEiS1EMGAEmSesgAIElSDxkAJEnqIQOAJEk9ZACQJKmHDACSJPWQAUCSpB4yAEiS1EMGAEmSesgAIElSD80JGuedwNKgsSRJ0uQ2ixhkDBiPGEiSJLWHpwAkSeohA4AkST1kAJAkqYcMAJIk9ZABQJKkHjIASJLUQwYASZJ6yAAgSVIPGQAkSeohA4AkST1kAJAkqYcMAJIk9ZABQJKkHjIASJLUQwYASZJ6aE7QOG8D7gwaS5IkTW4e8NaIgcYDan5EI5Ikab3mEzB3ewpAkqQeMgBIktRDBgBJknrIACBJUg8ZACRJ6iEDgCRJPWQAkCSphwwAkiT1kAFAkqQeMgBIktRDBgBJknrIACBJUg8ZACRJ6iEDgCRJPWQAkCSph+aUbmAK9gAWAtsBGxTuRRqVFcANwC+Biwr3IqmDag0AY8AzgX8C9irci1Ta5cA7gROAVYV7kdQRY8B4wDgLgMUB4wBsQvqie3rQeFJXnAocRdxnTVI7zQcWNR2ktmsA5gAn4+QvDXMYcBqwcelGJLVfbQHgOOAxpZuQKrYQeHfpJiS1X02nAHYArgDmNW9H6rQVwJ6kz4uk/uncKYBn4uQvTcVc4Nmlm5DUbjUFgENLNyC1iKfKJDVSUwC4b+kGpBbx8yKpkZoCwGalG5BaZIvSDUhqt5oCgCRJGhEDgCRJPWQAkCSphwwAkiT1kAFAkqQeMgBIktRDBgBJknpoTukGgp0E3Fy6CWk9Nic91leSihoPqPkBfVwR0MfCgD6k3Hal+Xu98YNAJLXWfALmbk8BSJLUQwYASZJ6yAAgSVIPGQAkSeohA4AkST1kAJAkqYcMAJIk9ZABQJKkHjIASJLUQwYASZJ6yAAgSVIPGQAkSeohA4AkST1kAJAkqYcMAJIk9dCc0g3of2wP7AhsMlGbAbcCyybqj8DiYt1J07clsBewLTC3cC+q253AtcBvgRUFXn/nidomYKzlwA2kbbk9YLxsDABl7AQcAhwEPBDYHdhiCv/djcAlwK+BM4CzgFsy9SjN1EHAm0jvcSd+TcetwEnA24GrMr/WBsCxwItJQTXaXcCpwDuAX2QYP8R4QM0P6OOKgD4WBvSRy57Au4DfE7PPx4GVpDfWq0hHENQOu9L8b79o5F2v3wbAp4h7f1v9rbuAF5LPbsBvRrQtq4B/A2YH9j8/qLeQQQwAw80Bng2cS/432T3At4GDR7FhaqSLAWA28C1G84Vq9adeQbxdSIfoR70tnw/cBgPAkKolAMwBXkTsr/3p1E+AJ2TfSs1UFwPAWynzXre6XfcAf0WcOcAvC27PS4O2wwAwpGoIAA8jHZYv/cEZJ/0i2yXv5moGuhYAdiRdqFr6/W51s35GnGMKb8vNTO16r/UJCQDeBhhnU9L5z3NJIaAGTwYuAl6Pt3wqn+cAG5duQp21H/CQoLGODRpnprYCjizcw/9wUoixF3AOKV2OFe5lTfOA9wCn4YWCyuPxpRtQ50Wc0tyaOo4SV3N61gDQ3NHAecCDSjeyHocC5wOPKN2IOmfn0g2o8yJOZe5EHT/QqjktawBo5uXAZ0m/sttgR+B04ImlG1GnbFS6AXVexHdsLe/TauYLA8DMvQf4MO3bh5sAJwNHlW5EnXF96QbUedcFjPHngDEiRGxLiLZNXrX4Z9KFdW01F/gv4OmlG1EnnFO6AXXeTwPGuIo6QkDEtoQwAEzfscDbSjcRYDbwBeBRpRtR632ldAPqtMXADwLGWQWcGDBOE+PA1wr38D8MANNzKPCx0k0Emgd8Hbh36UbUamcT8wUtDfMu0sOCIrwHuCNorJn4MukhQVUwAEzdtqTD5pHrOddga+Cr+NAWNXMM6WFVUqQfAR8JHO9a4CWB403H1eRZ2njGDABTM0Y6XL5D6UYyeSRwXOkm1GpXA0+ioguc1HpnA08jPV430ueBV5MepjYqV5DuvqouJEcsb9j1pYBfGNBb7bUC2Cdqh2mdurYU8Op2AE4gfbmWfk9b7awlwFvIf1TyYODCzNuyAvgkaQXASCFLAY9N/ENTC0gXajRxBemLsYmHkRa7ibQAuJR0qDy3FcCVpGdiLwW2nHjd+zKaozU/AR5NzHtCk9uV9H5vYjHpvVmrnYGnkkLldniKSet2J/An4MfAd0nfgaMwC9ifdPRqF2CbgDGXk26NPQ/4Jum0Q7T5BP0IiEg5XT4C8PGAvtZV5wH/COxLelLVMPOAg4B3An/I3M9zZ7ifNHVdPgIgKT+fBjikogPAvYG7A/paswa3o8yk3zHSQ35+nqGvceByunehY20MAJKaMAAMqegA8KGAnoZNsIcE9DZGujbh1gw9/l1Af5qcAUBSEwaAIRUZABYQ/4zzE4HNA3uENJlEX8jy6+Ae9ZcMAJKaCAkA3gY4uaOIfcb5J4BnkK5wjXQl6fqAMwPH3Jt0QaUkqaMMAJM7OnCszwP/QDr3n8MS4HDSBYVRvBhQkjrOUwBru19AL4P6ObBBUF/rcy/SQhMRfd+IFwPm4ikASU14CiCjxweNcyfpgrrolawmcy3wf4LG2oZ8CytJkgozAAx3aNA476H5gi/T9Q3SQhoRovaDJKkyBoC1zSJdVNfUYuCDAePMxD8HjRNxu6IkqUIGgLXtTMy6zZ8hLedbwvmkB2k05SkASeooA8Da9gga54SgcUq+/laM5hkIkqQRMwCsLSIAXEf5xXSirgPYPWgcSVJFDABr2yVgjB8FjNHUdaQHBzXV9AmNkqQKGQDWFrFU78UBY0S4JGCM6KWLJUkVMACsbdOAMa4LGCPCnwLG2CxgDElSZSZ7/nyfRQSA2wPGiBBxF4IBQDM1BmwHbAvMDRjvBtIKlaNaWGtNC4AdgI0Kvb7aYTn/+16tmgFgbfcEjFHLfo340l0RMIb6ZTfgH4GnAdsHj70M+D7wUeCM4LGHWQC8CvhbvCBW0/NH4OvAvxFzNDacpwDWFvGrecuAMSJEPKOh1FoGap8x4I3A74AXEz/5A2wCHAGcDnyFmCN2kzmCtJLnW3Dy1/TdF3gFcBnw0sK9DGUAWFvE4ftarpzfLWCM6McXq7s+BryL0T386hnAWeQJAS8CvkY9YV7tNY/02Xh76UbWZABY280BYzwkYIym5gAPDBjnloAx1H0vBl5S4HX3BT4dPOYBpC/sseBx1W9vBv6mdBOrMwCs7bKAMfYnpb6SFhJzC1/E/lC3bQm8o+DrP5O4B1eNAe8n5voZaXVjwIeAjUs3MmAAWNulAWNsBDwpYJwmjgwYYyXw+4Bx1G3PIeb5GU1EnWN95ERJOdwLeErpJgYMAGu7BBgPGOfvA8aYqQ1JX8pNXQncHTCOuu2JpRsAHk/M3Telg7u6769LNzBgAFjbYuCigHGeAOwTMM5MPI90v3JTPw4YQ913/9INkC4EjLjr4H4BY0jrUs17zAAwXMT9xYPzPaO+kGgz4K1BY50eNI66rZbForYIGKOWbVF3RbxPQxgAhoua+A4CXhA01lT9K7Bj0FijWGhF7XdD6QYm/DlgjFq2Rd0V8T4NYQAY7jTilvP9CLB30FjrcxTpdqwIPweuDRpL3XZB6QaAq4FFAeNcGDCGtC41fF4AA8BklgEnBY21CfBdYKeg8SZzEPCfgeOdEDiWui3qs9JEVA8nE7McuDSZGj4v/2M8oCKWnL0ioI+FAX0MPCagn9XrauABgf2t7kmkIxZRvd4NbJ2pV6WVIpv+jSJ+7UYZA84j9vMynboDuHfg9vxHwW2xul3fJ8b8oH5CBuliAJhFWtM88o+/mLS+eGSPbyb9Yons01//eXUtAAA8lNgQOp06NnhbtibdAltiW6zu1i3E3QFgABhSkQEA4OiAnobVl0kPimji4aTz9NG9rQT2bNib1q2LAQDS/c1LyfOZGVargH/JtC17kY7ajWpbrG7XLcCjiWMAGFLRAWBOUF/D6m7gU6SJfKpmkxZd+Tbpyy9HX1+ZRj+ama4GAEgXvP6YPO/N1etqYo+mDbMdKazn+qxZ/ahTib/3PyQAjE38Q1MLSIe3m7iC5k/RexhwfsMx1nQU8MXgMdd0BenWw/NIa+8vJv2Smk86HPkA0vMFDgW2ydjHcuDBxCyHrMntSvqbN7GY9Lmr1cHA00inBrYjZm39G0j77duki/XuChhzKvYmPXnwkaSlXDca0euqnZYD15O+z08CzsnwGvMJ+hEQkXC6egRg4AcBvbWhSj7QpU+6fARAUn4hRwC8DXBq/oHur4l/FelZ7pKkHjAATM2lwOtLN5HRPaQLHu8o3YgkaTQMAFP3YSpbwCHQW/DBP5LUKwaA6fl70kV6XXIy6fkBkqQeMQBMz63AY4FrSjcS5OfAs4m5E0SS1CIGgOm7hrTgya2lG2nod6QlhJeVbkSSNHoGgJn5DWlVp7Y+Le984BC8lUySemtO6QZa7LekEPB94P6Fe5mO04GnA0tKNzIFGwKPAx5CWoBlCfB70j7vymkYSSrGhYCa2QY4ZYb9jrJWAR8CNsizG0JtBLyRtNrdZNvyZZqvHFmKCwFJasJnAQypEgEA0uNQX0FaArL0RD+sbgP+NtvWx9qOqT9adhHpCEHbGAAkNWEAGFKlAsDAwyn7XPRhdSJwn5wbHWhb0qJL09m+5aQ159vEACCpCQPAkCodACA9se8fSI9/LDnxX0p6cmBbbM7Mw9Ny0nUNbWEAkNSEAWBI1RAABjYlnRa4ltFO/BcBz6VdF3huQHpkZpPtblMIMABIasIAMKRqCgAD84AXAmcCK8kz6d8FfA04nPbd2jkb+Cox+6EtIcAAIKkJA8CQqjEArG4n4DXAd4GlNNvW64EvkpYnjtj/JYwBnyI2DLUhBBgAJDUREgDadJi4C64G3j9Rc4CHAQ8Edgf2AHYgnTrYFNiMtNrg7RP1R9J5/UtICxFdxESCa7F3AccEjzmXdIvgM4GvB4+tmdmU9HeRJnMn6UhmSWPAlgHjLKdFK6x6BEAl/F9if/m36UhA148AbAG8Fvgp6Ysw59/Z6k7dQno42bMY3anMBwIfIS0wFnkb91LSad+XAxtn6NtTAEPKANAOzybf9RCrV60hoMsB4CjgJvL/ba1u16+AB5HPhsDHgHtGsC3Xkp4fE8kAMKQMAPV7MrCC0X2R1BgCuhoAXkdapXFUf1ur27WEtNx6tHnAWSPelnuAFwVugwFgSBkA6vZI0vUMo/4iqS0EdDEAPB0nfyu+biR+IbP/KrQtK4CDgrYhJAC07ZYxtdeDSHc/bFLgtQcXBtYUArpkI+DDpIuopEjbAO8OHO8g0inIEuYAn6SiNVoMABqFXUgL/ZS8XdEQkM8zac9y02qfZ5GeBhrhtUHjzNQDqGiFVgOActsG+B7pFsfSDAF5PKV0A+q0WaRFzpraBHhMwDhNRWxLCAOActqc9KjkPUo3shpDQLy9SjegztszYIxdSKerSqvm82IAUC4bkJYn3rd0I0MYAmK1dSVKtcdWAWPU8j5dULqBAQOAcpgN/DfwuNKNrIMhIM7NpRtQ590YMEYt79ObSjcwYABQtDHgeODI0o1MgSEgxm9LN6DOi3iP/YE6luit5vNiAFC095AeUNQWhoDmTi7dgDrtHuA7AePcBXw/YJymqvm8GAAU6TWk1eBy+Dbws0xjD0LA0zKN33VfAy4v3YQ66zPADUFjvYe0CE4pvwBOK/j6a4lY4ciVAPUc8q0Edw7pFp7NJ/4510pdo1oxsIsrAT6W0S7xbPWj/ghsS6yPFdqWO0lPgI3gUsBDygBQxuHk+/L/NX/5/upCCOhiAIC01vkoHq5i9aNuBB5KvLnAN0e8LXcBzwjcBgPAkDIAjF7O9f2vYPgCQm0PAV0NAACHkS62yvW3sfpRZwA7k89s4G2kX+W5t+Vi4IDg/g0AQ8oAMFp7kyaiHB+aG4Hd1/HabQ4BXQ4AkB61+kLSr6xriH3OutXNugO4jHS+/zBG577AW4Gfk75zIrblbuBq4ETScwdyrP1vABhSpQLA9sA/kS5Su4n0hfcn4OvA0VT08IdAuwLXkefL4DamduivrSGg6wFAUl4GgCE16gAwBrye9R8Cvwz4qxH3ltM2wKXkmXTvAA6cRi9tDAEGAElNGACG1CgDwFzSandT7e1u0tGAttscuIA8k+09wBEz7KlNIcAAIKkJA8CQGlUAmAucNIP+VgHHjqjHHOYBZ5Fnkl1FswWE2hQCDACSmjAADKlRBICZTv5tDwGzSRe15JpgI57TvQn5AkpkCDAASGrCADCkcgeAppN/W0PAGPBp8k2s7w3stQ0hwAAgqQkDwJDKGQCiJv82hoB/Jd+E+nlSwIhUewgwAEhqwgAwpHIFgOjJf1BtCAGvI99E+k3y3SJZcwgwAEhqwgAwpHIEgFyT/6BqDgFHk299/58CG2fuv9YQYACQ1IQBYEhFB4Dck/+gagwBo1zfP6caQ4ABQFITBoAhFRkARjX5D6qmELA/sIw82/l70sqJo1RbCDAASGrCADCkogLAqCf/QdUQAnKu738D617fP6eaQoABQFITBoAhFREASk3+gyoZAnYD/jyFHmdSt5Ln0Z7TUUsIMABIasIAMKSaBoDSk/+gSoSAbcm7vv+jR7cp61RDCDAASGrCADCkmgSAWib/QY0yBGxBfev751Q6BBgAJDVhABhSMw0AtU3+gxpFCJgHnJ2x/xdm7n+mSoYAA4CkJgwAQ2omAaDWyX/1STRXCMi9vv9rMvUdpVQIMABIasIAMKSmGwBqn/wHlSMEjAGfydjzu4P7zaVECDAASGrCADCkphMA2jL5Dyo6BLwvY6+fI359/5xGHQIMAJKaMAAMqakGgLZN/oOKCgFvyNjjyeRb3z+nUYYAA4CkJgwAQ2oqAWAuec97rwIuzjj+SuD5U9jOyeRc3/8MYKMGvZU2qhBgAJDUhAFgSK0vAIziwT4vBzYEvp35dWZyJOAp5Fvf/1fAljPoqTajCAEvDhjHACD1lwFgSK0rAIxq8h+oLQQcDNyZqZcS6/vnlDsERIQwA4DUXwaAITVZABj15D9QSwh4MLA4Uw/XArtMoYe2yR0CmpYBQOovA8CQGhYASk3+A6VDQO71/fdZx2u3Xc0hwAAg9ZcBYEitGQBKT/4DpULAjsCVmV6zpvX9c6o1BBgApP4yAAyp1QNALZP/wKhDwBbAhZleaznw19PY9rarMQQYAKT+MgAMqUEAqG3yHxhVCMi9vv8LZrDtbVdbCDAASP1lABhSC6l38h8YRQjI9ct/HHh1g21vu5pCgAFA6i8DwJDaj7on/4HcISBXvSNg29uulhBgAJD6ywAwpE4P2p5hFTX5D7QtBHyWdq3vn1MNIcAAIPWXAWCEFT35D7QlBHyDdq7vn1PpEGAAkPrLADCiyjX5D9QeAk6n3ev751QyBBgApP4yAIygck/+A7WGgF/SjfX9cyoVAgwAUn+FBAAP605uHHgl8JERvNbdwJGkpxTWcn/9ZcBhpNX+NLllwOHAKcD+hXupxRhwCOnJhw8BtsNTSOqP5cCNwHmki9J/UraddYv4NdK1IwCj+uW/plqOBFwL7Jx3Uztn1EcCaj0CsA9wDuXfw5ZVS/0Q2J1YngLIVKUm/4HSIeAW4EHZt7KbNgd+ymj+TjUGgCcDt1P+M2xZtdUi4CDiGAAyVOnJf6BUCFiGh7GbGlUIqC0A7Et6/5T+DFtWrbUIuD8xDADBVcvkPzDqELAceNJItqz7RnE6oKYAMAacT9nPr2W1oc4ghgEgsFYBrwjYhmijCgErgWePaJv6IveRgKWj25T1Opxyn13LalsdQHMhAWBWQCNtNw68Cvhw6UaGGNwd8J3Mr3Mi8IXMr9E3S4DHkR7KlMPcTOPOxBGlG5BapJrPS98DQM2T/8AoQsDf8JePElaMwS2C52QYu6bb6vYt3YDUItV8XvocANow+Q/kDgFjwCcwBOSwBHgC8SGgpucybFe6AalFdijdwEBfA0CbJv8BQ0B75TgdMB44VlMblG5AapFqPi99DABtnPwHBiHg+5nGNwTkE306YFXQOJJ6qm8BoM2T/8DdpCVWL8o0/hjwceD5mcbvs8Hpr6NtjQAAHD5JREFUgAsDxloRMIakHutTAOjC5D9wJ/Bw4OpM488CPoMhIIclxOzX5QFjSOqxmgJAzl66NPkP3Ak8ALg40/izgP+HpwNyuD1gjJquAZDUQjUFgE0zjdvFyX/gLuChwJmZxveaAEnqqJoCwLwMY3Z58h+4m7SE72mZxveaAEnqoJoCQPTCJn2Y/AfuJF1hnusWQU8HSFLHjBFzLnEBsLjhGMuJXd70GuDGwPHaYBawG2kd+lyuIj0yWDO3Ic0fubyY9LmrwSKaPw/kqcC1Ab1IOe0JnNBwjCtJ39NNzCfggWA1LSd6D7EB4D4TpVg7T5QU6bekL0ZJI1LTKYC7SzcgSVJf1BQAIm6NkiRJU1BTAHBhE0mSRqSmACBJkkbEACBJUg8ZACRJ6qGaAoBrm0tT5+dFUiM1BYDGixpIPXJz6QYktVtNAcBFQKSp8/MiqZGaAsB3SzcgtUiu5z5I6omaAsBJwA2lm5Ba4Fbgi6WbkNRuNQWA24E3lm5CaoHj8IFMkhqqKQAA/CfwsdJNSBU7AfhI6SYktV9tAQDgZcCbgRWlG5EqshJ4F/B8vAVQUoAaA8A46YvuQcDnSM89l/rqNuC/gX1IwXhV2XYkdcWc0g2sw2WkXztzgF2AHYANSjbUMxuQ9vnmwFLgz/jI5lFaQboo9go8GlajzYA9gN2BBwDbAZsCm0zUYmDZRF0NXApcQrp9854C/UprqTkADNwDXD5RklTCBsChE3UI8FBg9gzGWQqcDZwBnAr8JqpBaSbGA2r+yLuWVItFNP8O2XXkXU/NI0kXJt9CzHflmvVr4LXAjqPaIDWykOZ/8ysC+pgf0Mc4QYMYAKT+6loAGAMOB84hz6Q/rJYDnyedTlC9DABDygAg9VeXAsDjSYflRzXxr1krgS8A9869oZqRTgWAGu8CkKRR25H0C/wU0h1IpcwC/o500eBxeOGzMjIASOq7o4CLgaNLN7KajYG3Aj8FdivcizrKACCprzYCPkx6rsLmhXuZzELgQlJIkUK14TZASYq2FemJivuVbmQKNiOFlD1JRwWkEB4BkNQ3O5Luw2/D5L+6fyY9L8UfbgrhG0lSn9wX+NHE/7bR80kXBh6Ny0KrIY8ASOqLrUlX+bd18h/4O+CjpZtQ+xkAJPXBxqRz/nuWbiTIS4A3lm5C7WYAkNQH/w48onQTwd4BHFa6CbWXAUBS1x0FvLB0ExnMAk7A5whohgwAkrpsZ+BTpZvIaFvSnQHStBkAJHXZh4FNSzeR2WHAM0s3ofbxNkBJXXU48JTMr3EPcC7wS+Ay4DZgGbAl6df5A4D9yb+c7weA7wJLM7+OOsanAUpqosanAc4mPVAn11P7fgw8j7RK31Tcj/Rwn2sz9vQvU947mqlOPQ2QoEEMAFJ/1RgAjgroaVidBxzYoK8NgZcBizP0thjYokFvWj8DwJAyAEj9VVsAGAN+FdDT6rUCeD3pyEKE7YDvBfc4DrwpqD8NZwAYUgYAqb9qCwCHBvSzet0KHBzY38AY8K7gXq8jLqRobZ0KAN4FIKlrnhs41q3AIcCZgWMOjJN+sb8hcMwdgMcFjqcOMwBI6pJNgCODxloBPBW4MGi8ybyXdLtilKMDx1KHGQAkdckTibvv/w3A2UFjrc9rgZ8GjfVU0sWG0joZACR1yWOCxvkF8KGgsaZiBelRv3cHjLUJsF/AOOo4A4CkLjkkaJz/C6wKGmuqLgc+ETTWoUHjqMMMAJK6Yntgj4BxfkBa3a+E9xFzFOCggDHUcQYASV3xwKBxjg8aZyauA74TMM5eAWOo4wwAkrpi94AxlgHfChiniS8FjLEtsCBgHHWYAUBSV0Qc/v8JMYfgmziDmOsPIvaHOswAIKkrtg8Y4/yAMZq6GfhjwDjbBYyhDjMASOqKiPv/Lw8YI8JlAWNsHjCGOswAIKkrpvpo3nVZFDBGhFsCxohaEEkdNad0A+uxEel+1oWkw1lzy7ajyt0FXE9aUe3HwMoRvvb2wJOAXUgXYDV1D3AD6al2pwF3BIzZdRsFjHFXwBgR7gwYY17AGOqwWgPAPODVpOUxfb61ZuI64F+AT5F3QZddSU90ewb5jqjdDnwQ+NeJf9ZwESFp44AxIkT8el8WMIY6rMZTADsCZwHvwMlfM7cj8EngZGIODQ/zBOAC4Jnk/SxtCvwT6cjGzhlfp+2WBoxRy4VzEX1E7A91WG0BYFPge8DDSzeizngy8DXij3YdAHyD0YbUvYHTga1H+JptEjHh1XLrXEQfSwLGUIfVFgDeDzy4dBPqnMOAVwaOtzHwFco8cW0X4CMFXrcNrgkY45EBYzS1EzG3NEbsD3VYTQFgN+CFpZtQZ72JuFMBLwXuFTTWTBwF7FPw9Wt1acAYD6P8CnqPDxhjnHpuaVSlagoAR1HvRYlqv/mkZ8VHeHbQODM1Rvq86C9FBIA5wN8GjNNExPvrGrwIUOtRUwB4dOkG1HkHBoyxOfCQgHGa8mlva7uImFs/X0oKWSU8mJjvwl8HjKGOqykA7Fi6AXXevQPG2JFyk8PqSp6CqNVtpLsymtobOCJgnJn4Z2LeX2cEjKGOqykAjHLRFvXTioAx7gkYI0ItfdTm9KBx3s/o1wR4LHBk0FhR+0EdVlMA8IpV5RbxHruOOsKqn5fhfhA0zk7Ah4PGmooFwGeCxroBTwFoCmoKAFEfXGkypwWMcQdwTsA4TUVsSxedAfw5aKxjgGODxlqXucAXgfsGjfdl8q5+qY6oKQB8Fdc7Vz7XEHdY9LNB48zUCuC/C/dQq5XE7puPkfeOi7nA50hrVUQ5IXAsdVhNAeDPwAdKN6HOejNwd9BYnyNdcV7Kx4ErC75+7T4XONZs4AvAqwLHHNgS+CbwrMAxLwLOCxxPHTceUPODeplDOhUQ0ZNlDerTxNsDWFxgW84h5ql3kRbRfLt2De7plICe1qyvEfesgANJIS66x+cF9afhFtL8b3RFQB/zA/oYJ2iQqAAAsAnpg5bjy9PqXx1PvsdI702eL/HJ6hTSr8ba1BgAHh3Q07BaDLyOmT+tbw/SEYVVGXq7Eh+ZnpsBYEhFBgBI98E+g3Qla44PsdXtWgX8CDiE/DYD3g7cnHF7LgGeQ12n7FZXYwAAODOgr8lqEen6gINZ/zMhtiGt7vcd0jUKuXp60TT3j6avUwFgbOIfmlpASsY53J+003cANsj0GuqGu4A/AT8Drh3xa88mPSFwV9Jh4qaLuawArgcuBC5uOFZui2j+I2A34q9reAjpfHjuJcbvAH5HWor4NuB20pGa7YEHkL7Dci8edQHwCOq4RbXLFtL8GosrSe/3JuaTPneNRSTP6CMAktqj1iMAAB8M6K32WgnsH7XDtE6dOgJQ6yFFSYrwVuDq0k1k9gnqWJtCLWMAkNRlS0hP91teupFMfgO8tnQTaicDgKSuO5e0DkTX3E4KN3eWbkTtZACQ1Afvp1sr5N1DWkDoktKNqL0MAJL6YBx4AfCN0o0EGAdeDHy7dCNqNwOApL5YSbof/+zSjTQwTlqIKOrJgeoxA4CkPrmD9OCdr5VuZAZWkn75/1vpRtQNBgBJfXM36Ql//1G6kWlYBhxBO3qeB/w98D3SwlwrgJtIq3O+gbRwnCrhQkCSmqh5IaD1eS7pavrSi/msqy4GHpRrBwR7EnAV696exaQjGW3UqYWACBrEACD1V5sDAMADqfO5I6tIv/g3zrfpoV5Mujthqtv3cdp3FNoAMKQMAFJ/tT0AQHpewCtIa/mXnvjHSbf3PTbrFsd6DjN7wuH/o10hwAAwpAwAUn91IQAM3Jt0hf1yykz81wIvo12P9T2cdJ5/ptvcphBgABhSBgCpv7oUAAbuC3yUdPHdKCb+K4GXsP5HC9dmf2L2UVtCgAFgSBkApP7qYgAYmAc8A/gW0zu/PZW6Dfg86Rf07FFtUKC9ifnbtykEGACGlAFA6q8uB4DVbU0KAx8HLmL6pwluJS1CdBzwaGCDkXYfa1fgOmIDURtCQKcCwJyARnLbg7TTtyPmA3MT6TaVHzP6J4TtABwA3Iv0y0KazArgBuCXpMlG5d0MfHWiIF04uCuwO+mzvelEbUK61e32ibqadFHf9SPuN5dtSff475Bh7BdM/O8xpIsKlVmNRwDGSAt1XBTU37C6jfSAkK2Cex/mUcCZzOwqWcu6DHge9f4y6ssRAMHmwAXkf8/XeiSgU0cACBokMgBsApwU1NdU6kbgwMD+VzdGOtznxG9F1Pep83SbAaAf5gFnMbr3e40hwAAwpKK+lOYAPwjqaTp1B/CwoG1Y3QcLbIvV7TqP+haGMQB032zgREb/fq8tBBgAhlRUAHhHUD8zqSuBjYK2A+DpBbfF6nZ9mLoYALptjLQ2Qqn3e00hwAAwpCICwA6kX+Ilv1hfE7AdkNLypYW3xepuLQd2ox4GgG57H+Xf87WEgE4FgBp26MAzKX9l/POCxjmAdGWwlMNc0nPtpdxeD/xj6SZIdwd8mjpCQGfUtDMPLd0AaWGL7QLGqWFb1G2PKd2AOu9o4N2lm1iNISBYTTvyvqUbmBDRRy3bou7yPaacnkI67D5WupE1GAIC1bQTa+klYknOWrZF3dXGpWPVDgcDXybdlVUjQ0CQmnbgtaUbmPCngDFq2RZ1V8T7VFrT3sDXib0jKgdDQICadt7ZpRsgXZ0Z8cVaw7ao284s3YA6ZzfgVGDL0o1MkSGgoZp23FdIT9sq6b+DxjmT9KAMKYdx4Eulm1Cn7ECa/LfPMPaKDGMOvAD4FHXNZa1R0067gpTmSrmJ9GyACMuBtwaNJa3pi8CvSzehztgC+C551mJYSbrF+w0Zxh54IR4JmLGIRRqiVgLcFPhVUE/TqXuAJwZtw8AY6YhC6QU0rG7VlaTH0tbEhYDaax7plGWO9+oq/vfpfpDWFMj52RjFYkGdWgiIoEEiH1CyA/CzoL6mUktJy/bmsBHwhRFui9Xt+iWwE/UxALTTbPI+eG3YyqptDwEGgCEV/YSyjUiHjCK+WCarVaQ3f+4V+8ZIq7b9IeO2WN2uJaRTSrU9BGjAANA+Y6TJMtd79p3reO02h4BOBYCxiX9oagGwOGCcNW0IHELa6dsDGwSMeRNpMv4eo71QbxawH/Ao4F6UX/ZYdVsB3ABcCPwQuLNsO+u0iOY/AnYjnd4oYRawDymEbEra778Abi7Uzyj8G3HPPlnT54Hns+655fXAezK9PsB/AseQfuhFWkh6ImcTV9L8WR7zSZ+7xiISV43PKJc0Gm09ArAp8Bbgz0P6uYf0aPJHFegrtzeS79f3yUx9AaE2Hgno1BEAggYxAEj91cYAsDtwyRR7O556V8WbrueSfhXnmHDPYPoLCLUtBBgAhpQBQOqvtgWARwK3TrO/E0lPYWyzp5BOLeWYaH/FzBcQalMIMAAMKQOA1F9tCgALG/T7bdJ1SW10MOk6khwT7OU0f4pqW0KAAWBIGQCk/mpLAGgy+bc5BDyYdJF2jon1WmDnoD7bEAIMAEPKACD1VxsCQMTk38YQsBvDL3KMqFtJd09Eqj0EGACGlAFA6q/aA0Dk5D+oNoSAHUm3nOWYSO8g3x0SNYcAA8CQMgBI/VVzAMgx+Q+q5hCwBWkNiRzbvRx4Uub+aw0BBoAhZQCQ+qvWAJBz8h9UjSFgHvAj8mzvKtIiP6NQYwgwAAwpA4DUXzUGgP2B2wL6mkrVFALmAt8h37a+enSbAtQXAgwAQ8oAIPVXbQFglJP/oGoIAWOkJXBzbePbR7cpf6GmEGAAGFIGAKm/agoAJSb/QZUOAe+fpK+IOn6E2zFMLSHAADCkDABSf9USAEpO/oMqFQLePMN+p1LfoI6lkGsIAQaAIWUAkPqrhgBQw+Q/qFGHgP+TaTvGgdOZ/vr+OZUOAQaAIWUAkPqrdACoafIf1KhCwFPJt77/L5n5+v45lQwBBoAhZQCQ+qtkAKhx8h9U7hBwCHWv759TqRDQqQBQw3md9dkUeBDpzbhB4V5Ut7tIy57+Bri7wOvfB9iFmC/OFcCNwEWkCU5r2x84Bdi8dCOT+GvSUwSPJP79+BDgJPIcnr8OeBxwQ4axo7x34n/fk2n8F0z87zGktQ86KyIt5TgCsB/wLdKXeukkb7WrlgAnkJ75ntts0pfELzNty3LSJHfgCLZlpkocAaj5l/+aFX0k4H7A9Zl6vZUULtpi1EcCOnUEgKBBIgPAbOADpNRV+oNrtbtWAK8kn3sB545we46nzqNgow4AbZr8BxUVAnYE/pCpx2XkW98/p1GGAAPAkIoKAGPAfwX1ZFmDOo542wNXF9iWk4l5rnmkUQaANk7+g2oaArYg75GmJzborbRRhQADwJCKCgAvD+rHslavVcR+uY0BZxfcnjcHbkuEUQWA3JP/5cDbyHv08UTScr3TtTF51/d/3gx6qs0oQsDDA8YxAAyxJXBLUD+WtWb9jnR6KcKRhbfldtIRiFqMIgDknvwvI53SATiWvCFgukcC5gLfzdjPq6bRS+1yh4CTA8YwAAzxoqBeLGuyOpgYp1awLa8J2pYIuQPAKCf/gVpCwBjw2Yx9vG0KPbRN7hDQtAwAQ3wtqBfLmqwibhnaiHRLV+ltOS1gW6LkDAAlJv+BGkLABzK+/ifX89ptVnMIMAAMcV5QL5Y1WX2Z5natYDvGgd8HbEuUXAGg5OQ/UDIE/FPG1/06cafEalVrCDAADPHboF4sa7L6Js3tVcF2jAPXBmxLlBwBoIbJf6BECDg24+v9cMjrdVWNIcAAMMQPgnqxrMkq4pBn1Aevaf0iYFuiRAeAmib/gVGGgKcB92R6nXOBzaa57W1XWwioJgDUdD/xOaUbUOf9NGCMxcClAeM0FbEtNcq9vO/lpDX0p3sE5XjgJaQvzhwGywYfBnyJPIfnLwcOB5ZmGLtm7wXeULqJWkUkmogjAA/G1f+sfLUM2IoY/1LB9tS0YlvUEYAaf/mvKfeRgFxP9vsTsFPDbW+7Wo4EVHMEgKBBohYC+mpQP5a1Zr2TOPOJmfRmWqcEbkuEiH1xJPVP/gO5Q0B03Uy6dkV1hAADwCS2o8zyqla36wLSSmqRngasLLAtN5GeOFiTiACwNGCMySpy8h9oSwhYBvxV8La3XekQYABYh72AK4P6sqxfADuQx98z2jUB/gTsm2lbmih5NGR9lWPyH6g9BLR9ff+cSoYAA8B6bE266CbX+TCr+7WMdNh/HnntR7qANee2rAQ+R13L/66u1gCQc/IfqDUErASOyrjdXVAqBFQTAMYm/qGpBaSro6PdG3gK6QlM21Pno1BVj7tIV3efQ7qt6pYRve4Y8DDSFda7kk5lNbUCuAG4kLR+wVUBY+ayiPgfAU3N9Gr/mTgW+ATpfVCLVwEfKt1EC7yemBVCp+NKYLeGYwyuQ2osItHU9uGXNDq1HQEYxS//NdV0JOC4vJvaOccx2r9PNUcACBrEACD1V00BoMTkP1BDCPhY9q3spuMwABgAJE1bLQGg5OQ/UDIEfAmoaXG3tjkOA4ABQNK01BAAapj8B0qEgFPxGqkIx2EAMABImrLSAaCmyX9glCHgXGDT0WxWL+S+O+DKgB4NAJKqUDIA1Dj5D4wiBFxMum1asY4j39/shoD+DACSqlAqANQ8+Q/kDgF9erTvqB1Hnr9ZxMOYDACSqlAiALRh8h8Y5aOEFSvH6YC7AvoyAEiqwqgDQJsm/wFDQHsdR+zf6u6AngwAkqowygDQxsl/wBDQXscR93e6I6AfA4CkKowqAFxOeyf/gVeSdx+dCMwd2db0S9TpgIglfA0AkqowigDQ5l/+a3oHefeVRwLyOZ7mf58/BfRhAJBUhdwBoAu//Nf0CfLuM48E5LGQ5n8bFwKS1BlLcPKfiXdiCGgbA8CQMgBI/XUXeSawLh32n4wXBraLAWBIGQCk/rqH+Imry7/81/QK8oYAjwTE6VQAmBPQiKR+Gwse7xrg5cD2E9V1PwY+ALya+H0JcARwCvAmUljTzO1ZuoFIY0wcBmhoAbA4YBxJ7bMSH0MrTdWVwG4Nx5hPwO2EfmglNbWqdAOSps8AIKmpFaUbkDR9BgBJTS0v3YCk6TMASGrKUwBSCxkAJEnqIQOAJEk9ZACQJKmHDACSmvIiQGnqqvm8GAAkNXV96QakFrmudAMDBgBJTV1QugGpRar5vBgAJDV1UukGpBap5vMyi5hnAeR4gIWkdvgOcH7pJqQWOBU4J2CciDl3fBZwR8BA8wLGkNRO48CLgGWlG5Eqtgj4h6CxNgkYY9ksYGnAQJsHjCGpvS4EngncXroRqUKLgKcBvw8aL2LOXTqLmA/sTgFjSGq37wAHAD8p3YhUkdOA/YAfBY65c8AYS+YAiwMG2gM4JWAcSe32G+BRwMGkXzwPBbYD5hbsqU82Jh0engvMBlaS7jtfBtxZsK8+WU66NfY80gV/Eef817R7wBi3zgGuAB7ecKD9ApqR1B1nTpSkePsHjPH7WcClAQMdgncCSJKU2yzSEbamLosKANsTk0gkSdLkHg1sEzDOJbNI5+wiPC9oHEmSNNxzgsb5LaRD99eT7uVtUrcTk0okSdLatibdut90vr4eGBusBHhWQGObAK8MGEeSJK3ttcCmAeOczmqrAL+Y5olinLSq4K4BzUmSpP+1G+lWzoi5+pjVB94RuCdo4O/iHQGSJEUZIz1HIGKOXkG6cP8vfD9o8HHg1aGbLklSf72euPn5O8Ne4NmBL7AcOCxs0yVJ6qcnkn61R83Pzxr2IhuTlgWOepGlwCODdoAkSX2zP+kOu6h5+RbW8fTetwe+0PhE409svg8kSeqVxwBLiJ2T37quF9yKmHsM1zwd8Bq8MFCSpPUZI93uF3nYfxy4DZi/vhd/X/CLDup7eIugJEmTuR+xF+SvXu+eSgMLgBszNXDHRBOuGChJUrIt8F7i7vNfs64HtphqMy/I1MSgbgf+g/RQA08NSJL6Zgw4EPgUsIy8c+7RkzUw2f/9bOBRzbZvSm4EzgDOBS4GriYFhKUjeG1JknLbjLSE707AnsB+wCGM5mj4WROvNb7m/2Ndv753B84jNS5JktplCbAQ+P2w/+esdfyHl7HGesGSJKk1Xsokkz/A7PX8xxcB9yIlCEmS1A4fB96zrn9hKhfgbQB8G3hcREeSJCmrM0iL8N29rn9pqlfgbz4x4L4Nm5IkSfn8GjgIuHV9/+J0bsHbnnRnwP1n2JQkScrnMtLt9TdO5V9e10WAa7p+YuALZtCUJEnK5zek2/2mNPnD9AIAwA2kQwunTvO/kyRJeZxBWrfnuun8R+u7C2CY5cBXSUsXeneAJEnlfAJ4Dmmp/WlpugzvEcBngC0bjiNJkqZuKXAs8MWZDhCxDv/uwKdJ1wdIkqS8ziIt1DfpIj9TMd1rAIa5jHRdwPNI1whIkqR415Pm2kNoOPnDzK4BmMyvSKcDxoAHAxsGji1JUl8tBT4IPAv4edSguR7FuznwEuB1wIJMryFJUpctIV3k96/AoujBcwWAgY2Aw4HnAk8A5mR+PUmS2mwVcDpwAnAisCzXC+UOAKvbAXgycCjp/MV2I3xtSZJqdT3pXv7TSc/euX4ULzrKALDm6+4FPAjYA3gAsAuwFbDpRG1WqDdJkiItBW6fqFuAK4FLSBfR/wb4XYmm/j8CbsIkPWf8GgAAAABJRU5ErkJggg==;imageBackground=default;" vertex="1" parent="1">
          <mxGeometry x="110.08" y="1717.92" width="38.5" height="38.5" as="geometry" />
        </mxCell>
        <mxCell id="TAAMW9c03Df91oIx33Ai-47" value="" style="shape=image;verticalLabelPosition=bottom;labelBackgroundColor=default;verticalAlign=top;aspect=fixed;imageAspect=0;image=data:image/png,iVBORw0KGgoAAAANSUhEUgAAAgAAAAIACAYAAAD0eNT6AAAABHNCSVQICAgIfAhkiAAAAAlwSFlzAAAOxAAADsQBlSsOGwAAABl0RVh0U29mdHdhcmUAd3d3Lmlua3NjYXBlLm9yZ5vuPBoAACAASURBVHic7d13uGVVff/x950CDH2GjoWmICiKjIoQpalYIhaIEaPYgj/U/Oyxm4ixx1hjI+ovKjFWUKwISrOgSLEhTRBEkDoDMwxlhpn7+2Pdk4wz587ce/d3nbX23u/X83wfeRJY57v3Peesz9ll7THKmAU8DTgE2BvYBVgAbAjMBsYmSpKkthufqJXA3cAi4A/Ar4HTgW8Cq0bd1Cgn2YXAa4BHAzuSQoAkSX23CrgWOBt4P3DhKF40dwDYEvhn4O+A7TK/liRJXbCEdFTgH4Ebcr1IrgCwO/AfwIEZX0OSpC4bJ50meO7E/4aKnpzvD3wJ2Dd4XEmS+mocOB84CrgiatCo8/CzgOOBS3DylyQp0hjwMOBy4CRgTtSgTT2J9Kt/s4CxJEnSui0BngGc2mSQpkcAPgF8Gyd/SZJGZXPgFODjTQaZ6RGALYGfky72kyRJZVwC7Ec6KjAtMwkA2wG/Iy3cI0mSyroVeDBwzXT+o+meAngwafUiJ39JkuqwJXAZacG9KZvOEYB9gHOBudN5AUmSNBIrSHfi/XYq//JUA8C9SLcfzJthU5IkKb+7gAcAV6/vX5xKAFgAXAls0bApSZKU362kh+zduq5/aSrXAJyDk78kSW2xJfCT9f1L6wsAH8Fb/SRJapu9SGv1TGpdpwCeAHx3Pf+OJEmq0zjweOC0Yf/PySb3WaRzB6NY4W8V6d7FC4DzgF8CtwA3juC1JUnKbVtgK9IV+gsn/vfexD2PZ11uI13Lt2qq/8FnSckhV60CLgKObbhhkiS10SzgxaSF9XLOt+PAp6ba1P2BlRkbOXviNSRJUrrW7ifkm3dXku4KWK/zMzVwPXDAdPeKJEk9cSDp9HeOOfhn63vx3TO98EmM5lyHJEltNgs4mfh5eBWw27pe+McZXvRNTfaEJEk99BrSpB05H5852YttG/xiq4AXNt4FkiT10zHEz8tbD3uhTwS+yDjwuqAdIElSX72R2Ln5o8Ne5ObAFzgpbNMlSeq3bxE3P9+05uALAwe/Hi/4kyQpyizSxB01T++z+uBfDBz4wPBNlySp3w4gbp7+/OoDXxM06NkZNlqSJKWn80bM1VcPBpxF3Mp/PjlQkqQ87k/MXQErmThV/7SAwcZJa/tLkqR8LiZmzj58FvDYoKY+FDSOJEkabuhtfDPwGEgrA4UdTpAkSdlEnbY/fRZTfELQevyRaTxrWJIkzcgq4NqAcXaZA2wVMNCFAWMM8yjgCNI6BdsCG2R6nelaRLqK8hTgq8BtI3rd+wHPAA4C7gVsPKLXXZ87gD8BZ5H2xxUjet0tgb8BngDsBCwY0euuz3LSE73OIy2K9ZOy7UjqmAuA+zQcYxtIX1ZNDyVEP/BnD+D0gL5GUbcALwPGgvfB6jYDjgdWVLC966sVpGWlN82yJ5Ix4OWkfV96e6dSP8Q7ZCTFeSvNv5fuhphzCX8duGEHA4sDehp1nQDMDtwPAzsCv65g+6ZbvwJ2yLA/ZgP/VcH2TbcWkY7cSFJTT6X5d9JKAgYZJx2ij7AH7Zz8B/W+oP0wMA84t4Ltmmn9DNgoeJ98oILtmmktIt3HK0lN7Efz76NVBAwyDuwWtFE/DOqnVK0CHhm0LwDeUsE2Na03BO6PRxD/fOxR1xmB+0NSP+1GzPdRyCARdxI8KqiX0nVywL6A9Mv51gq2p2ktAjYM2ieRT8QqWQcE7Q9J/bQLAd9FNd27f0TpBoIcRswFcI8BtggYp7T5wKEB42wGPC5gnBp05b0uqcVqCgD7lm4gyEbAXgHjdGV/QMy2PJC4IwmldelvK6mlagoA25VuIFDE1e9d2h/bB4zRpf2R4+4ISZqWmgJALYv8RIjYlrkBY9QiYn/4/pCkQDUFAEmSNCIGAEmSesgAIElSDxkAJEnqIQOAJEk9ZACQJKmHDACSJPXQnNINBDsauLjhGB8nPXSmC/4d+FzDMZ4HvCyglxqcC7y04Rh7kh79LEmt1rUAcDFwfsMxlkQ0Uolrab4/HhvRSCWW0Hx/SFIneApAkqQeMgBIktRDBgBJknrIACBJUg8ZACRJ6iEDgCRJPWQAkCSphwwAkiT1kAFAkqQeMgBIktRDBgBJknrIACBJUg8ZACRJ6iEDgCRJPWQAkCSph+aUbiDYx0nPfG9i34hGKnEM8NiGY+wc0Ect9gVOazjG5hGNSFJpXQsAjyjdQGXuN1FKFtA8EElSJ3gKQJKkHjIASJLUQwYASZJ6yAAgSVIPGQAkSeohA4AkST1kAMhjvHQDHeQ+laRANQWARaUbCHRLwBjuj7+0OGCMWkTsD0lqpKYAcFXpBgJdFTDG1QFj1OKqSsaoxVWlG5CkmgLA90s3EORy4A8B43yP7hz2PjVgjCuAywLGqcH3SjcgSTUFgK/RjcPenwwa52qar1tfg1OI+8X7qaBxSroZOKl0E5IE6Vdm09olqJeXBfVTqi4FNgzaFwD7AHdVsF0zrbuAvQP3x0akIyylt6tJvSRwf0jqp12I+T4KGSQqAIwBJwT1NOpaDOwZtB9W9wJgVQXbN91aBTw3w/7YC7i1gu2bSX0uw/6Q1D+dDAAAs4H30a5J71LyTP4DzwCWVrCdU60lwJFZ9kSyF+l6gNLbOdVaBbyX9N6WpKY6GwAGHgacDNwZ1GOOugR4NbGH/SezA/BR4KYRbt9060bgI8D2mfbB6jYCXkMKX6W3e7K6E/g6sDDTPpDUTyEBYGziH5ralZgr34fZBHggaQLcINNrTNfNpAvbcm3zuswm/QK+D2nf1GAZ8EfgYmBlgdffFdgZ2KrAaw+zHPgzcBFp30hSpF2AKyMGivilk+MIgCRJWlvIEYCabgOUJEkjYgCQJKmHDACSJPWQAUCSpB4yAEiS1EMGAEmSesgAIElSDxkAJEnqIQOAJEk9ZACQJKmHDACSJPWQAUCSpB4yAEiS1EMGAEmSesgAIElSD80JGuedwNKgsSRJ0uQ2ixhkDBiPGEiSJLWHpwAkSeohA4AkST1kAJAkqYcMAJIk9ZABQJKkHjIASJLUQwYASZJ6yAAgSVIPGQAkSeohA4AkST1kAJAkqYcMAJIk9ZABQJKkHjIASJLUQwYASZJ6aE7QOG8D7gwaS5IkTW4e8NaIgcYDan5EI5Ikab3mEzB3ewpAkqQeMgBIktRDBgBJknrIACBJUg8ZACRJ6iEDgCRJPWQAkCSphwwAkiT1kAFAkqQeMgBIktRDBgBJknrIACBJUg8ZACRJ6iEDgCRJPWQAkCSph+aUbmAK9gAWAtsBGxTuRRqVFcANwC+Biwr3IqmDag0AY8AzgX8C9irci1Ta5cA7gROAVYV7kdQRY8B4wDgLgMUB4wBsQvqie3rQeFJXnAocRdxnTVI7zQcWNR2ktmsA5gAn4+QvDXMYcBqwcelGJLVfbQHgOOAxpZuQKrYQeHfpJiS1X02nAHYArgDmNW9H6rQVwJ6kz4uk/uncKYBn4uQvTcVc4Nmlm5DUbjUFgENLNyC1iKfKJDVSUwC4b+kGpBbx8yKpkZoCwGalG5BaZIvSDUhqt5oCgCRJGhEDgCRJPWQAkCSphwwAkiT1kAFAkqQeMgBIktRDBgBJknpoTukGgp0E3Fy6CWk9Nic91leSihoPqPkBfVwR0MfCgD6k3Hal+Xu98YNAJLXWfALmbk8BSJLUQwYASZJ6yAAgSVIPGQAkSeohA4AkST1kAJAkqYcMAJIk9ZABQJKkHjIASJLUQwYASZJ6yAAgSVIPGQAkSeohA4AkST1kAJAkqYcMAJIk9dCc0g3of2wP7AhsMlGbAbcCyybqj8DiYt1J07clsBewLTC3cC+q253AtcBvgRUFXn/nidomYKzlwA2kbbk9YLxsDABl7AQcAhwEPBDYHdhiCv/djcAlwK+BM4CzgFsy9SjN1EHAm0jvcSd+TcetwEnA24GrMr/WBsCxwItJQTXaXcCpwDuAX2QYP8R4QM0P6OOKgD4WBvSRy57Au4DfE7PPx4GVpDfWq0hHENQOu9L8b79o5F2v3wbAp4h7f1v9rbuAF5LPbsBvRrQtq4B/A2YH9j8/qLeQQQwAw80Bng2cS/432T3At4GDR7FhaqSLAWA28C1G84Vq9adeQbxdSIfoR70tnw/cBgPAkKolAMwBXkTsr/3p1E+AJ2TfSs1UFwPAWynzXre6XfcAf0WcOcAvC27PS4O2wwAwpGoIAA8jHZYv/cEZJ/0i2yXv5moGuhYAdiRdqFr6/W51s35GnGMKb8vNTO16r/UJCQDeBhhnU9L5z3NJIaAGTwYuAl6Pt3wqn+cAG5duQp21H/CQoLGODRpnprYCjizcw/9wUoixF3AOKV2OFe5lTfOA9wCn4YWCyuPxpRtQ50Wc0tyaOo4SV3N61gDQ3NHAecCDSjeyHocC5wOPKN2IOmfn0g2o8yJOZe5EHT/QqjktawBo5uXAZ0m/sttgR+B04ImlG1GnbFS6AXVexHdsLe/TauYLA8DMvQf4MO3bh5sAJwNHlW5EnXF96QbUedcFjPHngDEiRGxLiLZNXrX4Z9KFdW01F/gv4OmlG1EnnFO6AXXeTwPGuIo6QkDEtoQwAEzfscDbSjcRYDbwBeBRpRtR632ldAPqtMXADwLGWQWcGDBOE+PA1wr38D8MANNzKPCx0k0Emgd8Hbh36UbUamcT8wUtDfMu0sOCIrwHuCNorJn4MukhQVUwAEzdtqTD5pHrOddga+Cr+NAWNXMM6WFVUqQfAR8JHO9a4CWB403H1eRZ2njGDABTM0Y6XL5D6UYyeSRwXOkm1GpXA0+ioguc1HpnA08jPV430ueBV5MepjYqV5DuvqouJEcsb9j1pYBfGNBb7bUC2Cdqh2mdurYU8Op2AE4gfbmWfk9b7awlwFvIf1TyYODCzNuyAvgkaQXASCFLAY9N/ENTC0gXajRxBemLsYmHkRa7ibQAuJR0qDy3FcCVpGdiLwW2nHjd+zKaozU/AR5NzHtCk9uV9H5vYjHpvVmrnYGnkkLldniKSet2J/An4MfAd0nfgaMwC9ifdPRqF2CbgDGXk26NPQ/4Jum0Q7T5BP0IiEg5XT4C8PGAvtZV5wH/COxLelLVMPOAg4B3An/I3M9zZ7ifNHVdPgIgKT+fBjikogPAvYG7A/paswa3o8yk3zHSQ35+nqGvceByunehY20MAJKaMAAMqegA8KGAnoZNsIcE9DZGujbh1gw9/l1Af5qcAUBSEwaAIRUZABYQ/4zzE4HNA3uENJlEX8jy6+Ae9ZcMAJKaCAkA3gY4uaOIfcb5J4BnkK5wjXQl6fqAMwPH3Jt0QaUkqaMMAJM7OnCszwP/QDr3n8MS4HDSBYVRvBhQkjrOUwBru19AL4P6ObBBUF/rcy/SQhMRfd+IFwPm4ikASU14CiCjxweNcyfpgrrolawmcy3wf4LG2oZ8CytJkgozAAx3aNA476H5gi/T9Q3SQhoRovaDJKkyBoC1zSJdVNfUYuCDAePMxD8HjRNxu6IkqUIGgLXtTMy6zZ8hLedbwvmkB2k05SkASeooA8Da9gga54SgcUq+/laM5hkIkqQRMwCsLSIAXEf5xXSirgPYPWgcSVJFDABr2yVgjB8FjNHUdaQHBzXV9AmNkqQKGQDWFrFU78UBY0S4JGCM6KWLJUkVMACsbdOAMa4LGCPCnwLG2CxgDElSZSZ7/nyfRQSA2wPGiBBxF4IBQDM1BmwHbAvMDRjvBtIKlaNaWGtNC4AdgI0Kvb7aYTn/+16tmgFgbfcEjFHLfo340l0RMIb6ZTfgH4GnAdsHj70M+D7wUeCM4LGHWQC8CvhbvCBW0/NH4OvAvxFzNDacpwDWFvGrecuAMSJEPKOh1FoGap8x4I3A74AXEz/5A2wCHAGcDnyFmCN2kzmCtJLnW3Dy1/TdF3gFcBnw0sK9DGUAWFvE4ftarpzfLWCM6McXq7s+BryL0T386hnAWeQJAS8CvkY9YV7tNY/02Xh76UbWZABY280BYzwkYIym5gAPDBjnloAx1H0vBl5S4HX3BT4dPOYBpC/sseBx1W9vBv6mdBOrMwCs7bKAMfYnpb6SFhJzC1/E/lC3bQm8o+DrP5O4B1eNAe8n5voZaXVjwIeAjUs3MmAAWNulAWNsBDwpYJwmjgwYYyXw+4Bx1G3PIeb5GU1EnWN95ERJOdwLeErpJgYMAGu7BBgPGOfvA8aYqQ1JX8pNXQncHTCOuu2JpRsAHk/M3Telg7u6769LNzBgAFjbYuCigHGeAOwTMM5MPI90v3JTPw4YQ913/9INkC4EjLjr4H4BY0jrUs17zAAwXMT9xYPzPaO+kGgz4K1BY50eNI66rZbForYIGKOWbVF3RbxPQxgAhoua+A4CXhA01lT9K7Bj0FijWGhF7XdD6QYm/DlgjFq2Rd0V8T4NYQAY7jTilvP9CLB30FjrcxTpdqwIPweuDRpL3XZB6QaAq4FFAeNcGDCGtC41fF4AA8BklgEnBY21CfBdYKeg8SZzEPCfgeOdEDiWui3qs9JEVA8nE7McuDSZGj4v/2M8oCKWnL0ioI+FAX0MPCagn9XrauABgf2t7kmkIxZRvd4NbJ2pV6WVIpv+jSJ+7UYZA84j9vMynboDuHfg9vxHwW2xul3fJ8b8oH5CBuliAJhFWtM88o+/mLS+eGSPbyb9Yons01//eXUtAAA8lNgQOp06NnhbtibdAltiW6zu1i3E3QFgABhSkQEA4OiAnobVl0kPimji4aTz9NG9rQT2bNib1q2LAQDS/c1LyfOZGVargH/JtC17kY7ajWpbrG7XLcCjiWMAGFLRAWBOUF/D6m7gU6SJfKpmkxZd+Tbpyy9HX1+ZRj+ama4GAEgXvP6YPO/N1etqYo+mDbMdKazn+qxZ/ahTib/3PyQAjE38Q1MLSIe3m7iC5k/RexhwfsMx1nQU8MXgMdd0BenWw/NIa+8vJv2Smk86HPkA0vMFDgW2ydjHcuDBxCyHrMntSvqbN7GY9Lmr1cHA00inBrYjZm39G0j77duki/XuChhzKvYmPXnwkaSlXDca0euqnZYD15O+z08CzsnwGvMJ+hEQkXC6egRg4AcBvbWhSj7QpU+6fARAUn4hRwC8DXBq/oHur4l/FelZ7pKkHjAATM2lwOtLN5HRPaQLHu8o3YgkaTQMAFP3YSpbwCHQW/DBP5LUKwaA6fl70kV6XXIy6fkBkqQeMQBMz63AY4FrSjcS5OfAs4m5E0SS1CIGgOm7hrTgya2lG2nod6QlhJeVbkSSNHoGgJn5DWlVp7Y+Le984BC8lUySemtO6QZa7LekEPB94P6Fe5mO04GnA0tKNzIFGwKPAx5CWoBlCfB70j7vymkYSSrGhYCa2QY4ZYb9jrJWAR8CNsizG0JtBLyRtNrdZNvyZZqvHFmKCwFJasJnAQypEgEA0uNQX0FaArL0RD+sbgP+NtvWx9qOqT9adhHpCEHbGAAkNWEAGFKlAsDAwyn7XPRhdSJwn5wbHWhb0qJL09m+5aQ159vEACCpCQPAkCodACA9se8fSI9/LDnxX0p6cmBbbM7Mw9Ny0nUNbWEAkNSEAWBI1RAABjYlnRa4ltFO/BcBz6VdF3huQHpkZpPtblMIMABIasIAMKRqCgAD84AXAmcCK8kz6d8FfA04nPbd2jkb+Cox+6EtIcAAIKkJA8CQqjEArG4n4DXAd4GlNNvW64EvkpYnjtj/JYwBnyI2DLUhBBgAJDUREgDadJi4C64G3j9Rc4CHAQ8Edgf2AHYgnTrYFNiMtNrg7RP1R9J5/UtICxFdxESCa7F3AccEjzmXdIvgM4GvB4+tmdmU9HeRJnMn6UhmSWPAlgHjLKdFK6x6BEAl/F9if/m36UhA148AbAG8Fvgp6Ysw59/Z6k7dQno42bMY3anMBwIfIS0wFnkb91LSad+XAxtn6NtTAEPKANAOzybf9RCrV60hoMsB4CjgJvL/ba1u16+AB5HPhsDHgHtGsC3Xkp4fE8kAMKQMAPV7MrCC0X2R1BgCuhoAXkdapXFUf1ur27WEtNx6tHnAWSPelnuAFwVugwFgSBkA6vZI0vUMo/4iqS0EdDEAPB0nfyu+biR+IbP/KrQtK4CDgrYhJAC07ZYxtdeDSHc/bFLgtQcXBtYUArpkI+DDpIuopEjbAO8OHO8g0inIEuYAn6SiNVoMABqFXUgL/ZS8XdEQkM8zac9y02qfZ5GeBhrhtUHjzNQDqGiFVgOActsG+B7pFsfSDAF5PKV0A+q0WaRFzpraBHhMwDhNRWxLCAOActqc9KjkPUo3shpDQLy9SjegztszYIxdSKerSqvm82IAUC4bkJYn3rd0I0MYAmK1dSVKtcdWAWPU8j5dULqBAQOAcpgN/DfwuNKNrIMhIM7NpRtQ590YMEYt79ObSjcwYABQtDHgeODI0o1MgSEgxm9LN6DOi3iP/YE6luit5vNiAFC095AeUNQWhoDmTi7dgDrtHuA7AePcBXw/YJymqvm8GAAU6TWk1eBy+Dbws0xjD0LA0zKN33VfAy4v3YQ66zPADUFjvYe0CE4pvwBOK/j6a4lY4ciVAPUc8q0Edw7pFp7NJ/4510pdo1oxsIsrAT6W0S7xbPWj/ghsS6yPFdqWO0lPgI3gUsBDygBQxuHk+/L/NX/5/upCCOhiAIC01vkoHq5i9aNuBB5KvLnAN0e8LXcBzwjcBgPAkDIAjF7O9f2vYPgCQm0PAV0NAACHkS62yvW3sfpRZwA7k89s4G2kX+W5t+Vi4IDg/g0AQ8oAMFp7kyaiHB+aG4Hd1/HabQ4BXQ4AkB61+kLSr6xriH3OutXNugO4jHS+/zBG577AW4Gfk75zIrblbuBq4ETScwdyrP1vABhSpQLA9sA/kS5Su4n0hfcn4OvA0VT08IdAuwLXkefL4DamduivrSGg6wFAUl4GgCE16gAwBrye9R8Cvwz4qxH3ltM2wKXkmXTvAA6cRi9tDAEGAElNGACG1CgDwFzSandT7e1u0tGAttscuIA8k+09wBEz7KlNIcAAIKkJA8CQGlUAmAucNIP+VgHHjqjHHOYBZ5Fnkl1FswWE2hQCDACSmjAADKlRBICZTv5tDwGzSRe15JpgI57TvQn5AkpkCDAASGrCADCkcgeAppN/W0PAGPBp8k2s7w3stQ0hwAAgqQkDwJDKGQCiJv82hoB/Jd+E+nlSwIhUewgwAEhqwgAwpHIFgOjJf1BtCAGvI99E+k3y3SJZcwgwAEhqwgAwpHIEgFyT/6BqDgFHk299/58CG2fuv9YQYACQ1IQBYEhFB4Dck/+gagwBo1zfP6caQ4ABQFITBoAhFRkARjX5D6qmELA/sIw82/l70sqJo1RbCDAASGrCADCkogLAqCf/QdUQAnKu738D617fP6eaQoABQFITBoAhFREASk3+gyoZAnYD/jyFHmdSt5Ln0Z7TUUsIMABIasIAMKSaBoDSk/+gSoSAbcm7vv+jR7cp61RDCDAASGrCADCkmgSAWib/QY0yBGxBfev751Q6BBgAJDVhABhSMw0AtU3+gxpFCJgHnJ2x/xdm7n+mSoYAA4CkJgwAQ2omAaDWyX/1STRXCMi9vv9rMvUdpVQIMABIasIAMKSmGwBqn/wHlSMEjAGfydjzu4P7zaVECDAASGrCADCkphMA2jL5Dyo6BLwvY6+fI359/5xGHQIMAJKaMAAMqakGgLZN/oOKCgFvyNjjyeRb3z+nUYYAA4CkJgwAQ2oqAWAuec97rwIuzjj+SuD5U9jOyeRc3/8MYKMGvZU2qhBgAJDUhAFgSK0vAIziwT4vBzYEvp35dWZyJOAp5Fvf/1fAljPoqTajCAEvDhjHACD1lwFgSK0rAIxq8h+oLQQcDNyZqZcS6/vnlDsERIQwA4DUXwaAITVZABj15D9QSwh4MLA4Uw/XArtMoYe2yR0CmpYBQOovA8CQGhYASk3+A6VDQO71/fdZx2u3Xc0hwAAg9ZcBYEitGQBKT/4DpULAjsCVmV6zpvX9c6o1BBgApP4yAAyp1QNALZP/wKhDwBbAhZleaznw19PY9rarMQQYAKT+MgAMqUEAqG3yHxhVCMi9vv8LZrDtbVdbCDAASP1lABhSC6l38h8YRQjI9ct/HHh1g21vu5pCgAFA6i8DwJDaj7on/4HcISBXvSNg29uulhBgAJD6ywAwpE4P2p5hFTX5D7QtBHyWdq3vn1MNIcAAIPWXAWCEFT35D7QlBHyDdq7vn1PpEGAAkPrLADCiyjX5D9QeAk6n3ev751QyBBgApP4yAIygck/+A7WGgF/SjfX9cyoVAgwAUn+FBAAP605uHHgl8JERvNbdwJGkpxTWcn/9ZcBhpNX+NLllwOHAKcD+hXupxRhwCOnJhw8BtsNTSOqP5cCNwHmki9J/UraddYv4NdK1IwCj+uW/plqOBFwL7Jx3Uztn1EcCaj0CsA9wDuXfw5ZVS/0Q2J1YngLIVKUm/4HSIeAW4EHZt7KbNgd+ymj+TjUGgCcDt1P+M2xZtdUi4CDiGAAyVOnJf6BUCFiGh7GbGlUIqC0A7Et6/5T+DFtWrbUIuD8xDADBVcvkPzDqELAceNJItqz7RnE6oKYAMAacT9nPr2W1oc4ghgEgsFYBrwjYhmijCgErgWePaJv6IveRgKWj25T1Opxyn13LalsdQHMhAWBWQCNtNw68Cvhw6UaGGNwd8J3Mr3Mi8IXMr9E3S4DHkR7KlMPcTOPOxBGlG5BapJrPS98DQM2T/8AoQsDf8JePElaMwS2C52QYu6bb6vYt3YDUItV8XvocANow+Q/kDgFjwCcwBOSwBHgC8SGgpucybFe6AalFdijdwEBfA0CbJv8BQ0B75TgdMB44VlMblG5AapFqPi99DABtnPwHBiHg+5nGNwTkE306YFXQOJJ6qm8BoM2T/8DdpCVWL8o0/hjwceD5mcbvs8Hpr6NtjQAAHD5JREFUgAsDxloRMIakHutTAOjC5D9wJ/Bw4OpM488CPoMhIIclxOzX5QFjSOqxmgJAzl66NPkP3Ak8ALg40/izgP+HpwNyuD1gjJquAZDUQjUFgE0zjdvFyX/gLuChwJmZxveaAEnqqJoCwLwMY3Z58h+4m7SE72mZxveaAEnqoJoCQPTCJn2Y/AfuJF1hnusWQU8HSFLHjBFzLnEBsLjhGMuJXd70GuDGwPHaYBawG2kd+lyuIj0yWDO3Ic0fubyY9LmrwSKaPw/kqcC1Ab1IOe0JnNBwjCtJ39NNzCfggWA1LSd6D7EB4D4TpVg7T5QU6bekL0ZJI1LTKYC7SzcgSVJf1BQAIm6NkiRJU1BTAHBhE0mSRqSmACBJkkbEACBJUg8ZACRJ6qGaAoBrm0tT5+dFUiM1BYDGixpIPXJz6QYktVtNAcBFQKSp8/MiqZGaAsB3SzcgtUiu5z5I6omaAsBJwA2lm5Ba4Fbgi6WbkNRuNQWA24E3lm5CaoHj8IFMkhqqKQAA/CfwsdJNSBU7AfhI6SYktV9tAQDgZcCbgRWlG5EqshJ4F/B8vAVQUoAaA8A46YvuQcDnSM89l/rqNuC/gX1IwXhV2XYkdcWc0g2sw2WkXztzgF2AHYANSjbUMxuQ9vnmwFLgz/jI5lFaQboo9go8GlajzYA9gN2BBwDbAZsCm0zUYmDZRF0NXApcQrp9854C/UprqTkADNwDXD5RklTCBsChE3UI8FBg9gzGWQqcDZwBnAr8JqpBaSbGA2r+yLuWVItFNP8O2XXkXU/NI0kXJt9CzHflmvVr4LXAjqPaIDWykOZ/8ysC+pgf0Mc4QYMYAKT+6loAGAMOB84hz6Q/rJYDnyedTlC9DABDygAg9VeXAsDjSYflRzXxr1krgS8A9869oZqRTgWAGu8CkKRR25H0C/wU0h1IpcwC/o500eBxeOGzMjIASOq7o4CLgaNLN7KajYG3Aj8FdivcizrKACCprzYCPkx6rsLmhXuZzELgQlJIkUK14TZASYq2FemJivuVbmQKNiOFlD1JRwWkEB4BkNQ3O5Luw2/D5L+6fyY9L8UfbgrhG0lSn9wX+NHE/7bR80kXBh6Ny0KrIY8ASOqLrUlX+bd18h/4O+CjpZtQ+xkAJPXBxqRz/nuWbiTIS4A3lm5C7WYAkNQH/w48onQTwd4BHFa6CbWXAUBS1x0FvLB0ExnMAk7A5whohgwAkrpsZ+BTpZvIaFvSnQHStBkAJHXZh4FNSzeR2WHAM0s3ofbxNkBJXXU48JTMr3EPcC7wS+Ay4DZgGbAl6df5A4D9yb+c7weA7wJLM7+OOsanAUpqosanAc4mPVAn11P7fgw8j7RK31Tcj/Rwn2sz9vQvU947mqlOPQ2QoEEMAFJ/1RgAjgroaVidBxzYoK8NgZcBizP0thjYokFvWj8DwJAyAEj9VVsAGAN+FdDT6rUCeD3pyEKE7YDvBfc4DrwpqD8NZwAYUgYAqb9qCwCHBvSzet0KHBzY38AY8K7gXq8jLqRobZ0KAN4FIKlrnhs41q3AIcCZgWMOjJN+sb8hcMwdgMcFjqcOMwBI6pJNgCODxloBPBW4MGi8ybyXdLtilKMDx1KHGQAkdckTibvv/w3A2UFjrc9rgZ8GjfVU0sWG0joZACR1yWOCxvkF8KGgsaZiBelRv3cHjLUJsF/AOOo4A4CkLjkkaJz/C6wKGmuqLgc+ETTWoUHjqMMMAJK6Yntgj4BxfkBa3a+E9xFzFOCggDHUcQYASV3xwKBxjg8aZyauA74TMM5eAWOo4wwAkrpi94AxlgHfChiniS8FjLEtsCBgHHWYAUBSV0Qc/v8JMYfgmziDmOsPIvaHOswAIKkrtg8Y4/yAMZq6GfhjwDjbBYyhDjMASOqKiPv/Lw8YI8JlAWNsHjCGOswAIKkrpvpo3nVZFDBGhFsCxohaEEkdNad0A+uxEel+1oWkw1lzy7ajyt0FXE9aUe3HwMoRvvb2wJOAXUgXYDV1D3AD6al2pwF3BIzZdRsFjHFXwBgR7gwYY17AGOqwWgPAPODVpOUxfb61ZuI64F+AT5F3QZddSU90ewb5jqjdDnwQ+NeJf9ZwESFp44AxIkT8el8WMIY6rMZTADsCZwHvwMlfM7cj8EngZGIODQ/zBOAC4Jnk/SxtCvwT6cjGzhlfp+2WBoxRy4VzEX1E7A91WG0BYFPge8DDSzeizngy8DXij3YdAHyD0YbUvYHTga1H+JptEjHh1XLrXEQfSwLGUIfVFgDeDzy4dBPqnMOAVwaOtzHwFco8cW0X4CMFXrcNrgkY45EBYzS1EzG3NEbsD3VYTQFgN+CFpZtQZ72JuFMBLwXuFTTWTBwF7FPw9Wt1acAYD6P8CnqPDxhjnHpuaVSlagoAR1HvRYlqv/mkZ8VHeHbQODM1Rvq86C9FBIA5wN8GjNNExPvrGrwIUOtRUwB4dOkG1HkHBoyxOfCQgHGa8mlva7uImFs/X0oKWSU8mJjvwl8HjKGOqykA7Fi6AXXevQPG2JFyk8PqSp6CqNVtpLsymtobOCJgnJn4Z2LeX2cEjKGOqykAjHLRFvXTioAx7gkYI0ItfdTm9KBx3s/o1wR4LHBk0FhR+0EdVlMA8IpV5RbxHruOOsKqn5fhfhA0zk7Ah4PGmooFwGeCxroBTwFoCmoKAFEfXGkypwWMcQdwTsA4TUVsSxedAfw5aKxjgGODxlqXucAXgfsGjfdl8q5+qY6oKQB8Fdc7Vz7XEHdY9LNB48zUCuC/C/dQq5XE7puPkfeOi7nA50hrVUQ5IXAsdVhNAeDPwAdKN6HOejNwd9BYnyNdcV7Kx4ErC75+7T4XONZs4AvAqwLHHNgS+CbwrMAxLwLOCxxPHTceUPODeplDOhUQ0ZNlDerTxNsDWFxgW84h5ql3kRbRfLt2De7plICe1qyvEfesgANJIS66x+cF9afhFtL8b3RFQB/zA/oYJ2iQqAAAsAnpg5bjy9PqXx1PvsdI702eL/HJ6hTSr8ba1BgAHh3Q07BaDLyOmT+tbw/SEYVVGXq7Eh+ZnpsBYEhFBgBI98E+g3Qla44PsdXtWgX8CDiE/DYD3g7cnHF7LgGeQ12n7FZXYwAAODOgr8lqEen6gINZ/zMhtiGt7vcd0jUKuXp60TT3j6avUwFgbOIfmlpASsY53J+003cANsj0GuqGu4A/AT8Drh3xa88mPSFwV9Jh4qaLuawArgcuBC5uOFZui2j+I2A34q9reAjpfHjuJcbvAH5HWor4NuB20pGa7YEHkL7Dci8edQHwCOq4RbXLFtL8GosrSe/3JuaTPneNRSTP6CMAktqj1iMAAB8M6K32WgnsH7XDtE6dOgJQ6yFFSYrwVuDq0k1k9gnqWJtCLWMAkNRlS0hP91teupFMfgO8tnQTaicDgKSuO5e0DkTX3E4KN3eWbkTtZACQ1Afvp1sr5N1DWkDoktKNqL0MAJL6YBx4AfCN0o0EGAdeDHy7dCNqNwOApL5YSbof/+zSjTQwTlqIKOrJgeoxA4CkPrmD9OCdr5VuZAZWkn75/1vpRtQNBgBJfXM36Ql//1G6kWlYBhxBO3qeB/w98D3SwlwrgJtIq3O+gbRwnCrhQkCSmqh5IaD1eS7pavrSi/msqy4GHpRrBwR7EnAV696exaQjGW3UqYWACBrEACD1V5sDAMADqfO5I6tIv/g3zrfpoV5Mujthqtv3cdp3FNoAMKQMAFJ/tT0AQHpewCtIa/mXnvjHSbf3PTbrFsd6DjN7wuH/o10hwAAwpAwAUn91IQAM3Jt0hf1yykz81wIvo12P9T2cdJ5/ptvcphBgABhSBgCpv7oUAAbuC3yUdPHdKCb+K4GXsP5HC9dmf2L2UVtCgAFgSBkApP7qYgAYmAc8A/gW0zu/PZW6Dfg86Rf07FFtUKC9ifnbtykEGACGlAFA6q8uB4DVbU0KAx8HLmL6pwluJS1CdBzwaGCDkXYfa1fgOmIDURtCQKcCwJyARnLbg7TTtyPmA3MT6TaVHzP6J4TtABwA3Iv0y0KazArgBuCXpMlG5d0MfHWiIF04uCuwO+mzvelEbUK61e32ibqadFHf9SPuN5dtSff475Bh7BdM/O8xpIsKlVmNRwDGSAt1XBTU37C6jfSAkK2Cex/mUcCZzOwqWcu6DHge9f4y6ssRAMHmwAXkf8/XeiSgU0cACBokMgBsApwU1NdU6kbgwMD+VzdGOtznxG9F1Pep83SbAaAf5gFnMbr3e40hwAAwpKK+lOYAPwjqaTp1B/CwoG1Y3QcLbIvV7TqP+haGMQB032zgREb/fq8tBBgAhlRUAHhHUD8zqSuBjYK2A+DpBbfF6nZ9mLoYALptjLQ2Qqn3e00hwAAwpCICwA6kX+Ilv1hfE7AdkNLypYW3xepuLQd2ox4GgG57H+Xf87WEgE4FgBp26MAzKX9l/POCxjmAdGWwlMNc0nPtpdxeD/xj6SZIdwd8mjpCQGfUtDMPLd0AaWGL7QLGqWFb1G2PKd2AOu9o4N2lm1iNISBYTTvyvqUbmBDRRy3bou7yPaacnkI67D5WupE1GAIC1bQTa+klYknOWrZF3dXGpWPVDgcDXybdlVUjQ0CQmnbgtaUbmPCngDFq2RZ1V8T7VFrT3sDXib0jKgdDQICadt7ZpRsgXZ0Z8cVaw7ao284s3YA6ZzfgVGDL0o1MkSGgoZp23FdIT9sq6b+DxjmT9KAMKYdx4Eulm1Cn7ECa/LfPMPaKDGMOvAD4FHXNZa1R0067gpTmSrmJ9GyACMuBtwaNJa3pi8CvSzehztgC+C551mJYSbrF+w0Zxh54IR4JmLGIRRqiVgLcFPhVUE/TqXuAJwZtw8AY6YhC6QU0rG7VlaTH0tbEhYDaax7plGWO9+oq/vfpfpDWFMj52RjFYkGdWgiIoEEiH1CyA/CzoL6mUktJy/bmsBHwhRFui9Xt+iWwE/UxALTTbPI+eG3YyqptDwEGgCEV/YSyjUiHjCK+WCarVaQ3f+4V+8ZIq7b9IeO2WN2uJaRTSrU9BGjAANA+Y6TJMtd79p3reO02h4BOBYCxiX9oagGwOGCcNW0IHELa6dsDGwSMeRNpMv4eo71QbxawH/Ao4F6UX/ZYdVsB3ABcCPwQuLNsO+u0iOY/AnYjnd4oYRawDymEbEra778Abi7Uzyj8G3HPPlnT54Hns+655fXAezK9PsB/AseQfuhFWkh6ImcTV9L8WR7zSZ+7xiISV43PKJc0Gm09ArAp8Bbgz0P6uYf0aPJHFegrtzeS79f3yUx9AaE2Hgno1BEAggYxAEj91cYAsDtwyRR7O556V8WbrueSfhXnmHDPYPoLCLUtBBgAhpQBQOqvtgWARwK3TrO/E0lPYWyzp5BOLeWYaH/FzBcQalMIMAAMKQOA1F9tCgALG/T7bdJ1SW10MOk6khwT7OU0f4pqW0KAAWBIGQCk/mpLAGgy+bc5BDyYdJF2jon1WmDnoD7bEAIMAEPKACD1VxsCQMTk38YQsBvDL3KMqFtJd09Eqj0EGACGlAFA6q/aA0Dk5D+oNoSAHUm3nOWYSO8g3x0SNYcAA8CQMgBI/VVzAMgx+Q+q5hCwBWkNiRzbvRx4Uub+aw0BBoAhZQCQ+qvWAJBz8h9UjSFgHvAj8mzvKtIiP6NQYwgwAAwpA4DUXzUGgP2B2wL6mkrVFALmAt8h37a+enSbAtQXAgwAQ8oAIPVXbQFglJP/oGoIAWOkJXBzbePbR7cpf6GmEGAAGFIGAKm/agoAJSb/QZUOAe+fpK+IOn6E2zFMLSHAADCkDABSf9USAEpO/oMqFQLePMN+p1LfoI6lkGsIAQaAIWUAkPqrhgBQw+Q/qFGHgP+TaTvGgdOZ/vr+OZUOAQaAIWUAkPqrdACoafIf1KhCwFPJt77/L5n5+v45lQwBBoAhZQCQ+qtkAKhx8h9U7hBwCHWv759TqRDQqQBQw3md9dkUeBDpzbhB4V5Ut7tIy57+Bri7wOvfB9iFmC/OFcCNwEWkCU5r2x84Bdi8dCOT+GvSUwSPJP79+BDgJPIcnr8OeBxwQ4axo7x34n/fk2n8F0z87zGktQ86KyIt5TgCsB/wLdKXeukkb7WrlgAnkJ75ntts0pfELzNty3LSJHfgCLZlpkocAaj5l/+aFX0k4H7A9Zl6vZUULtpi1EcCOnUEgKBBIgPAbOADpNRV+oNrtbtWAK8kn3sB545we46nzqNgow4AbZr8BxUVAnYE/pCpx2XkW98/p1GGAAPAkIoKAGPAfwX1ZFmDOo542wNXF9iWk4l5rnmkUQaANk7+g2oaArYg75GmJzborbRRhQADwJCKCgAvD+rHslavVcR+uY0BZxfcnjcHbkuEUQWA3JP/5cDbyHv08UTScr3TtTF51/d/3gx6qs0oQsDDA8YxAAyxJXBLUD+WtWb9jnR6KcKRhbfldtIRiFqMIgDknvwvI53SATiWvCFgukcC5gLfzdjPq6bRS+1yh4CTA8YwAAzxoqBeLGuyOpgYp1awLa8J2pYIuQPAKCf/gVpCwBjw2Yx9vG0KPbRN7hDQtAwAQ3wtqBfLmqwibhnaiHRLV+ltOS1gW6LkDAAlJv+BGkLABzK+/ifX89ptVnMIMAAMcV5QL5Y1WX2Z5natYDvGgd8HbEuUXAGg5OQ/UDIE/FPG1/06cafEalVrCDAADPHboF4sa7L6Js3tVcF2jAPXBmxLlBwBoIbJf6BECDg24+v9cMjrdVWNIcAAMMQPgnqxrMkq4pBn1Aevaf0iYFuiRAeAmib/gVGGgKcB92R6nXOBzaa57W1XWwioJgDUdD/xOaUbUOf9NGCMxcClAeM0FbEtNcq9vO/lpDX0p3sE5XjgJaQvzhwGywYfBnyJPIfnLwcOB5ZmGLtm7wXeULqJWkUkmogjAA/G1f+sfLUM2IoY/1LB9tS0YlvUEYAaf/mvKfeRgFxP9vsTsFPDbW+7Wo4EVHMEgKBBohYC+mpQP5a1Zr2TOPOJmfRmWqcEbkuEiH1xJPVP/gO5Q0B03Uy6dkV1hAADwCS2o8zyqla36wLSSmqRngasLLAtN5GeOFiTiACwNGCMySpy8h9oSwhYBvxV8La3XekQYABYh72AK4P6sqxfADuQx98z2jUB/gTsm2lbmih5NGR9lWPyH6g9BLR9ff+cSoYAA8B6bE266CbX+TCr+7WMdNh/HnntR7qANee2rAQ+R13L/66u1gCQc/IfqDUErASOyrjdXVAqBFQTAMYm/qGpBaSro6PdG3gK6QlM21Pno1BVj7tIV3efQ7qt6pYRve4Y8DDSFda7kk5lNbUCuAG4kLR+wVUBY+ayiPgfAU3N9Gr/mTgW+ATpfVCLVwEfKt1EC7yemBVCp+NKYLeGYwyuQ2osItHU9uGXNDq1HQEYxS//NdV0JOC4vJvaOccx2r9PNUcACBrEACD1V00BoMTkP1BDCPhY9q3spuMwABgAJE1bLQGg5OQ/UDIEfAmoaXG3tjkOA4ABQNK01BAAapj8B0qEgFPxGqkIx2EAMABImrLSAaCmyX9glCHgXGDT0WxWL+S+O+DKgB4NAJKqUDIA1Dj5D4wiBFxMum1asY4j39/shoD+DACSqlAqANQ8+Q/kDgF9erTvqB1Hnr9ZxMOYDACSqlAiALRh8h8Y5aOEFSvH6YC7AvoyAEiqwqgDQJsm/wFDQHsdR+zf6u6AngwAkqowygDQxsl/wBDQXscR93e6I6AfA4CkKowqAFxOeyf/gVeSdx+dCMwd2db0S9TpgIglfA0AkqowigDQ5l/+a3oHefeVRwLyOZ7mf58/BfRhAJBUhdwBoAu//Nf0CfLuM48E5LGQ5n8bFwKS1BlLcPKfiXdiCGgbA8CQMgBI/XUXeSawLh32n4wXBraLAWBIGQCk/rqH+Imry7/81/QK8oYAjwTE6VQAmBPQiKR+Gwse7xrg5cD2E9V1PwY+ALya+H0JcARwCvAmUljTzO1ZuoFIY0wcBmhoAbA4YBxJ7bMSH0MrTdWVwG4Nx5hPwO2EfmglNbWqdAOSps8AIKmpFaUbkDR9BgBJTS0v3YCk6TMASGrKUwBSCxkAJEnqIQOAJEk9ZACQJKmHDACSmvIiQGnqqvm8GAAkNXV96QakFrmudAMDBgBJTV1QugGpRar5vBgAJDV1UukGpBap5vMyi5hnAeR4gIWkdvgOcH7pJqQWOBU4J2CciDl3fBZwR8BA8wLGkNRO48CLgGWlG5Eqtgj4h6CxNgkYY9ksYGnAQJsHjCGpvS4EngncXroRqUKLgKcBvw8aL2LOXTqLmA/sTgFjSGq37wAHAD8p3YhUkdOA/YAfBY65c8AYS+YAiwMG2gM4JWAcSe32G+BRwMGkXzwPBbYD5hbsqU82Jh0engvMBlaS7jtfBtxZsK8+WU66NfY80gV/Eef817R7wBi3zgGuAB7ecKD9ApqR1B1nTpSkePsHjPH7WcClAQMdgncCSJKU2yzSEbamLosKANsTk0gkSdLkHg1sEzDOJbNI5+wiPC9oHEmSNNxzgsb5LaRD99eT7uVtUrcTk0okSdLatibdut90vr4eGBusBHhWQGObAK8MGEeSJK3ttcCmAeOczmqrAL+Y5olinLSq4K4BzUmSpP+1G+lWzoi5+pjVB94RuCdo4O/iHQGSJEUZIz1HIGKOXkG6cP8vfD9o8HHg1aGbLklSf72euPn5O8Ne4NmBL7AcOCxs0yVJ6qcnkn61R83Pzxr2IhuTlgWOepGlwCODdoAkSX2zP+kOu6h5+RbW8fTetwe+0PhE409svg8kSeqVxwBLiJ2T37quF9yKmHsM1zwd8Bq8MFCSpPUZI93uF3nYfxy4DZi/vhd/X/CLDup7eIugJEmTuR+xF+SvXu+eSgMLgBszNXDHRBOuGChJUrIt8F7i7vNfs64HtphqMy/I1MSgbgf+g/RQA08NSJL6Zgw4EPgUsIy8c+7RkzUw2f/9bOBRzbZvSm4EzgDOBS4GriYFhKUjeG1JknLbjLSE707AnsB+wCGM5mj4WROvNb7m/2Ndv753B84jNS5JktplCbAQ+P2w/+esdfyHl7HGesGSJKk1Xsokkz/A7PX8xxcB9yIlCEmS1A4fB96zrn9hKhfgbQB8G3hcREeSJCmrM0iL8N29rn9pqlfgbz4x4L4Nm5IkSfn8GjgIuHV9/+J0bsHbnnRnwP1n2JQkScrnMtLt9TdO5V9e10WAa7p+YuALZtCUJEnK5zek2/2mNPnD9AIAwA2kQwunTvO/kyRJeZxBWrfnuun8R+u7C2CY5cBXSUsXeneAJEnlfAJ4Dmmp/WlpugzvEcBngC0bjiNJkqZuKXAs8MWZDhCxDv/uwKdJ1wdIkqS8ziIt1DfpIj9TMd1rAIa5jHRdwPNI1whIkqR415Pm2kNoOPnDzK4BmMyvSKcDxoAHAxsGji1JUl8tBT4IPAv4edSguR7FuznwEuB1wIJMryFJUpctIV3k96/AoujBcwWAgY2Aw4HnAk8A5mR+PUmS2mwVcDpwAnAisCzXC+UOAKvbAXgycCjp/MV2I3xtSZJqdT3pXv7TSc/euX4ULzrKALDm6+4FPAjYA3gAsAuwFbDpRG1WqDdJkiItBW6fqFuAK4FLSBfR/wb4XYmm/j8CbsIkPWf8GgAAAABJRU5ErkJggg==;imageBackground=default;" vertex="1" parent="1">
          <mxGeometry x="110.08" y="1761.17" width="38.5" height="38.5" as="geometry" />
        </mxCell>
        <mxCell id="TAAMW9c03Df91oIx33Ai-48" value="" style="whiteSpace=wrap;html=1;labelBorderColor=none;rounded=1;strokeWidth=0.5;" vertex="1" parent="1">
          <mxGeometry x="225" y="1691.17" width="90" height="120" as="geometry" />
        </mxCell>
        <mxCell id="TAAMW9c03Df91oIx33Ai-49" value="&lt;b&gt;Splits&lt;/b&gt;" style="text;html=1;align=center;verticalAlign=middle;whiteSpace=wrap;rounded=0;" vertex="1" parent="1">
          <mxGeometry x="232.82999999999998" y="1661.17" width="74.34" height="30" as="geometry" />
        </mxCell>
        <mxCell id="TAAMW9c03Df91oIx33Ai-53" value="" style="whiteSpace=wrap;html=1;labelBorderColor=none;rounded=1;strokeWidth=0.5;" vertex="1" parent="1">
          <mxGeometry x="360" y="1690" width="90" height="120" as="geometry" />
        </mxCell>
        <mxCell id="TAAMW9c03Df91oIx33Ai-54" value="&lt;b&gt;Vector DB&lt;/b&gt;" style="text;html=1;align=center;verticalAlign=middle;whiteSpace=wrap;rounded=0;" vertex="1" parent="1">
          <mxGeometry x="367.83" y="1660" width="74.34" height="30" as="geometry" />
        </mxCell>
        <mxCell id="TAAMW9c03Df91oIx33Ai-55" value="" style="whiteSpace=wrap;html=1;labelBorderColor=none;rounded=1;strokeWidth=0.5;" vertex="1" parent="1">
          <mxGeometry x="492" y="1692.17" width="90" height="120" as="geometry" />
        </mxCell>
        <mxCell id="TAAMW9c03Df91oIx33Ai-56" value="&lt;b&gt;Retrieval&lt;/b&gt;" style="text;html=1;align=center;verticalAlign=middle;whiteSpace=wrap;rounded=0;" vertex="1" parent="1">
          <mxGeometry x="499.83" y="1662.17" width="74.34" height="30" as="geometry" />
        </mxCell>
        <mxCell id="TAAMW9c03Df91oIx33Ai-57" value="" style="whiteSpace=wrap;html=1;labelBorderColor=none;rounded=1;strokeWidth=0.5;" vertex="1" parent="1">
          <mxGeometry x="630" y="1690" width="90" height="120" as="geometry" />
        </mxCell>
        <mxCell id="TAAMW9c03Df91oIx33Ai-58" value="&lt;b&gt;Documents&lt;/b&gt;" style="text;html=1;align=center;verticalAlign=middle;whiteSpace=wrap;rounded=0;" vertex="1" parent="1">
          <mxGeometry x="637.8299999999999" y="1660" width="74.34" height="30" as="geometry" />
        </mxCell>
        <mxCell id="TAAMW9c03Df91oIx33Ai-59" value="&lt;b&gt;&lt;font style=&quot;font-size: 8px;&quot;&gt;Chunk 1&lt;/font&gt;&lt;/b&gt;" style="rounded=1;whiteSpace=wrap;html=1;dashed=1;dashPattern=1 2;" vertex="1" parent="1">
          <mxGeometry x="250" y="1711.17" width="40" height="20" as="geometry" />
        </mxCell>
        <mxCell id="TAAMW9c03Df91oIx33Ai-60" value="&lt;b&gt;&lt;font style=&quot;font-size: 8px;&quot;&gt;Chunk 2&lt;/font&gt;&lt;/b&gt;" style="rounded=1;whiteSpace=wrap;html=1;dashed=1;dashPattern=1 2;" vertex="1" parent="1">
          <mxGeometry x="250" y="1736.42" width="40" height="20" as="geometry" />
        </mxCell>
        <mxCell id="TAAMW9c03Df91oIx33Ai-63" value="&lt;b&gt;&lt;font style=&quot;font-size: 8px;&quot;&gt;Chunk n&lt;/font&gt;&lt;/b&gt;" style="rounded=1;whiteSpace=wrap;html=1;dashed=1;dashPattern=1 2;" vertex="1" parent="1">
          <mxGeometry x="250" y="1779.67" width="40" height="20" as="geometry" />
        </mxCell>
        <mxCell id="TAAMW9c03Df91oIx33Ai-64" value="" style="endArrow=none;dashed=1;html=1;dashPattern=1 3;strokeWidth=1;rounded=0;strokeColor=light-dark(#696969, #ededed);" edge="1" parent="1">
          <mxGeometry width="50" height="50" relative="1" as="geometry">
            <mxPoint x="269.91" y="1774.92" as="sourcePoint" />
            <mxPoint x="269.91" y="1756.42" as="targetPoint" />
          </mxGeometry>
        </mxCell>
        <mxCell id="TAAMW9c03Df91oIx33Ai-65" value="" style="image;html=1;image=img/lib/clip_art/computers/Database_128x128.png" vertex="1" parent="1">
          <mxGeometry x="375" y="1728" width="60" height="44" as="geometry" />
        </mxCell>
        <mxCell id="TAAMW9c03Df91oIx33Ai-66" value="&lt;b&gt;&lt;font style=&quot;font-size: 8px;&quot;&gt;Vector Database&lt;/font&gt;&lt;/b&gt;" style="text;html=1;align=center;verticalAlign=middle;whiteSpace=wrap;rounded=0;" vertex="1" parent="1">
          <mxGeometry x="367.83" y="1701.17" width="74.34" height="30" as="geometry" />
        </mxCell>
        <mxCell id="TAAMW9c03Df91oIx33Ai-68" value="&lt;b&gt;&lt;font style=&quot;font-size: 8px;&quot;&gt;Question&lt;/font&gt;&lt;/b&gt;" style="text;html=1;align=center;verticalAlign=middle;whiteSpace=wrap;rounded=0;" vertex="1" parent="1">
          <mxGeometry x="499.83" y="1720" width="74.34" height="30" as="geometry" />
        </mxCell>
        <mxCell id="TAAMW9c03Df91oIx33Ai-69" value="&lt;b&gt;&lt;font style=&quot;font-size: 8px;&quot;&gt;Chunk 1&lt;/font&gt;&lt;/b&gt;" style="rounded=1;whiteSpace=wrap;html=1;dashed=1;dashPattern=1 2;" vertex="1" parent="1">
          <mxGeometry x="517" y="1752" width="40" height="20" as="geometry" />
        </mxCell>
        <mxCell id="TAAMW9c03Df91oIx33Ai-70" value="&lt;b&gt;&lt;font style=&quot;font-size: 8px;&quot;&gt;Chunk 3&lt;/font&gt;&lt;/b&gt;" style="rounded=1;whiteSpace=wrap;html=1;dashed=1;dashPattern=1 2;" vertex="1" parent="1">
          <mxGeometry x="517" y="1779.67" width="40" height="20" as="geometry" />
        </mxCell>
        <mxCell id="TAAMW9c03Df91oIx33Ai-71" value="&lt;b&gt;&lt;font style=&quot;font-size: 8px;&quot;&gt;Question&lt;/font&gt;&lt;/b&gt;" style="text;html=1;align=left;verticalAlign=middle;whiteSpace=wrap;rounded=0;" vertex="1" parent="1">
          <mxGeometry x="637.8299999999999" y="1701.17" width="74.34" height="30" as="geometry" />
        </mxCell>
        <mxCell id="TAAMW9c03Df91oIx33Ai-73" value="&lt;span style=&quot;font-size: 8px;&quot;&gt;&lt;b style=&quot;line-height: 80%;&quot;&gt;Anwser based on the below text&lt;/b&gt;&lt;/span&gt;" style="text;html=1;align=left;verticalAlign=middle;whiteSpace=wrap;rounded=0;spacing=2;horizontal=1;" vertex="1" parent="1">
          <mxGeometry x="637.8299999999999" y="1724" width="74.34" height="30" as="geometry" />
        </mxCell>
        <mxCell id="TAAMW9c03Df91oIx33Ai-74" value="&lt;b&gt;&lt;font style=&quot;font-size: 8px;&quot;&gt;Chunk 1&lt;/font&gt;&lt;/b&gt;" style="rounded=1;whiteSpace=wrap;html=1;dashed=1;dashPattern=1 2;" vertex="1" parent="1">
          <mxGeometry x="640" y="1756.42" width="40" height="20" as="geometry" />
        </mxCell>
        <mxCell id="TAAMW9c03Df91oIx33Ai-75" value="&lt;b&gt;&lt;font style=&quot;font-size: 8px;&quot;&gt;Chunk 3&lt;/font&gt;&lt;/b&gt;" style="rounded=1;whiteSpace=wrap;html=1;dashed=1;dashPattern=1 2;" vertex="1" parent="1">
          <mxGeometry x="640" y="1781.17" width="40" height="20" as="geometry" />
        </mxCell>
      </root>
    </mxGraphModel>
  </diagram>
</mxfile>
